<svg fill="none" height="112" viewBox="0 0 212 112" width="212" xmlns="http://www.w3.org/2000/svg"><path d="m57.5384 16.6097c.1708-.4106.7526-.4106.9234 0l2.0661 4.9675c.072.1731.2348.2914.4217.3064l5.3628.4299c.4433.0356.6231.5888.2853.8782l-4.0859 3.5c-.1424.122-.2046.3134-.1611.4957l1.2483 5.2332c.1032.4326-.3674.7746-.747.5427l-4.5913-2.8043c-.16-.0977-.3613-.0977-.5213 0l-4.5913 2.8043c-.3795.2319-.8502-.1101-.747-.5427l1.2484-5.2332c.0435-.1823-.0187-.3737-.1611-.4957l-4.0859-3.5c-.3378-.2894-.158-.8426.2853-.8782l5.3628-.4299c.1869-.015.3497-.1333.4217-.3064z" fill="#fdb022"/><path d="m81.5384 16.6097c.1708-.4106.7526-.4106.9234 0l2.0661 4.9675c.072.1731.2348.2914.4217.3064l5.3628.4299c.4433.0356.6231.5888.2853.8782l-4.0859 3.5c-.1424.122-.2046.3134-.1611.4957l1.2483 5.2332c.1032.4326-.3674.7746-.747.5427l-4.5913-2.8043c-.16-.0977-.3612-.0977-.5212 0l-4.5913 2.8043c-.3796.2319-.8502-.1101-.747-.5427l1.2483-5.2332c.0435-.1823-.0187-.3737-.1611-.4957l-4.0859-3.5c-.3378-.2894-.158-.8426.2853-.8782l5.3628-.4299c.1869-.015.3497-.1333.4217-.3064z" fill="#fdb022"/><path d="m105.538 16.6097c.171-.4106.753-.4106.924 0l2.066 4.9675c.072.1731.235.2914.422.3064l5.362.4299c.444.0356.623.5888.286.8782l-4.086 3.5c-.143.122-.205.3134-.161.4957l1.248 5.2332c.103.4326-.367.7746-.747.5427l-4.591-2.8043c-.16-.0977-.362-.0977-.522 0l-4.591 2.8043c-.379.2319-.85-.1101-.747-.5427l1.248-5.2332c.044-.1823-.018-.3737-.161-.4957l-4.0855-3.5c-.3378-.2894-.158-.8426.2853-.8782l5.3632-.4299c.186-.015.349-.1333.421-.3064z" fill="#fdb022"/><path d="m129.538 16.6097c.171-.4106.753-.4106.924 0l2.066 4.9675c.072.1731.235.2914.422.3064l5.362.4299c.444.0356.623.5888.286.8782l-4.086 3.5c-.143.122-.205.3134-.161.4957l1.248 5.2332c.103.4326-.367.7746-.747.5427l-4.591-2.8043c-.16-.0977-.361-.0977-.521 0l-4.592 2.8043c-.379.2319-.85-.1101-.747-.5427l1.248-5.2332c.044-.1823-.018-.3737-.161-.4957l-4.086-3.5c-.337-.2894-.158-.8426.286-.8782l5.363-.4299c.186-.015.349-.1333.421-.3064z" fill="#fdb022"/><path d="m153.538 16.6097c.171-.4106.753-.4106.924 0l2.066 4.9675c.072.1731.235.2914.421.3064l5.363.4299c.444.0356.623.5888.286.8782l-4.086 3.5c-.143.122-.205.3134-.161.4957l1.248 5.2332c.103.4326-.368.7746-.747.5427l-4.591-2.8043c-.16-.0977-.362-.0977-.522 0l-4.591 2.8043c-.379.2319-.85-.1101-.747-.5427l1.248-5.2332c.044-.1823-.018-.3737-.161-.4957l-4.086-3.5c-.337-.2894-.158-.8426.286-.8782l5.363-.4299c.186-.015.349-.1333.421-.3064z" fill="#fdb022"/><g fill="#475467"><path clip-rule="evenodd" d="m47.8632 109.9c-17.225-2.385-29.765-15.9364-35.486-34.4596-2.3503-7.6664-2.69048-16.1691-1.871-25.059 1.5153-15.8749 8.7981-29.6589 19.4207-39.7104.0464-.0465.0619-.062.0773-.0155.031.0465.1237.0929.1701.1239.0619.031.0773 0 .0309.0774-11.272 10.3303-18.5084 26.7627-19.297 43.3655-1.22148 23.7116 10.2825 44.7129 27.523 51.9457 2.8915 1.223 5.9221 2.153 9.0764 2.633.2165.279.3402.666.3556 1.099z" fill-rule="evenodd"/><path clip-rule="evenodd" d="m4.92432 70.2985c1.40708 1.6727 3.64912 3.3143 6.06128 2.6793.1237.1859.7576 1.1152.8504 1.2546.1082.1703.3092.3407.4639.2013.0927-.062.17-.2014.0773-.4182-.3557-.4336-.6958-.8828-1.0979-1.3474-.7112-3.7635-1.7472-6.2725-3.91193-8.8125-2.5049-2.9117-5.07165-4.2126-6.664267-4.7547-.231935-.0619-.448407-.1239-.6803423-.2013-.1546237 1.4558.5102563 3.5776 1.0359793 4.7856 1.02051 2.4781 2.1338 4.6464 3.86558 6.6133z" fill-rule="evenodd"/><path clip-rule="evenodd" d="m25.6439 17.2842c-.201.0775-1.3762.3872-1.5153.1549-.0464-.0619.0154-.2943.1237-.3097.4329-.0465.9122-.0775 1.3297-.1704.7577-2.3851 2.8605-3.4228 4.7933-3.8255 2.3194-.4646 4.8707.2478 7.6075.635.1392.031.2938.0465.4175.0465-.0464.0929-.1082.1549-.1701.2478-1.1442 1.5642-2.9378 3.0046-4.6851 3.717-1.1751.4956-2.5822.7744-3.9583.728-1.4535-.062-2.675-.3872-3.9429-1.2236z" fill-rule="evenodd"/><path clip-rule="evenodd" d="m30.1743 10.7639c.0928.031.0928 0 .2629-.0929.3247-.3098.603-.4956.9277-.78987 1.8555.01549 3.6182-.54207 5.2881-1.65718.7422-.49561 1.4844-1.09963 2.1029-1.82755 1.4844-1.59523 2.675-3.93386 3.2162-6.071158.0309-.123901.0464-.201341.0618-.325242-.1391.0619506-.2628.123903-.402.185854-2.9997 1.208036-5.9066 1.765596-8.3187 4.104226-1.639 1.56426-2.4895 3.45375-2.1493 5.28129-.3711.29427-.7576.57303-1.1133.91373-.1546.1394.031.2788.1237.2788z" fill-rule="evenodd"/><path clip-rule="evenodd" d="m19.2579 27.2738c-.201.1084-1.3297.6969-1.4998.4956-.0773-.0775-.0464-.3253.0618-.3717.4175-.1549.9123-.2633 1.3298-.4492.1546-1.6881 1.0978-3.2679 2.9687-4.352 2.8606-1.5178 6.1077-1.27 9.1692-1.5333.1546-.0155.2938-.0155.433-.031-.0464.093-.0928.1704-.1237.2633-1.0206 1.7656-2.675 3.6706-4.3604 4.7547-1.1288.7589-2.5204 1.332-3.912 1.6108-1.4689.2942-2.7214.1239-4.0666-.3872z" fill-rule="evenodd"/><path clip-rule="evenodd" d="m4.27491 53.324c.92774 2.0908 2.59767 4.383 5.04072 4.5379.07731.2168.52572 1.2235.58757 1.3784.04638.2168.201.4491.402.3562.0928-.031.1856-.1549.1701-.3717-.2319-.5575-.52572-.9912-.80404-1.5642.21647-3.841 0-6.6443-1.46892-9.8037-1.66993-3.6396-3.95836-5.7305-5.36543-6.7527-.17009-.1548-.3711-.2787-.57211-.4026-.32471 1.4868-.21647 3.7944-.01546 5.1264.35563 2.6948.92774 5.0645 2.02557 7.496z" fill-rule="evenodd"/><path clip-rule="evenodd" d="m7.01174 37.8983c.40202 2.2302 1.40707 4.4759 3.63366 5.4517.0309.2323.2783 1.3164.3092 1.4868 0 .2323.0773.4956.2938.4646.0619-.0155.2165-.0774.232-.3098-.0928-.5885-.2629-1.2544-.3711-1.8894.7422-2.7104 1.1442-5.1884 1.0205-7.8368-.201-3.7325-1.5926-6.9694-3.7883-9.5714-.17009-.1858-.29379-.3872-.44841-.5575-.61849 1.2854-1.02051 3.4847-1.12875 4.8011-.23194 2.6639-.21647 5.3433.2474 7.9607z" fill-rule="evenodd"/><path clip-rule="evenodd" d="m12.6246 23.82c-.0619 2.2922.4948 4.8631 2.4121 6.35-.0155.2323-.0619 1.3474-.0619 1.5023-.0309.2168-.0154.4801.2011.5265.0773 0 .2164-.0154.2628-.2323.0464-.573.0619-1.4558.0928-2.0908 1.639-2.7878 2.5204-5.8234 2.5513-9.2926.0618-4.0113-.9278-6.5668-1.7163-8.1775-.1083-.2168-.2165-.4336-.3248-.6505-.8658 1.0532-1.6853 3.0666-2.0564 4.3056-.7422 2.509-1.2834 5.1264-1.3607 7.7593z" fill-rule="evenodd"/><path clip-rule="evenodd" d="m21.1289 10.9653c-.4948 2.1527-.3557 5.3122 1.2524 6.6132-.0618.2788-.201 1.239-.2165 1.4558-.0618.2323-.1082.4492.0773.5421.0774.031.1392.031.232-.1704.1082-.604.1391-1.0996.2319-1.7191 2.2884-2.447 3.5873-4.8631 4.314-8.16199.7267-3.45375.6185-6.19506.3093-8.13102-.031-.23232-.0928-.464629-.1547-.712432-2.0101 1.610712-3.4326 3.732522-4.6387 6.148602-.6494 1.31645-1.1596 2.66388-1.407 4.13524z" fill-rule="evenodd"/><path clip-rule="evenodd" d="m14.1244 40.4538c-.1855.1703-1.206 1.1461-1.4534 1.0222-.0619-.062-.1083-.3872 0-.4492.3865-.3097.8813-.5421 1.2679-.8363-.1237-1.8585.2938-3.748 1.9791-5.5136 2.5977-2.5245 6.0458-3.3763 9.1847-4.6773.1391-.062.2783-.1394.4484-.2013-.0309.1084-.0464.2323-.0928.3407-.6185 2.1683-1.8555 4.6927-3.3553 6.3964-.9741 1.1461-2.2884 2.2457-3.6646 2.9736-1.438.7744-2.7987 1.0222-4.314.9448z" fill-rule="evenodd"/><path clip-rule="evenodd" d="m11.9597 55.5852c-.1392.2478-.9587 1.5797-1.2215 1.5178-.1083 0-.2165-.3252-.1392-.4491.3402-.4492.7731-.8054 1.0669-1.27-.5257-1.7037-.2783-4.1662.9896-6.5203 2.0101-3.4383 4.9479-5.111 7.793-7.5115.1237-.124.2474-.2324.3866-.3718.0154.1085.0309.2324.0154.3718-.0618 2.3541-.6803 5.3122-1.7781 7.5424-.7113 1.5023-1.7627 3.0046-2.9688 4.2591-1.2525 1.2545-2.5822 1.9825-4.1439 2.4316z" fill-rule="evenodd"/><path clip-rule="evenodd" d="m13.3822 70.4224c-.1082.2943-.6649 1.874-.9432 1.9359-.0928-.0155-.2783-.2478-.201-.4181.2319-.5266.4948-1.1306.7113-1.6727-.9587-.9138-1.2834-3.4537-.5103-6.1176 1.2834-3.9029 4.1439-6.8301 6.4478-10.067.1083-.1549.2165-.3097.3247-.4646.031.1084.0464.2323.0773.3562.4021 2.2767.3711 5.2968-.2474 7.7593-.4174 1.6417-1.1442 3.4538-2.0874 5.0025-.9741 1.6417-2.1338 2.7723-3.5718 3.6861z" fill-rule="evenodd"/><path clip-rule="evenodd" d="m9.93412 87.7841c1.74728 1.146 4.87068 2.0133 7.01988.604.1701.1239 1.0669.6659 1.1752.7589.1546.1548.3711.2633.5102.0464.0773-.0929.1237-.2478-.0309-.4181-.4484-.3098-.9432-.5111-1.4225-.8209-1.639-3.4073-3.4018-5.7149-6.1077-7.4186-3.09243-1.9824-5.67465-2.0134-7.32912-2.0134-.23193 0-.46387.0155-.6958.0155.40202 3.3608 4.56139 7.8058 6.88074 9.2462z" fill-rule="evenodd"/><path clip-rule="evenodd" d="m18.5157 85.1512c-.0154.2168-.1237 1.177-.2783 1.7655-.0464.1704-.0618.4182-.2938.3253-.0928-.0155-.1855-.2168-.1855-.3098.1082-.573.201-1.2235.2474-1.7965-1.0669-.6815-1.9019-2.9117-2.072-5.653.1856-4.1352 2.041-7.8833 3.5254-11.7861.0464-.1704.1083-.3563.1701-.5421.0619.0929.0928.1858.1546.2788.9896 2.0443 1.7473 4.9096 1.8091 7.496.0619 1.6882-.1855 3.6551-.6803 5.4826-.5257 1.874-1.2989 3.3454-2.3967 4.7393z" fill-rule="evenodd"/><path clip-rule="evenodd" d="m19.3971 101.924c2.0101.403 4.7315.31 6.4323-1.858.433.062 1.1288.17 1.5772.201.1237.016.2164-.077.2628-.232.031-.1086 0-.248-.201-.3564-.5102-.1084-1.0205-.1084-1.5617-.2014-2.2575-2.6484-4.3913-4.1352-7.4683-4.6927-3.5563-.6505-6.5715.2633-8.1796.9292-.2164.0775-.44838.1704-.64939.2788.57209 1.2855 2.24199 2.6019 3.29349 3.2369 2.0101 1.3316 4.0666 2.2926 6.4942 2.6946z" fill-rule="evenodd"/><path clip-rule="evenodd" d="m26.5871 96.3332c.0309.2324.0618 1.1616.0618 1.7811-.0154.1704.0309.4027-.201.4182-.1082 0-.2319-.1394-.2319-.2478-.0464-.5731-.0155-1.1926-.1083-1.7811-1.1906-.3717-2.7677-2.1838-3.4945-4.6773-.8349-3.9958.0774-8.1155.5103-12.3436.0309-.1859.0155-.3717.0309-.5731.0773.0775.1701.1549.2474.2323 1.4535 1.5953 2.9069 4.0578 3.6027 6.4739.4794 1.5797.7268 3.5312.7268 5.4052-.0309 1.9669-.433 3.6241-1.1442 5.3122z" fill-rule="evenodd"/><path clip-rule="evenodd" d="m37.8437 104.464c.1082.171.2473.945.402 1.534.0464.139.1391.356-.0773.433-.1083.047-.2474-.046-.2784-.139-.201-.496-.201-1.022-.4484-1.518-1.1596.279-3.1698-1.193-4.484-3.113-1.8246-3.3144-2.0256-7.2018-2.7369-11.1511-.0154-.1859-.0773-.3562-.1082-.5421.0928.0155.1855.0775.2783.1084 1.7472.8828 3.7419 2.4471 5.0253 4.3675.8813 1.2391 1.7008 2.9582 2.1647 4.6773.4793 1.812.4948 3.531.2629 5.343z" fill-rule="evenodd"/><path clip-rule="evenodd" d="m31.5195 111.836c2.0565-.278 4.7161-1.223 5.8912-3.856.4175-.124 1.1442-.201 1.5772-.325.1237-.016.1855-.155.201-.326 0-.092-.0619-.232-.2784-.263-.5102.078-1.0205.233-1.5926.294-2.9842-1.765-5.3963-2.57-8.5352-2.121-3.6027.511-6.2313 2.323-7.6384 3.484-.201.171-.402.326-.5876.496.8659 1.069 2.8142 1.781 3.9739 2.091 2.2729.635 4.4995.883 6.9889.526z" fill-rule="evenodd"/><path clip-rule="evenodd" d="m164.137 109.9c17.225-2.385 29.765-15.9364 35.486-34.4596 2.35-7.6664 2.69-16.1691 1.871-25.059-1.516-15.8749-8.798-29.6589-19.421-39.7104-.046-.0465-.062-.062-.077-.0155-.031.0465-.124.0929-.17.1239-.062.031-.078 0-.031.0774 11.272 10.3303 18.508 26.7627 19.297 43.3655 1.221 23.7116-10.283 44.7129-27.523 51.9457-2.892 1.223-5.922 2.153-9.077 2.633-.216.279-.34.666-.355 1.099z" fill-rule="evenodd"/><path clip-rule="evenodd" d="m207.076 70.2985c-1.407 1.6727-3.649 3.3143-6.062 2.6793-.123.1859-.757 1.1152-.85 1.2546-.108.1703-.309.3407-.464.2013-.093-.062-.17-.2014-.077-.4182.355-.4336.696-.8828 1.098-1.3474.711-3.7635 1.747-6.2725 3.912-8.8125 2.505-2.9117 5.071-4.2126 6.664-4.7547.232-.0619.448-.1239.68-.2013.155 1.4558-.51 3.5776-1.036 4.7856-1.02 2.4781-2.134 4.6464-3.865 6.6133z" fill-rule="evenodd"/><path clip-rule="evenodd" d="m186.356 17.2842c.201.0775 1.376.3872 1.515.1549.047-.0619-.015-.2943-.123-.3097-.433-.0465-.913-.0775-1.33-.1704-.758-2.3851-2.861-3.4228-4.793-3.8255-2.32-.4646-4.871.2478-7.608.635-.139.031-.294.0465-.417.0465.046.0929.108.1549.17.2478 1.144 1.5642 2.938 3.0046 4.685 3.717 1.175.4956 2.582.7744 3.958.728 1.454-.062 2.675-.3872 3.943-1.2236z" fill-rule="evenodd"/><path clip-rule="evenodd" d="m181.826 10.7639c-.093.031-.093 0-.263-.0929-.325-.3098-.603-.4956-.928-.78987-1.855.01549-3.618-.54207-5.288-1.65718-.742-.49561-1.484-1.09963-2.103-1.82755-1.484-1.59523-2.675-3.93386-3.216-6.071158-.031-.123901-.046-.201341-.062-.325242.139.0619506.263.123903.402.185854 3 1.208036 5.907 1.765596 8.319 4.104226 1.639 1.56426 2.489 3.45375 2.149 5.28129.371.29427.758.57303 1.113.91373.155.1394-.031.2788-.123.2788z" fill-rule="evenodd"/><path clip-rule="evenodd" d="m192.742 27.2738c.201.1084 1.33.6969 1.5.4956.077-.0775.046-.3253-.062-.3717-.417-.1549-.912-.2633-1.33-.4492-.154-1.6881-1.098-3.2679-2.968-4.352-2.861-1.5178-6.108-1.27-9.17-1.5333-.154-.0155-.293-.0155-.433-.031.047.093.093.1704.124.2633 1.021 1.7656 2.675 3.6706 4.361 4.7547 1.128.7589 2.52 1.332 3.911 1.6108 1.469.2942 2.722.1239 4.067-.3872z" fill-rule="evenodd"/><path clip-rule="evenodd" d="m207.725 53.324c-.928 2.0908-2.598 4.383-5.041 4.5379-.077.2168-.525 1.2235-.587 1.3784-.047.2168-.201.4491-.402.3562-.093-.031-.186-.1549-.17-.3717.232-.5575.525-.9912.804-1.5642-.217-3.841 0-6.6443 1.469-9.8037 1.67-3.6396 3.958-5.7305 5.365-6.7527.17-.1548.371-.2787.572-.4026.325 1.4868.217 3.7944.016 5.1264-.356 2.6948-.928 5.0645-2.026 7.496z" fill-rule="evenodd"/><path clip-rule="evenodd" d="m204.988 37.8983c-.402 2.2302-1.407 4.4759-3.633 5.4517-.031.2323-.279 1.3164-.31 1.4868 0 .2323-.077.4956-.293.4646-.062-.0155-.217-.0774-.232-.3098.092-.5885.263-1.2544.371-1.8894-.742-2.7104-1.144-5.1884-1.021-7.8368.201-3.7325 1.593-6.9694 3.789-9.5714.17-.1858.293-.3872.448-.5575.618 1.2854 1.02 3.4847 1.129 4.8011.232 2.6639.216 5.3433-.248 7.9607z" fill-rule="evenodd"/><path clip-rule="evenodd" d="m199.375 23.82c.062 2.2922-.494 4.8631-2.412 6.35.016.2323.062 1.3474.062 1.5023.031.2168.016.4801-.201.5265-.077 0-.216-.0154-.263-.2323-.046-.573-.062-1.4558-.092-2.0908-1.64-2.7878-2.521-5.8234-2.552-9.2926-.062-4.0113.928-6.5668 1.717-8.1775.108-.2168.216-.4336.324-.6505.866 1.0532 1.686 3.0666 2.057 4.3056.742 2.509 1.283 5.1264 1.36 7.7593z" fill-rule="evenodd"/><path clip-rule="evenodd" d="m190.871 10.9653c.495 2.1527.356 5.3122-1.252 6.6132.062.2788.201 1.239.216 1.4558.062.2323.108.4492-.077.5421-.077.031-.139.031-.232-.1704-.108-.604-.139-1.0996-.232-1.7191-2.288-2.447-3.587-4.8631-4.314-8.16199-.727-3.45375-.619-6.19506-.309-8.13102.031-.23232.093-.464629.154-.712432 2.01 1.610712 3.433 3.732522 4.639 6.148602.649 1.31645 1.16 2.66388 1.407 4.13524z" fill-rule="evenodd"/><path clip-rule="evenodd" d="m197.876 40.4538c.185.1703 1.206 1.1461 1.453 1.0222.062-.062.108-.3872 0-.4492-.387-.3097-.881-.5421-1.268-.8363.124-1.8585-.294-3.748-1.979-5.5136-2.598-2.5245-6.046-3.3763-9.185-4.6773-.139-.062-.278-.1394-.448-.2013.031.1084.046.2323.093.3407.618 2.1683 1.855 4.6927 3.355 6.3964.974 1.1461 2.288 2.2457 3.665 2.9736 1.438.7744 2.798 1.0222 4.314.9448z" fill-rule="evenodd"/><path clip-rule="evenodd" d="m200.04 55.5852c.139.2478.959 1.5797 1.222 1.5178.108 0 .216-.3252.139-.4491-.34-.4492-.773-.8054-1.067-1.27.526-1.7037.278-4.1662-.989-6.5203-2.011-3.4383-4.948-5.111-7.794-7.5115-.123-.124-.247-.2324-.386-.3718-.016.1085-.031.2324-.016.3718.062 2.3541.681 5.3122 1.779 7.5424.711 1.5023 1.762 3.0046 2.968 4.2591 1.253 1.2545 2.583 1.9825 4.144 2.4316z" fill-rule="evenodd"/><path clip-rule="evenodd" d="m198.618 70.4224c.108.2943.665 1.874.943 1.9359.093-.0155.278-.2478.201-.4181-.232-.5266-.495-1.1306-.711-1.6727.958-.9138 1.283-3.4537.51-6.1176-1.283-3.9029-4.144-6.8301-6.448-10.067-.108-.1549-.216-.3097-.325-.4646-.03.1084-.046.2323-.077.3562-.402 2.2767-.371 5.2968.248 7.7593.417 1.6417 1.144 3.4538 2.087 5.0025.974 1.6417 2.134 2.7723 3.572 3.6861z" fill-rule="evenodd"/><path clip-rule="evenodd" d="m202.066 87.7841c-1.747 1.146-4.871 2.0133-7.02.604-.17.1239-1.067.6659-1.175.7589-.155.1548-.371.2633-.51.0464-.078-.0929-.124-.2478.031-.4181.448-.3098.943-.5111 1.422-.8209 1.639-3.4073 3.402-5.7149 6.108-7.4186 3.092-1.9824 5.674-2.0134 7.329-2.0134.232 0 .464.0155.696.0155-.402 3.3608-4.562 7.8058-6.881 9.2462z" fill-rule="evenodd"/><path clip-rule="evenodd" d="m193.484 85.1512c.016.2168.124 1.177.279 1.7655.046.1704.061.4182.293.3253.093-.0155.186-.2168.186-.3098-.108-.573-.201-1.2235-.247-1.7965 1.066-.6815 1.901-2.9117 2.071-5.653-.185-4.1352-2.041-7.8833-3.525-11.7861-.046-.1704-.108-.3563-.17-.5421-.062.0929-.093.1858-.155.2788-.989 2.0443-1.747 4.9096-1.809 7.496-.062 1.6882.186 3.6551.681 5.4826.525 1.874 1.298 3.3454 2.396 4.7393z" fill-rule="evenodd"/><path clip-rule="evenodd" d="m192.603 101.924c-2.01.403-4.732.31-6.432-1.858-.433.062-1.129.17-1.578.201-.123.016-.216-.077-.262-.232-.031-.1086 0-.248.201-.3564.51-.1084 1.02-.1084 1.561-.2014 2.258-2.6484 4.392-4.1352 7.469-4.6927 3.556-.6505 6.571.2633 8.179.9292.217.0775.449.1704.65.2788-.573 1.2855-2.242 2.6019-3.294 3.2369-2.01 1.3316-4.066 2.2926-6.494 2.6946z" fill-rule="evenodd"/><path clip-rule="evenodd" d="m185.413 96.3332c-.031.2324-.062 1.1616-.062 1.7811.016.1704-.031.4027.201.4182.108 0 .232-.1394.232-.2478.046-.5731.015-1.1926.108-1.7811 1.191-.3717 2.768-2.1838 3.495-4.6773.835-3.9958-.078-8.1155-.511-12.3436-.03-.1859-.015-.3717-.03-.5731-.078.0775-.171.1549-.248.2323-1.453 1.5953-2.907 4.0578-3.603 6.4739-.479 1.5797-.726 3.5312-.726 5.4052.031 1.9669.433 3.6241 1.144 5.3122z" fill-rule="evenodd"/><path clip-rule="evenodd" d="m174.156 104.464c-.108.171-.247.945-.402 1.534-.046.139-.139.356.078.433.108.047.247-.046.278-.139.201-.496.201-1.022.448-1.518 1.16.279 3.17-1.193 4.484-3.113 1.825-3.3144 2.026-7.2018 2.737-11.1511.016-.1859.078-.3562.109-.5421-.093.0155-.186.0775-.279.1084-1.747.8828-3.742 2.4471-5.025 4.3675-.881 1.2391-1.701 2.9582-2.165 4.6773-.479 1.812-.495 3.531-.263 5.343z" fill-rule="evenodd"/><path clip-rule="evenodd" d="m180.48 111.836c-2.056-.278-4.716-1.223-5.891-3.856-.417-.124-1.144-.201-1.577-.325-.124-.016-.185-.155-.201-.326 0-.092.062-.232.278-.263.511.078 1.021.233 1.593.294 2.984-1.765 5.396-2.57 8.535-2.121 3.603.511 6.232 2.323 7.639 3.484.201.171.402.326.587.496-.866 1.069-2.814 1.781-3.974 2.091-2.273.635-4.499.883-6.989.526z" fill-rule="evenodd"/><path d="m117.001 45.0186c-2.414 0-4.774 2.1864-5.046 5.3456v-5.0852h-3.467v15.3333h3.51v-7.4219c0-2.0791 1.473-5.0118 5.003-5.0118z"/><path d="m153.818 58.1575v-10.5051h2.033c2.712 0 4.914 1.6943 4.914 5.1678s-2.202 5.3373-4.914 5.3373zm-3.474 2.4569h5.931c3.643 0 8.133-2.3722 8.133-7.7942 0-5.3373-4.49-7.54-8.133-7.54h-5.931z"/><path d="m137.054 52.9899c0-2.7957 1.44-5.0831 3.812-5.0831 2.287 0 3.558 2.2874 3.558 5.0831 0 2.7958-1.271 5.0832-3.558 5.0832-2.372 0-3.812-2.2874-3.812-5.0832zm-3.558.1695c0 4.5748 2.372 7.7941 6.099 7.7941 2.712 0 4.321-1.7791 5.168-4.6595v4.3207h3.473v-15.3342h-3.473v4.0665c-.762-2.711-2.372-4.3206-4.914-4.3206-3.812 0-6.353 3.4734-6.353 8.133z"/><path d="m54.3981 60.9535c-4.3206 0-6.8622-3.4734-6.8622-7.7941 0-4.4901 2.7957-8.133 8.133-8.133 5.5067 0 7.3706 3.7276 7.4553 5.8456h-3.9818c-.0847-1.1861-1.1014-2.9652-3.5582-2.9652-2.6263 0-4.3207 2.2874-4.3207 5.0831 0 2.7958 1.6944 5.0832 4.3207 5.0832 2.3721 0 3.3887-1.8638 3.8123-3.7276h-3.8123v-1.525h7.9996v7.7942h-3.5095v-4.9137c-.2542 1.7791-1.3555 5.2525-5.6762 5.2525z"/><path d="m70.6991 60.9533c-3.304 0-5.3373-2.2027-5.3373-6.6081v-9.0649h3.5583v9.0649c0 2.2874 1.1013 3.3888 2.9651 3.3888 3.6429 0 4.9984-4.4901 4.9984-7.6247v-4.829h3.5582v15.3341h-3.4735v-5.6761c-.6777 3.1346-2.5415 6.015-6.2692 6.015z"/><path d="m101.705 45.0186c-3.0358 0-4.9508 2.9325-5.5759 5.644-.1069-3.6337-1.8939-5.644-4.753-5.644-2.4702 0-4.762 2.2029-5.3572 5.6878v-5.427h-3.4686v15.3345h3.5131v-5.4974c0-1.3628.5682-6.9557 4.1047-6.9557 2.2909 0 2.5298 2.0665 2.5298 4.8912v7.5619h3.5114v-5.4974c0-1.3628.5918-6.9557 4.1287-6.9557 2.289 0 2.525 2.0665 2.525 4.8912v7.5619h3.516v-9.0703c.017-4.3514-1.52-6.525-4.674-6.525z"/><path d="m124.539 45.0186c-4.549 0-7.63 3.566-7.63 7.9676 0 4.8498 2.931 7.9675 7.63 7.9675 4.547 0 7.684-3.566 7.684-7.9675 0-4.8499-2.988-7.9676-7.684-7.9676zm0 13.2208c-2.648 0-4.364-2.2415-4.364-5.2532 0-3.0118 1.722-5.2534 4.364-5.2534 2.641 0 4.293 2.2416 4.293 5.2534 0 3.0117-1.654 5.2532-4.293 5.2532z"/><path d="m52.9551 85 1.7182-10.4727h1.2273l-1.7182 10.4727zm-4.7403-2.8023.1994-1.2272h7.9364l-.1995 1.2272zm1.0585 2.8023 1.7182-10.4727h1.2273l-1.7182 10.4727zm-.45-6.4432.1994-1.2273h7.9364l-.1994 1.2273z"/><path d="m62.0918 74.5273v10.4727h-1.5852v-8.8875h-.0614l-2.5056 1.6364v-1.5137l2.613-1.7079z"/><path d="m72.154 85h-3.3903v-10.4727h3.4977c1.0262 0 1.9074.2096 2.6438.6289.7363.416 1.3005 1.0143 1.6926 1.7949.3954.7773.5932 1.7097.5932 2.7972 0 1.0909-.1995 2.0284-.5983 2.8125-.3955.7841-.9682 1.3875-1.7182 1.8102-.75.4193-1.6568.629-2.7205.629zm-1.8102-1.3807h1.7233c.7977 0 1.4608-.15 1.9892-.45.5284-.3034.9239-.7415 1.1864-1.3142.2625-.5761.3937-1.2784.3937-2.1068 0-.8216-.1312-1.5188-.3937-2.0915-.2591-.5727-.646-1.0074-1.1608-1.304-.5148-.2965-1.154-.4448-1.9176-.4448h-1.8205z"/><path d="m82.3608 85.1585c-.7739 0-1.4404-.1653-1.9994-.496-.5557-.3341-.9853-.8028-1.2887-1.4063-.3-.6068-.45-1.3176-.45-2.1323 0-.8046.15-1.5137.45-2.1273.3034-.6136.7262-1.0926 1.2682-1.4369.5455-.3444 1.183-.5165 1.9125-.5165.4432 0 .8727.0733 1.2886.2199s.7892.3767 1.1199.6903.5915.721.7824 1.2222c.1909.4977.2864 1.1028.2864 1.8153v.5421h-6.2438v-1.1455h4.7455c0-.4023-.0818-.7585-.2455-1.0688-.1636-.3136-.3937-.5607-.6903-.7414-.2932-.1807-.6375-.271-1.033-.271-.4295 0-.8045.1056-1.125.317-.317.208-.5625.4807-.7363.8182-.1705.3341-.2557.6971-.2557 1.0892v.8949c0 .525.092.9716.2761 1.3397.1875.3682.4483.6495.7824.8438.3341.1909.7244.2864 1.171.2864.2898 0 .554-.041.7926-.1228.2387-.0852.4449-.2113.6188-.3784.1739-.167.3068-.3733.3989-.6187l1.4471.2608c-.1159.4261-.3238.7994-.6238 1.1198-.2966.3171-.6699.5643-1.1199.7415-.4466.1739-.9563.2608-1.529.2608z"/><path d="m93.2553 79.0631-1.3858.2454c-.0579-.1772-.15-.346-.2761-.5062-.1227-.1603-.2898-.2915-.5011-.3938-.2114-.1022-.4756-.1534-.7927-.1534-.4329 0-.7943.0972-1.084.2915-.2898.1909-.4347.4381-.4347.7415 0 .2625.0971.4738.2915.6341.1943.1602.5079.2914.9409.3937l1.2477.2864c.7227.167 1.2614.4244 1.6159.7721.3546.3478.5318.7995.5318 1.3551 0 .4705-.1363.8898-.4091 1.258-.2693.3648-.646.6511-1.1301.8591-.4807.2079-1.038.3119-1.6721.3119-.8796 0-1.5972-.1875-2.1529-.5625-.5557-.3784-.8966-.9153-1.0227-1.6108l1.4778-.225c.0921.3853.2813.6767.5677.8745.2863.1943.6596.2914 1.1198.2914.5012 0 .9017-.1039 1.2017-.3119.3-.2114.45-.4687.45-.7722 0-.2454-.092-.4517-.2761-.6187-.1807-.167-.4585-.2932-.8335-.3784l-1.3296-.2915c-.7329-.167-1.275-.4329-1.6261-.7977-.3477-.3648-.5216-.8267-.5216-1.3858 0-.4636.1296-.8693.3886-1.2171.2591-.3477.6171-.6187 1.0739-.813.4568-.1978.9801-.2966 1.5699-.2966.8489 0 1.517.1841 2.0045.5523.4875.3647.8097.8539.9665 1.4676z"/><path d="m95.0322 85v-7.8545h1.529v7.8545zm.7722-9.0665c-.2659 0-.4943-.0886-.6852-.2659-.1875-.1807-.2813-.3954-.2813-.6443 0-.2523.0938-.4671.2813-.6443.1909-.1807.4193-.271.6852-.271s.4926.0903.6801.271c.1909.1772.2864.392.2864.6443 0 .2489-.0955.4636-.2864.6443-.1875.1773-.4142.2659-.6801.2659z"/><path d="m101.854 88.1091c-.624 0-1.161-.0818-1.611-.2455-.4466-.1636-.8114-.3801-1.0944-.6494-.2829-.2693-.4943-.5642-.6341-.8847l1.3143-.542c.092.15.2152.3085.3682.4756.157.1704.368.3153.634.4346.269.1193.615.179 1.038.179.58 0 1.059-.1415 1.437-.4244.378-.2796.568-.7262.568-1.3398v-1.5443h-.098c-.092.167-.225.3528-.398.5574-.171.2045-.406.3818-.706.5318s-.69.225-1.171.225c-.621 0-1.18-.1449-1.6774-.4347-.4943-.2932-.8863-.7244-1.1761-1.2937-.2864-.5728-.4295-1.2767-.4295-2.112 0-.8352.1414-1.5511.4244-2.1477.2864-.5966.6784-1.0534 1.1761-1.3704.4975-.3205 1.0615-.4807 1.6925-.4807.488 0 .881.0818 1.181.2454.3.1603.534.3478.701.5625.17.2148.302.404.394.5676h.112v-1.2732h1.499v8.0284c0 .675-.157 1.2289-.471 1.6619-.314.4329-.738.7534-1.273.9614-.532.2079-1.132.3119-1.8.3119zm-.016-4.4949c.44 0 .812-.1023 1.115-.3068.307-.208.539-.5046.696-.8898.16-.3886.24-.854.24-1.396 0-.5284-.078-.9938-.235-1.396-.157-.4023-.387-.7159-.691-.9409-.303-.2284-.678-.3427-1.125-.3427-.46 0-.843.1194-1.15.358-.307.2352-.539.5557-.6956.9614-.1534.4056-.2301.8591-.2301 1.3602 0 .5148.0784.9665.2352 1.3551.1565.3886.3885.6921.6955.9102.31.2182.692.3273 1.145.3273z"/><path d="m108.919 80.3364v4.6636h-1.529v-7.8545h1.468v1.2784h.097c.181-.4159.464-.75.849-1.0023.389-.2523.878-.3784 1.468-.3784.535 0 1.004.1125 1.406.3375.402.2216.714.5523.936.992.221.4398.332.9835.332 1.6313v4.996h-1.529v-4.8119c0-.5694-.148-1.0142-.445-1.3347-.296-.3239-.704-.4858-1.222-.4858-.354 0-.67.0767-.946.2301-.273.1534-.489.3784-.649.675-.157.2932-.236.6478-.236 1.0637z"/><path d="m122.74 85.1483c-.702 0-1.307-.1278-1.815-.3835-.505-.2557-.893-.6034-1.166-1.0432-.273-.4432-.409-.9443-.409-1.5034 0-.4262.088-.8046.266-1.1352.177-.3341.424-.6427.741-.9256.317-.283.684-.5676 1.1-.854l1.687-1.1915c.287-.1875.51-.3852.67-.5931.16-.2114.24-.4722.24-.7824 0-.2455-.105-.4807-.317-.7057-.211-.225-.494-.3375-.849-.3375-.245 0-.461.0596-.649.179-.184.1193-.329.2727-.435.4602-.102.1841-.153.3784-.153.5829 0 .2387.065.479.194.7211.133.242.304.4926.512.7517.208.2557.426.5216.654.7977l4.863 5.8142h-1.728l-4.025-4.7301c-.337-.3989-.651-.7739-.94-1.125-.29-.3546-.525-.7125-.706-1.0739-.177-.3648-.266-.7585-.266-1.1812 0-.4807.109-.9068.327-1.2784.222-.375.53-.6682.926-.8796.395-.2113.859-.317 1.391-.317.538 0 1 .1057 1.385.317.389.208.687.4858.895.8335.212.3444.317.7211.317 1.1302 0 .4977-.124.9375-.373 1.3193-.245.3784-.585.7261-1.017 1.0432l-2.102 1.5494c-.409.3-.694.5966-.854.8898-.157.2897-.235.5164-.235.6801 0 .3.076.5778.23.8335.157.2557.375.4602.654.6136.283.1534.614.2301.992.2301.389 0 .767-.0835 1.136-.2505.371-.1705.707-.4142 1.007-.7313.303-.317.544-.6971.721-1.1403s.266-.9392.266-1.4881h1.381c0 .675-.077 1.246-.231 1.7131-.153.4636-.339.842-.557 1.1352-.215.2898-.418.5165-.608.6801-.062.0546-.12.1091-.174.1637-.055.0545-.113.1091-.174.1636-.355.358-.784.6222-1.289.7926-.501.1705-.995.2557-1.483.2557z"/><path d="m132.374 75.8875v-1.3602h8.105v1.3602h-3.267v9.1125h-1.575v-9.1125z"/><path d="m144.336 85.1585c-.774 0-1.44-.1653-1.999-.496-.556-.3341-.986-.8028-1.289-1.4063-.3-.6068-.45-1.3176-.45-2.1323 0-.8046.15-1.5137.45-2.1273.303-.6136.726-1.0926 1.268-1.4369.546-.3444 1.183-.5165 1.913-.5165.443 0 .872.0733 1.288.2199s.79.3767 1.12.6903c.331.3136.592.721.783 1.2222.191.4977.286 1.1028.286 1.8153v.5421h-6.244v-1.1455h4.746c0-.4023-.082-.7585-.246-1.0688-.163-.3136-.393-.5607-.69-.7414-.293-.1807-.638-.271-1.033-.271-.43 0-.805.1056-1.125.317-.317.208-.563.4807-.736.8182-.171.3341-.256.6971-.256 1.0892v.8949c0 .525.092.9716.276 1.3397.188.3682.448.6495.782.8438.335.1909.725.2864 1.171.2864.29 0 .554-.041.793-.1228.239-.0852.445-.2113.619-.3784.174-.167.307-.3733.399-.6187l1.447.2608c-.116.4261-.324.7994-.624 1.1198-.297.3171-.67.5643-1.12.7415-.446.1739-.956.2608-1.529.2608z"/><path d="m152.653 85.1585c-.76 0-1.414-.1721-1.963-.5165-.546-.3477-.965-.8267-1.258-1.4369s-.44-1.3091-.44-2.0966c0-.7977.15-1.5017.45-2.1119.3-.6136.723-1.0926 1.268-1.4369.546-.3444 1.188-.5165 1.928-.5165.597 0 1.128.1108 1.596.3324.467.2181.843.525 1.13.9204.289.3955.462.8574.516 1.3858h-1.488c-.082-.3682-.269-.6852-.562-.9511-.29-.2659-.679-.3989-1.166-.3989-.427 0-.8.1125-1.12.3375-.317.2216-.564.5387-.742.9512-.177.409-.266.8931-.266 1.4522 0 .5728.087 1.0671.261 1.483s.419.738.737.9665c.32.2284.697.3426 1.13.3426.289 0 .552-.0529.787-.1585.239-.1091.438-.2643.598-.4654.164-.2011.278-.4432.343-.7261h1.488c-.054.5079-.22.9613-.496 1.3602s-.646.7125-1.11.9409c-.46.2284-1 .3426-1.621.3426z"/><path d="m158.987 80.3364v4.6636h-1.529v-10.4727h1.508v3.8966h.097c.184-.4228.466-.7586.844-1.0074.378-.2489.873-.3733 1.483-.3733.539 0 1.009.1108 1.411.3324.406.2216.72.5522.941.992.225.4364.338.9818.338 1.6364v4.996h-1.529v-4.8119c0-.5762-.149-1.0228-.445-1.3398-.297-.3205-.709-.4807-1.238-.4807-.361 0-.685.0767-.971.2301-.283.1534-.506.3784-.67.675-.16.2932-.24.6478-.24 1.0637z"/></g></svg>