<svg width="124" height="64" viewBox="0 0 124 64" fill="none" xmlns="http://www.w3.org/2000/svg">
<path fill-rule="evenodd" clip-rule="evenodd" d="M10.0265 20.7342C10.0265 20.3523 10.3307 20.0427 10.7058 20.0427C10.7476 20.0427 11.3065 20.0428 12.2033 20.043L12.2244 20.043L12.2273 20.043C13.6045 20.0432 15.7642 20.0436 18.0697 20.0439C21.9002 20.0445 26.1335 20.0451 27.8507 20.0451C28.008 20.0451 28.1636 20.0502 28.3173 20.06C30.3909 20.1502 31.9168 21.0759 32.9245 22.3301C32.9561 22.3694 32.9871 22.409 33.0176 22.4489C33.933 23.5809 34.4658 25.03 34.4658 26.6121C34.4658 29.1921 33.0321 31.4298 30.8976 32.5047C33.002 33.5869 34.445 35.8079 34.445 38.3719C34.445 41.9797 31.5882 44.9082 28.0519 44.941C28.0323 44.9428 28.0124 44.9437 27.9923 44.9437L10.6964 44.9588C10.5156 44.959 10.3423 44.8858 10.2147 44.7555C10.0871 44.6253 10.0158 44.4486 10.0165 44.2646L10.0169 44.1452C10.0172 44.0669 10.0176 43.9513 10.0181 43.8025C10.019 43.5048 10.0203 43.0741 10.0216 42.5419C10.0241 41.4775 10.0267 40.0076 10.0267 38.3851C10.0267 36.7627 10.0241 35.2943 10.0214 34.2318C10.0201 33.7005 10.0188 33.2708 10.0178 32.9741C10.0173 32.8257 10.0169 32.7106 10.0166 32.6327C10.0165 32.5938 10.0163 32.5642 10.0163 32.5444L10.0161 32.518C10.016 32.5038 10.0163 32.4895 10.0171 32.4752C10.0202 32.4721 10.0234 32.4691 10.0265 32.4661C10.0265 32.4113 10.0264 32.2958 10.0262 32.1261C10.0258 31.8166 10.0253 31.3267 10.0248 30.6957C10.0239 29.6563 10.023 28.2355 10.023 26.6121C10.023 24.9887 10.0239 23.5687 10.0248 22.5296C10.0253 21.9013 10.0258 21.4128 10.0262 21.1028C10.0264 20.8998 10.0265 20.7733 10.0265 20.7342ZM22.8991 26.6491C22.8991 24.443 24.6099 21.4358 27.9824 21.4358C28.0714 21.4358 28.1591 21.4377 28.2454 21.4412C29.7968 21.5445 31.0968 22.2541 31.9611 23.3188C32.7294 24.3328 33.0846 25.5933 33.0846 26.6414C33.0846 28.8429 31.4115 31.7509 28.0881 31.7509C24.6124 31.7509 22.8991 28.8266 22.8991 26.6491ZM11.3844 21.4259C11.3841 21.7164 11.3837 22.0893 11.3834 22.5308C11.3825 23.5696 11.3816 24.9892 11.3816 26.6121C11.3816 28.235 11.3825 29.6554 11.3834 30.6945C11.3837 31.1356 11.3841 31.5083 11.3844 31.7986L12.1522 31.7987L12.3254 31.7987L12.4952 31.7987L12.565 31.7988L12.5732 31.7988L12.773 31.7988C14.1724 31.799 16.1379 31.7993 18.2116 31.7997C20.2008 31.8 22.2896 31.8003 24.074 31.8005C22.3774 30.4653 21.5405 28.3677 21.5405 26.6491C21.5405 24.9477 22.3584 22.8014 24.028 21.4278C22.2141 21.4276 20.0859 21.4273 18.0695 21.427C15.7618 21.4266 13.6003 21.4262 12.2234 21.426L11.3844 21.4259ZM11.3771 33.2024L27.9918 33.1856C30.8055 33.1856 33.0864 35.5076 33.0864 38.3719C33.0864 41.2363 30.8055 43.5583 27.9918 43.5583C27.9724 43.5583 27.9532 43.5591 27.9343 43.5607L11.3774 43.5752C11.3782 43.3007 11.3792 42.9527 11.3801 42.5453C11.3827 41.4801 11.3852 40.009 11.3852 38.3851C11.3852 36.7613 11.3826 35.2916 11.38 34.2283C11.379 33.8225 11.378 33.4759 11.3771 33.2024ZM38.1279 21.468H48.3087V43.5568C42.6273 43.2001 38.1279 38.3965 38.1279 32.523V21.468ZM49.6661 21.468V43.5568C55.3475 43.2001 59.8469 38.3965 59.8469 32.523V21.468H49.6661ZM36.7704 20.777C36.7704 20.3954 37.0743 20.0861 37.4491 20.0861H60.5257C60.9005 20.0861 61.2044 20.3954 61.2044 20.777V32.523C61.2044 39.3917 55.7347 44.9599 48.9874 44.9599C42.2402 44.9599 36.7704 39.3917 36.7704 32.523V20.777ZM75.4317 31.8435L64.5578 31.8435C64.9082 26.0599 69.6269 21.4794 75.3965 21.4794H86.2354C85.8885 27.2645 81.2138 31.8412 75.4362 31.8435L75.4317 31.8435ZM87.6135 20.7885C87.6135 26.2202 84.2223 30.8419 79.4562 32.5354C84.2161 34.2304 87.6135 38.8504 87.6135 44.2804C87.6135 44.662 87.3096 44.9714 86.9348 44.9714H75.3965C68.6493 44.9714 63.1795 39.4032 63.1795 32.5345C63.1795 25.6657 68.6493 20.0975 75.3965 20.0975H86.9348C87.3096 20.0975 87.6135 20.4069 87.6135 20.7885ZM75.4317 33.2254L75.4348 33.2254C81.2005 33.2271 85.8875 37.8045 86.2353 43.5895H75.3965C69.6269 43.5895 64.9082 39.0091 64.5578 33.2254L75.4317 33.2254ZM90.1547 20.0868C89.7799 20.0868 89.476 20.3962 89.476 20.7778V44.2697C89.476 44.6513 89.7799 44.9607 90.1547 44.9607H113.231C113.506 44.9607 113.753 44.7923 113.858 44.5341C113.963 44.276 113.905 43.9788 113.711 43.7812L102.653 32.5237L113.711 21.2663C113.905 21.0687 113.963 20.7715 113.858 20.5134C113.753 20.2552 113.506 20.0868 113.231 20.0868H90.1547ZM111.593 21.4687L101.693 31.5466L91.7933 21.4687H111.593ZM100.733 32.5237L90.8334 22.4458V42.6017L100.733 32.5237ZM101.693 33.5009L91.7933 43.5788H111.593L101.693 33.5009Z" fill="black"/>
</svg>
