<svg width="182" height="48" viewBox="0 0 182 48" fill="none" xmlns="http://www.w3.org/2000/svg">
<path d="M58.1488 32.7166C55.5215 32.7166 53.9813 30.6631 53.9813 28.3377C53.9813 25.65 55.7329 23.8682 58.1488 23.8682C59.4172 23.8682 60.2628 24.3816 61.048 24.8648L62.3163 22.5999C61.4104 22.0261 59.9004 21.3315 58.2998 21.3315C54.1323 21.3315 51.1426 24.291 51.1426 28.3377C51.1426 32.3542 54.1927 35.344 58.2998 35.344C60.0514 35.344 61.3198 34.6192 62.3163 34.0152L61.048 31.7503C60.2628 32.2938 59.085 32.7166 58.1488 32.7166ZM67.0576 15.1406H69.7454V34.9816H67.0576V15.1406ZM85.2376 21.7543L84.9356 22.9019C84.2109 22.1167 82.6707 21.3315 81.0399 21.3315C77.718 21.3315 74.6679 23.9588 74.6679 28.2471C74.6679 32.6864 77.718 35.3742 81.0399 35.3742C82.6707 35.3742 84.1505 34.589 84.9356 33.8038L85.2376 35.0118H87.5026V21.8449H85.2376V21.7543ZM84.996 28.4283C84.996 31.4483 83.1539 32.8072 81.4023 32.8072C79.6206 32.8072 77.567 31.5993 77.567 28.2773C77.567 26.1634 78.6844 23.8984 81.1909 23.8984C83.0935 23.8984 84.996 25.4386 84.996 28.2773V28.4283ZM97.106 29.4853C98.9481 29.9685 99.7333 30.3309 99.7333 31.2671C99.7333 31.9919 99.0991 32.7468 97.6194 32.7468C96.2604 32.7468 95.143 32.2637 94.0861 31.6899L92.8781 33.9548C93.8143 34.5286 95.898 35.3138 97.6194 35.3138C100.579 35.3138 102.3 33.3206 102.3 31.2973C102.3 27.8243 98.8877 27.2808 97.9818 26.9788C96.0792 26.4654 95.596 26.0728 95.596 25.2876C95.596 24.442 96.3208 23.8682 97.71 23.8682C98.9179 23.8682 99.8239 24.2306 100.67 24.6534L101.938 22.3885C100.73 21.8751 99.3105 21.3315 97.71 21.3315C94.8108 21.3315 93.0593 23.385 93.0593 25.2876C93.0593 28.3377 95.6262 29.1229 97.106 29.4853ZM111.511 29.4853C113.353 29.9685 114.138 30.3309 114.138 31.2671C114.138 31.9919 113.504 32.7468 112.024 32.7468C110.665 32.7468 109.548 32.2637 108.491 31.6899L107.283 33.9548C108.219 34.5286 110.303 35.3138 112.024 35.3138C114.984 35.3138 116.705 33.3206 116.705 31.2973C116.705 27.8243 113.293 27.2808 112.387 26.9788C110.484 26.4654 110.001 26.0728 110.001 25.2876C110.001 24.442 110.726 23.8682 112.115 23.8682C113.323 23.8682 114.229 24.2306 115.075 24.6534L116.343 22.3885C115.135 21.8751 113.716 21.3315 112.115 21.3315C109.216 21.3315 107.464 23.385 107.464 25.2876C107.434 28.3377 110.031 29.1229 111.511 29.4853ZM128.362 21.3315C126.732 21.3315 125.252 22.1167 124.467 22.9019L124.165 21.6939H121.9V40.4477H124.436V33.9246L124.527 33.8642C125.252 34.6494 126.732 35.2836 128.151 35.2836C131.563 35.2836 134.734 33.079 134.734 28.1565C134.795 23.7474 131.745 21.3315 128.362 21.3315ZM128.06 32.8072C126.309 32.8072 124.467 31.4483 124.467 28.4283V28.2773C124.467 25.3782 126.369 23.8984 128.272 23.8984C130.808 23.8984 131.896 26.1634 131.896 28.2773C131.896 31.5993 129.842 32.8072 128.06 32.8072ZM149.774 21.7543L149.472 22.9623C148.747 22.1771 147.207 21.3919 145.576 21.3919C142.254 21.3919 139.204 24.0192 139.204 28.3075C139.204 32.7468 142.254 35.4346 145.576 35.4346C147.207 35.4346 148.686 34.6494 149.472 33.8642L149.774 35.0722H152.039V21.9053H149.774V21.7543ZM149.502 28.4283C149.502 31.4483 147.66 32.8072 145.908 32.8072C144.126 32.8072 142.073 31.5993 142.073 28.2773C142.073 26.1634 143.19 23.8984 145.697 23.8984C147.599 23.8984 149.502 25.4386 149.502 28.2773V28.4283ZM161.642 29.4853C163.484 29.9685 164.269 30.3309 164.269 31.2671C164.269 31.9919 163.635 32.7468 162.155 32.7468C160.796 32.7468 159.679 32.2637 158.622 31.6899L157.414 33.9548C158.35 34.5286 160.434 35.3138 162.155 35.3138C165.115 35.3138 166.836 33.3206 166.836 31.2973C166.836 27.8243 163.424 27.2808 162.518 26.9788C160.615 26.4654 160.132 26.0728 160.132 25.2876C160.132 24.442 160.857 23.8682 162.246 23.8682C163.454 23.8682 164.36 24.2306 165.206 24.6534L166.474 22.3885C165.266 21.8751 163.847 21.3315 162.246 21.3315C159.347 21.3315 157.595 23.385 157.595 25.2876C157.565 28.3377 160.162 29.1229 161.642 29.4853ZM176.017 29.4853C177.859 29.9685 178.644 30.3309 178.644 31.2671C178.644 31.9919 178.01 32.7468 176.53 32.7468C175.171 32.7468 174.054 32.2637 172.997 31.6899L171.789 33.9548C172.725 34.5286 174.809 35.3138 176.53 35.3138C179.49 35.3138 181.211 33.3206 181.211 31.2973C181.211 27.8243 177.799 27.2808 176.893 26.9788C174.99 26.4654 174.507 26.0728 174.507 25.2876C174.507 24.442 175.232 23.8682 176.621 23.8682C177.829 23.8682 178.735 24.2306 179.58 24.6534L180.849 22.3885C179.641 21.8751 178.221 21.3315 176.621 21.3315C173.722 21.3315 171.97 23.385 171.97 25.2876C171.97 28.3377 174.567 29.1229 176.017 29.4853Z" fill="#333333"/>
<path d="M28.0972 10.9434H23.2351C22.3896 10.9434 21.544 11.5775 21.4534 12.4231L20.7286 15.8961C20.638 16.5302 20.0944 16.953 19.4602 16.953H14.0848C6.80672 17.0436 0.0722656 22.5399 0.0722656 30.3313C0.0722656 37.2772 5.87054 43.6191 14.2056 43.6191H19.7018C20.5474 43.6191 21.393 42.9849 21.4836 42.1393L22.2084 38.6664C22.299 38.0322 22.8426 37.6094 23.4767 37.6094H28.218C36.3417 37.6094 42.3513 31.3883 42.3513 24.3217C42.2305 16.5302 35.5867 10.9434 28.0972 10.9434ZM27.9764 32.4453H22.2688C21.4232 32.4453 20.6984 33.0795 20.487 33.9251L19.7622 37.3074C19.6716 37.9416 19.128 38.3644 18.4939 38.3644H14.2659C9.94744 38.3644 5.29675 35.3142 5.29675 30.2407C5.29675 25.59 9.40386 22.1171 14.2659 22.1171H20.789C21.6346 22.1171 22.3594 21.4829 22.5708 20.6374L23.2955 17.255C23.3861 16.6208 23.9297 16.198 24.5639 16.198H27.9462C32.4761 16.198 36.9154 19.369 36.9154 24.3217C36.855 28.8516 32.9593 32.4453 27.9764 32.4453Z" fill="#333333"/>
</svg>
