<svg width="167" height="48" viewBox="0 0 167 48" fill="none" xmlns="http://www.w3.org/2000/svg">
<path d="M6.74887 31.5281C6.44904 30.6186 6.30029 29.4707 6.30029 27.9272C6.30029 26.3831 6.44904 25.2328 6.74887 24.3257C7.58653 21.7229 9.8055 20.3008 12.711 20.3008C14.8688 20.3008 16.5773 21.1787 17.7171 22.5711C17.8052 22.6913 17.835 22.8727 17.6868 22.9934L15.7997 24.6582C15.6492 24.7801 15.4999 24.7498 15.3792 24.5987C14.6593 23.7821 13.9104 23.3271 12.7116 23.3271C11.4236 23.3271 10.4355 23.9629 10.0149 25.234C9.77691 25.962 9.71566 26.8084 9.71566 27.9278C9.71566 29.0472 9.77633 29.9245 10.0149 30.6513C10.4349 31.8909 11.4236 32.5267 12.7116 32.5267C13.9104 32.5267 14.6593 32.0723 15.3792 31.2574C15.4999 31.104 15.6492 31.104 15.7997 31.2253L17.6868 32.8901C17.835 33.0109 17.8052 33.1625 17.7171 33.3142C16.5779 34.6768 14.8693 35.5536 12.711 35.5536C9.8055 35.5524 7.58653 34.1291 6.74887 31.5281Z" fill="#204156"/>
<path d="M72.2225 31.5281C71.9227 30.6186 71.7739 29.4707 71.7739 27.9272C71.7739 26.3831 71.9227 25.2328 72.2225 24.3257C73.0619 21.7229 75.2786 20.3008 78.1841 20.3008C80.3424 20.3008 82.0516 21.1787 83.1896 22.5711C83.2789 22.6913 83.3098 22.8727 83.1587 22.9934L81.2711 24.6582C81.1211 24.7801 80.9724 24.7498 80.8522 24.5987C80.1336 23.7821 79.384 23.3271 78.1841 23.3271C76.8967 23.3271 75.9074 23.9629 75.4886 25.234C75.2482 25.962 75.1899 26.8084 75.1899 27.9278C75.1899 29.0472 75.2482 29.9245 75.4886 30.6513C75.9074 31.8909 76.8967 32.5267 78.1841 32.5267C79.384 32.5267 80.1336 32.0723 80.8522 31.2574C80.9724 31.104 81.1217 31.104 81.2711 31.2253L83.1587 32.8901C83.3098 33.0109 83.2789 33.1625 83.1896 33.3142C82.0516 34.6768 80.3424 35.5536 78.1841 35.5536C75.2786 35.5524 73.0619 34.1291 72.2225 31.5281Z" fill="#204156"/>
<path d="M147.894 35.2205C147.714 35.2205 147.595 35.1003 147.595 34.9172V26.505C147.595 24.6285 146.665 23.3265 144.866 23.3265C143.129 23.3265 142.11 24.6279 142.11 26.505V34.9172C142.11 35.0997 141.989 35.2205 141.811 35.2205H139.053C138.873 35.2205 138.753 35.1003 138.753 34.9172V26.505C138.753 24.6285 137.824 23.3265 136.028 23.3265C134.29 23.3265 133.27 24.6279 133.27 26.505V34.9172C133.27 35.0997 133.15 35.2205 132.97 35.2205H130.213C130.032 35.2205 129.914 35.1003 129.914 34.9172V20.936C129.914 20.754 130.032 20.6327 130.213 20.6327H132.97C133.15 20.6327 133.27 20.754 133.27 20.936V21.9953H133.3C133.93 21.0871 135.188 20.3008 137.105 20.3008C138.814 20.3008 140.192 20.9955 141.06 22.2368H141.091C142.199 21.0276 143.638 20.3008 145.706 20.3008C149.061 20.3008 150.95 22.6002 150.95 25.7175V34.9166C150.95 35.0997 150.829 35.2205 150.649 35.2205H147.894Z" fill="#204156"/>
<path d="M155.114 40.6657C154.935 40.6657 154.815 40.5444 154.815 40.3618V37.9416C154.815 37.7608 154.935 37.6377 155.114 37.6377H155.654C156.792 37.6377 157.363 37.1255 157.812 35.914L158.232 34.6732L152.957 20.9342C152.897 20.7522 153.017 20.6309 153.198 20.6309H156.164C156.343 20.6309 156.464 20.7522 156.522 20.9342L159.79 30.4669H159.849L162.966 20.9342C163.026 20.7522 163.146 20.6309 163.324 20.6309H166.17C166.352 20.6309 166.472 20.7522 166.41 20.9342L160.898 36.1257C159.64 39.5761 158.44 40.6646 156.044 40.6646L155.114 40.6657Z" fill="#204156"/>
<path d="M20.4756 31.5281C20.146 30.4973 19.9961 29.5296 19.9961 27.926C19.9961 26.3248 20.146 25.3559 20.4756 24.3292C21.2847 21.7871 23.5001 20.3037 26.436 20.3037C29.341 20.3037 31.5576 21.7865 32.3667 24.3292C32.6945 25.3559 32.8456 26.3248 32.8456 27.926C32.8456 29.5296 32.6945 30.4973 32.3667 31.5281C31.557 34.0684 29.341 35.5507 26.436 35.5507C23.5001 35.5513 21.2847 34.069 20.4756 31.5281ZM29.1316 30.6204C29.3719 29.865 29.4314 29.1679 29.4314 27.9266C29.4314 26.6888 29.3719 26.0221 29.1316 25.2363C28.7127 24.0271 27.7835 23.3294 26.436 23.3294C25.0891 23.3294 24.129 24.0271 23.7107 25.2363C23.4721 26.0226 23.4115 26.6888 23.4115 27.9266C23.4115 29.1679 23.4721 29.865 23.7107 30.6204C24.129 31.832 25.0897 32.5255 26.436 32.5255C27.7835 32.525 28.7127 31.8314 29.1316 30.6204Z" fill="#204156"/>
<path d="M91.2184 20.3008C88.8507 20.3008 87.2634 20.8754 86.0939 21.7229C85.9755 21.8151 85.9446 21.9644 86.0356 22.1155L87.1415 24.114C87.2343 24.2656 87.4116 24.296 87.5627 24.1746C88.2522 23.631 89.2398 23.1754 90.8591 23.1754C93.2198 23.1754 94.0213 23.8917 94.0621 25.4661H94.0627V25.4854C94.0638 25.5221 94.0638 25.5595 94.0638 25.5985V30.32C94.0638 31.9842 92.9258 32.7997 90.8591 32.7997C89.2398 32.7997 88.3718 32.1959 88.3718 30.9861C88.3718 29.6235 89.3313 29.0168 91.4879 29.0168L92.1435 29.018C92.3232 29.018 92.4439 28.8967 92.4439 28.7164V26.7763C92.4439 26.5954 92.3232 26.4747 92.1435 26.4747H91.9995L90.9489 26.4741C87.3836 26.4741 85.1641 27.9289 85.1641 31.1045C85.1641 34.1618 87.3836 35.553 90.0191 35.553C92.0549 35.553 93.4041 34.8577 94.0936 33.859H94.1228V34.9183C94.1228 35.1003 94.2441 35.2217 94.4232 35.2217H96.9396C97.1199 35.2217 97.24 35.1009 97.24 34.9183V25.3856C97.2406 21.8151 95.6231 20.3008 91.2184 20.3008Z" fill="#204156"/>
<path d="M55.4188 26.4724C55.3406 26.4724 55.2893 26.5243 55.2893 26.6024V26.6888V26.9419V28.5449V28.7602V28.8844C55.2893 28.9626 55.3406 29.0151 55.4188 29.0151H55.4935H62.8387C63.0487 29.0151 63.1689 28.8949 63.1689 28.7147C63.1689 26.3522 63.0178 25.353 62.6894 24.3251C61.8792 21.8437 59.7226 20.3008 56.7558 20.3008C53.8794 20.3008 51.6628 21.783 50.8525 24.3251C50.5545 25.2631 50.373 26.4135 50.373 27.9266C50.373 29.4397 50.583 30.5586 50.8846 31.4977C51.6931 34.0387 53.8497 35.5518 56.9057 35.5518C59.5715 35.5518 61.6108 34.5228 62.8381 33.0704C62.9571 32.9199 62.9571 32.7688 62.8078 32.6463L61.0415 31.0731C60.8904 30.9523 60.7411 30.9838 60.5906 31.1337C59.8725 31.9212 58.8237 32.5261 57.2055 32.5261C55.5891 32.5261 54.4493 31.7398 53.9698 30.3182C53.8975 30.1193 53.8374 29.9105 53.7995 29.6836H53.7989C53.6898 29.0676 53.6257 28.4679 53.6257 27.5871C53.649 26.757 53.6968 26.2268 53.8147 25.553C53.8158 25.5437 53.8176 25.5355 53.8193 25.5268C53.8205 25.5198 53.8217 25.5145 53.8228 25.5075V25.5081C53.8514 25.3495 53.8905 25.2001 53.9389 25.0514C54.3286 23.8713 55.4071 23.1754 56.7867 23.1754C58.1354 23.1754 59.2122 23.8713 59.6018 25.0514C59.7226 25.4165 59.7815 25.7776 59.7815 26.2933C59.7815 26.414 59.722 26.4735 59.6018 26.4735H55.665L55.6656 26.4729L55.4188 26.4724Z" fill="#204156"/>
<path d="M47.5907 14.6426H44.8386C44.6571 14.6426 44.5376 14.7633 44.5376 14.943V22.0135V27.8607C44.5376 27.8765 44.5376 27.8922 44.5376 27.9074C44.5376 27.9232 44.5376 27.9389 44.5376 27.9541V28.7305H44.5224C44.4903 29.5646 44.3999 30.113 44.2395 30.6269C43.8504 31.8344 42.9212 32.4988 41.5463 32.4988C40.1999 32.4988 39.273 31.8344 38.8822 30.6269C38.6734 29.9613 38.5847 29.2368 38.5847 27.9074C38.5847 26.5786 38.6734 25.8523 38.8822 25.1891C39.2655 24.0044 40.1626 23.3353 41.4646 23.309H42.6394C42.6966 23.295 42.7339 23.2501 42.7339 23.1848L42.7491 20.4222C42.7491 20.3516 42.7047 20.3043 42.6394 20.2962L41.7014 20.2927H40.5989V20.2933C38.1869 20.3189 36.4212 21.4949 35.6815 23.7961C35.3222 24.9155 35.1729 25.9445 35.1729 27.9074C35.1729 29.8709 35.3222 30.8987 35.6815 32.0158C36.4293 34.3432 38.2248 35.5216 40.6777 35.5216C42.6237 35.5216 43.8206 34.7976 44.5072 33.799H44.5364V34.8869C44.5364 35.0689 44.6566 35.1896 44.8374 35.1896H47.5895C47.7692 35.1896 47.8893 35.0695 47.8893 34.8869V14.943C47.8905 14.7627 47.7703 14.6426 47.5907 14.6426Z" fill="#204156"/>
<path d="M119.74 26.4724C119.663 26.4724 119.61 26.5243 119.61 26.6024V26.6888V26.9419V28.5449V28.7602V28.8844C119.61 28.9626 119.663 29.0151 119.74 29.0151H119.816H127.161C127.371 29.0151 127.491 28.8949 127.491 28.7147C127.491 26.3522 127.341 25.353 127.012 24.3251C126.202 21.8437 124.045 20.3008 121.079 20.3008C118.202 20.3008 115.986 21.783 115.175 24.3251C114.877 25.2631 114.696 26.4135 114.696 27.9266C114.696 29.4397 114.906 30.5586 115.207 31.4977C116.015 34.0387 118.172 35.5518 121.228 35.5518C123.894 35.5518 125.934 34.5228 127.161 33.0704C127.28 32.9199 127.28 32.7688 127.131 32.6463L125.364 31.0731C125.214 30.9523 125.064 30.9838 124.914 31.1337C124.196 31.9212 123.148 32.5261 121.528 32.5261C119.912 32.5261 118.773 31.7398 118.293 30.3182C118.221 30.1193 118.16 29.9105 118.123 29.6836H118.123C118.013 29.0676 117.949 28.4679 117.949 27.5871C117.971 26.757 118.019 26.2268 118.137 25.553C118.14 25.5437 118.141 25.5355 118.142 25.5268C118.143 25.5198 118.144 25.5145 118.146 25.5075V25.5081C118.175 25.3495 118.214 25.2001 118.262 25.0514C118.651 23.8713 119.73 23.1754 121.11 23.1754C122.459 23.1754 123.536 23.8713 123.925 25.0514C124.045 25.4165 124.105 25.7776 124.105 26.2933C124.105 26.414 124.045 26.4735 123.925 26.4735H119.988V26.4729L119.74 26.4724Z" fill="#204156"/>
<path d="M112.051 14.6426H109.294C109.114 14.6426 108.994 14.7639 108.994 14.9436V22.024V27.8806V27.9266V27.9739V28.7515H108.979C108.946 29.5868 108.855 30.1357 108.695 30.6502C108.305 31.86 107.374 32.5262 105.998 32.5262C104.651 32.5262 103.722 31.86 103.331 30.6502C103.122 29.9834 103.031 29.2584 103.031 27.9266C103.031 26.5961 103.121 25.8681 103.331 25.2043C103.714 24.0178 104.613 23.354 105.917 23.3277L107.094 23.3283C107.274 23.3283 107.394 23.2075 107.394 23.0273V20.6024C107.394 20.4216 107.274 20.3008 107.094 20.3008H106.95L105.171 20.3003C105.157 20.3003 105.143 20.3003 105.13 20.3003C105.116 20.3003 105.104 20.3003 105.091 20.3003H105.05V20.3008C102.635 20.3259 100.867 21.5042 100.126 23.809C99.7665 24.9301 99.6172 25.9597 99.6172 27.9255C99.6172 29.8919 99.7665 30.922 100.126 32.0408C100.875 34.3706 102.674 35.5513 105.13 35.5513C107.079 35.5513 108.277 34.8268 108.966 33.8264H108.995V34.9155C108.995 35.0986 109.115 35.2188 109.296 35.2188H112.053C112.232 35.2188 112.353 35.0992 112.353 34.9155V14.9436C112.351 14.7633 112.23 14.6426 112.051 14.6426Z" fill="#204156"/>
<path d="M71.9976 39.3457V42.1031C71.9976 42.2845 72.1177 42.4047 72.298 42.4047H82.5155C82.6981 42.4047 82.8188 42.2839 82.8188 42.1031V39.3457C82.8188 39.1666 82.6981 39.0459 82.5155 39.0459H72.298C72.1177 39.0459 71.9976 39.1666 71.9976 39.3457Z" fill="#204156"/>
<path d="M69.4035 7.50171C69.3988 7.49705 69.3959 7.49121 69.3918 7.48713C69.3912 7.48655 69.3906 7.48655 69.3906 7.48655C69.3381 7.43463 69.2635 7.4043 69.1748 7.4043H69.1713H0.300996C0.278246 7.4043 0.256663 7.40663 0.235663 7.41013C0.22983 7.4113 0.22458 7.41363 0.218164 7.4148C0.204747 7.4183 0.190164 7.42121 0.177914 7.42646C0.175581 7.42705 0.173831 7.42821 0.172081 7.42938C0.0653324 7.47313 0 7.57288 0 7.70471V7.70588V42.0988V42.1011C0 42.2061 0.0408328 42.2883 0.109665 42.3408C0.114915 42.3461 0.119582 42.3507 0.126582 42.3542V42.3548C0.174414 42.3852 0.232747 42.4015 0.300996 42.4015H69.1707H69.1742C69.2757 42.4015 69.358 42.3624 69.4099 42.2953C69.4507 42.2452 69.4746 42.1792 69.4746 42.1005V42.0982V7.70588V7.70471C69.4746 7.62246 69.4484 7.55304 69.4035 7.50171ZM3.65512 39.0445C3.63353 39.0445 3.61253 39.0427 3.59387 39.0398C3.58803 39.0386 3.58162 39.0357 3.57579 39.034C3.56179 39.031 3.54779 39.0281 3.53495 39.0229C3.53262 39.0223 3.53145 39.0205 3.52912 39.02C3.42295 38.9768 3.3582 38.8776 3.35762 38.747V13.818V11.0617C3.35762 10.9293 3.42295 10.8308 3.52912 10.7864C3.53204 10.7858 3.53379 10.7841 3.53554 10.7835C3.54779 10.7788 3.58745 10.7689 3.59387 10.7672C3.6137 10.7643 3.6347 10.7625 3.65628 10.7625H65.8178C65.8399 10.7625 65.8604 10.7643 65.8802 10.7672C65.8866 10.7689 65.8924 10.7713 65.8977 10.773C65.9117 10.7759 65.9257 10.7788 65.9385 10.7841C65.9414 10.7847 65.9426 10.7864 65.9449 10.787C66.0517 10.8308 66.1164 10.9299 66.1164 11.0623V38.7475C66.1159 38.8788 66.0505 38.978 65.9455 39.0211C65.9432 39.0217 65.942 39.0235 65.9391 39.024C65.9269 39.0287 65.9123 39.0322 65.8989 39.0351C65.8924 39.0369 65.8872 39.0398 65.8808 39.041C65.8609 39.0445 65.8417 39.0456 65.8201 39.0456H3.65512V39.0445Z" fill="#204156"/>
</svg>
