<svg width="135" height="48" viewBox="0 0 135 48" fill="none" xmlns="http://www.w3.org/2000/svg">
<path d="M0.466797 11.4113H10.1335C16.3037 11.4113 20.2115 16.3475 20.2115 23.1348C20.2115 26.8369 18.9774 30.1277 16.5093 32.1844C14.864 33.6241 12.6015 34.4468 9.72211 34.4468H0.466797V11.4113ZM9.4136 30.4362C13.8356 30.4362 15.481 27.7624 15.481 23.2376C15.481 18.7128 13.5271 15.5248 9.51644 15.5248H5.09446V30.539H9.4136V30.4362ZM20.9313 26.2199C20.9313 21.2837 24.4278 17.4787 29.5696 17.4787C34.7115 17.4787 38.2079 21.2837 38.2079 26.2199C38.2079 31.156 34.7115 34.961 29.5696 34.961C24.4278 34.961 20.9313 31.0532 20.9313 26.2199ZM33.6831 26.2199C33.6831 23.0319 32.1406 20.7695 29.4668 20.7695C26.793 20.7695 25.2505 22.9291 25.2505 26.2199C25.2505 29.5106 26.6902 31.5674 29.4668 31.5674C32.2434 31.5674 33.6831 29.4078 33.6831 26.2199ZM39.0306 26.2199C39.0306 21.2837 42.2186 17.4787 47.2576 17.4787C51.5767 17.4787 54.1476 19.9468 54.7647 23.5461H50.4455C50.137 22.1064 49.0058 20.9752 47.4632 20.9752C44.7895 20.9752 43.4526 23.0319 43.4526 26.2199C43.4526 29.305 44.6866 31.4645 47.3604 31.4645C49.1086 31.4645 50.3427 30.539 50.6512 28.6879H54.9703C54.6618 32.1844 51.9881 34.961 47.5661 34.961C42.3214 34.8582 39.0306 31.0532 39.0306 26.2199ZM66.4881 34.4468V32.4929H66.3852C65.254 34.0355 64.02 34.8582 61.6547 34.8582C57.9526 34.8582 55.8959 32.4929 55.8959 28.8936V17.8901H60.215V28.1738C60.215 30.1277 61.0377 31.156 62.9916 31.156C65.0483 31.156 66.2824 29.6135 66.2824 27.4539V17.8901H70.7044V34.344H66.4881V34.4468ZM91.9916 11.5142H96.4136V15.6277H91.9916V11.5142ZM91.9916 17.8901H96.4136V34.344H91.9916V17.8901ZM98.1618 34.8582H102.481C102.789 35.8865 103.818 36.7092 105.772 36.7092C108.24 36.7092 109.474 35.4752 109.474 33.3156V31.4645H109.371C108.446 32.5957 107.109 33.4184 105.052 33.4184C101.35 33.4184 97.7505 30.539 97.7505 25.5C97.7505 20.5638 100.733 17.4787 104.846 17.4787C106.903 17.4787 108.446 18.3014 109.371 19.6383H109.474V17.8901H113.69V33.1099C113.69 35.4752 112.97 37.0177 111.736 38.1489C110.399 39.4858 108.24 40 105.772 40C101.453 40 98.676 38.1489 98.1618 34.8582ZM109.782 25.3972C109.782 23.0319 108.445 20.9752 105.875 20.9752C103.612 20.9752 102.172 22.7234 102.172 25.5C102.172 28.2766 103.612 29.922 105.875 29.922C108.651 29.922 109.782 27.8652 109.782 25.3972ZM119.963 20.1525C121.197 18.4043 122.74 17.4787 124.899 17.4787C128.293 17.4787 130.555 20.0496 130.555 23.6489V34.4468H126.133V24.3688C126.133 22.6206 125.105 21.3865 123.254 21.3865C121.3 21.3865 119.86 22.9291 119.86 25.1915V34.5496H115.644V18.0957H119.963V20.1525ZM82.0164 20.5638C78.6228 19.844 77.0803 19.2269 77.0803 17.3759C77.0803 15.7305 78.7256 14.7021 81.1937 14.7021C83.4561 14.7021 85.2044 15.7305 85.6157 17.8901H90.1405C89.6264 13.4681 86.3356 11 81.1937 11C76.0519 11 72.3498 13.3652 72.3498 17.8901C72.3498 22.7234 76.1547 23.7518 80.2682 24.6773C83.7646 25.5 85.9242 25.9113 85.9242 28.1738C85.9242 30.3333 83.8675 31.156 81.5022 31.156C78.2115 31.156 76.6689 30.0248 76.3604 27.2482H71.8356C72.0413 32.0816 75.5377 34.8582 81.8108 34.8582C86.9526 34.8582 90.7576 32.2872 90.7576 27.5567C90.6547 22.7234 86.7469 21.5922 82.0164 20.5638ZM132.406 20.9752C131.481 20.9752 130.658 20.1525 130.658 19.2269C130.658 18.3014 131.481 17.4787 132.406 17.4787C133.332 17.4787 134.155 18.3014 134.155 19.2269C134.155 20.1525 133.332 20.9752 132.406 20.9752ZM132.406 17.7872C131.584 17.7872 130.967 18.4043 130.967 19.2269C130.967 20.0496 131.584 20.6667 132.406 20.6667C133.229 20.6667 133.846 20.0496 133.846 19.2269C133.846 18.4043 133.229 17.7872 132.406 17.7872Z" fill="black"/>
<path d="M131.791 18.3018H132.408C132.614 18.3018 132.819 18.3018 132.922 18.4046C133.025 18.5074 133.128 18.6103 133.128 18.8159C133.128 19.1245 132.922 19.2273 132.819 19.3301L133.231 20.05H132.819L132.511 19.433H132.1V20.05H131.791V18.3018ZM132.1 18.6103V19.1245H132.408C132.511 19.1245 132.717 19.1245 132.717 18.8159C132.717 18.8159 132.717 18.6103 132.614 18.6103H132.1Z" fill="black"/>
</svg>
