<svg width="214" height="48" viewBox="0 0 214 48" fill="none" xmlns="http://www.w3.org/2000/svg">
<path d="M62.0484 19.0474V29.9711H64.772C65.4671 29.9607 66.153 29.8111 66.7893 29.531C67.4255 29.251 67.9991 28.8461 68.4762 28.3405C69.4553 27.3039 69.991 25.926 69.9692 24.5002C69.99 23.792 69.8706 23.0867 69.618 22.4248C69.3653 21.7629 68.9844 21.1575 68.497 20.6433C68.018 20.1369 67.4404 19.734 66.7997 19.4593C66.1591 19.1846 65.469 19.044 64.772 19.0461H62.0498L62.0484 19.0474ZM64.772 15.6224C69.8484 15.6224 73.6887 19.5558 73.6887 24.5002C73.6887 29.4447 69.8484 33.4002 64.772 33.4002H58.7651C58.7078 33.3995 58.6512 33.3875 58.5986 33.3649C58.546 33.3423 58.4983 33.3096 58.4583 33.2686C58.4183 33.2276 58.3868 33.1791 58.3656 33.1259C58.3443 33.0727 58.3338 33.0158 58.3345 32.9586V16.0822C58.3345 15.8377 58.5276 15.6391 58.7651 15.6391L64.772 15.6224ZM86.7734 30.3516C89.079 30.3586 91.1609 28.9405 92.0484 26.7586C92.4831 25.6925 92.5993 24.5232 92.3829 23.3924C92.1665 22.2616 91.6267 21.2179 90.829 20.3877C90.0452 19.5712 89.0322 19.0116 87.9237 18.783C86.8152 18.5544 85.6635 18.6674 84.6206 19.1072C82.4901 20.0072 81.0984 22.1363 81.0942 24.5002C81.0942 27.7224 83.6331 30.3363 86.7748 30.3516H86.7734ZM86.7748 15.2197C92.1178 15.2197 96.2026 19.4308 96.2026 24.5002C96.2026 29.5697 92.1178 33.7808 86.7734 33.7808C81.4303 33.7808 77.3803 29.5905 77.3803 24.5002C77.3803 19.4099 81.4651 15.2197 86.7734 15.2197H86.7748ZM109.182 30.3516C112.325 30.3433 114.868 27.7266 114.865 24.5044C114.861 21.2794 112.312 18.6683 109.171 18.6669C106.026 18.6669 103.476 21.2766 103.472 24.5002C103.472 26.053 104.073 27.5419 105.144 28.6391C105.668 29.1798 106.296 29.61 106.989 29.9041C107.682 30.1983 108.427 30.3504 109.18 30.3516H109.182ZM109.18 15.2197C114.507 15.2197 118.591 19.4099 118.591 24.5002C118.591 29.5905 114.49 33.7808 109.18 33.7808C103.872 33.7808 99.7526 29.5905 99.7526 24.5002C99.7526 19.4099 103.837 15.2197 109.18 15.2197ZM131.05 19.0474H127.21V23.7488H131.05C131.353 23.7623 131.656 23.7134 131.94 23.6052C132.224 23.497 132.482 23.3317 132.7 23.1197C133.144 22.6891 133.397 22.0919 133.403 21.4641C133.414 21.1456 133.36 20.8282 133.246 20.5308C133.131 20.2334 132.958 19.9622 132.736 19.7336C132.518 19.5085 132.255 19.3316 131.965 19.2141C131.675 19.0967 131.363 19.0413 131.05 19.0516V19.0474ZM123.494 16.0822C123.494 15.8377 123.689 15.6391 123.926 15.6391H131.157C134.604 15.6391 137.098 18.2294 137.098 21.4822C137.125 23.6822 135.923 25.703 134.005 26.6877L137.34 32.7336C137.386 32.803 137.412 32.884 137.415 32.9673C137.418 33.0507 137.398 33.1332 137.357 33.2058C137.317 33.2772 137.257 33.3356 137.184 33.374C137.112 33.4124 137.03 33.4292 136.948 33.4224H134.022C133.941 33.4236 133.861 33.4018 133.792 33.3595C133.722 33.3172 133.666 33.2562 133.63 33.1836L130.416 27.2002H127.196V32.9447C127.197 33.0021 127.186 33.0591 127.165 33.1124C127.144 33.1658 127.112 33.2144 127.072 33.2556C127.032 33.2967 126.985 33.3296 126.932 33.3523C126.879 33.375 126.822 33.387 126.765 33.3877H123.946C123.888 33.387 123.832 33.375 123.779 33.3523C123.726 33.3296 123.678 33.2967 123.638 33.2556C123.598 33.2144 123.567 33.1658 123.546 33.1124C123.525 33.0591 123.514 33.0021 123.515 32.9447L123.496 16.0836L123.494 16.0822ZM146.782 19.1308V30.0558H149.504C150.199 30.0464 150.885 29.8977 151.521 29.6186C152.158 29.3395 152.732 28.9356 153.21 28.4308C154.189 27.3954 154.726 26.0185 154.705 24.5933C154.728 23.8842 154.609 23.1778 154.357 22.5147C154.105 21.8515 153.725 21.2448 153.237 20.7294C152.757 20.2222 152.179 19.8188 151.537 19.544C150.895 19.2693 150.204 19.1291 149.505 19.1322L146.782 19.1308ZM149.504 15.7016C154.58 15.7016 158.421 19.6391 158.421 24.5933C158.421 29.5474 154.58 33.4849 149.504 33.4849H143.515C143.458 33.4842 143.401 33.4722 143.348 33.4495C143.296 33.4268 143.248 33.394 143.208 33.3528C143.168 33.3116 143.136 33.263 143.115 33.2096C143.094 33.1563 143.084 33.0993 143.085 33.0419V16.1669C143.085 15.9211 143.278 15.7224 143.515 15.7224L149.505 15.7016H149.504ZM169.748 20.0461L167.641 25.8877H171.851L169.748 20.0461ZM166.405 29.1891L165.026 33.078C164.999 33.1695 164.941 33.2492 164.863 33.3045C164.785 33.3598 164.691 33.3876 164.596 33.3836H161.604C161.528 33.3907 161.451 33.3771 161.382 33.3444C161.313 33.3116 161.254 33.2609 161.211 33.1974C161.167 33.1333 161.141 33.0589 161.134 32.9815C161.128 32.9042 161.141 32.8264 161.173 32.7558L167.637 15.8961C167.667 15.8071 167.726 15.7305 167.804 15.6779C167.881 15.6252 167.974 15.5994 168.068 15.6044H171.415C171.509 15.5991 171.602 15.6248 171.68 15.6774C171.758 15.7301 171.817 15.8069 171.847 15.8961L178.311 32.7558C178.343 32.8265 178.356 32.9043 178.349 32.9817C178.343 33.0591 178.316 33.1334 178.272 33.1974C178.229 33.2606 178.17 33.3111 178.101 33.3436C178.032 33.3761 177.955 33.3894 177.879 33.3822H174.889C174.793 33.3863 174.699 33.3584 174.621 33.3031C174.543 33.2478 174.486 33.1681 174.458 33.0766L173.079 29.1877H166.405V29.1891ZM181.779 20.4252C181.779 17.6336 184.132 15.2197 187.847 15.2197C189.848 15.175 191.785 15.9234 193.236 17.3016C193.28 17.3434 193.315 17.3938 193.339 17.4497C193.363 17.5056 193.376 17.5658 193.376 17.6266C193.376 17.6875 193.363 17.7477 193.339 17.8035C193.315 17.8594 193.28 17.9098 193.236 17.9516L191.579 19.6391C191.539 19.6801 191.492 19.7127 191.439 19.735C191.387 19.7572 191.33 19.7687 191.273 19.7687C191.216 19.7687 191.16 19.7572 191.107 19.735C191.055 19.7127 191.007 19.6801 190.968 19.6391C190.187 18.9076 189.162 18.4932 188.093 18.4766C186.607 18.4766 185.508 19.3613 185.508 20.3822C185.508 23.6822 194.29 21.778 194.29 28.128C194.286 31.3461 191.915 33.7808 187.723 33.7808C186.559 33.7927 185.405 33.5704 184.329 33.1271C183.252 32.6837 182.276 32.0285 181.458 31.2002C181.414 31.1584 181.379 31.108 181.355 31.0522C181.331 30.9963 181.318 30.9361 181.318 30.8752C181.318 30.8144 181.331 30.7542 181.355 30.6983C181.379 30.6424 181.414 30.592 181.458 30.5502L183.061 28.9058C183.101 28.8628 183.149 28.8285 183.203 28.805C183.257 28.7816 183.315 28.7695 183.373 28.7695C183.432 28.7695 183.49 28.7816 183.544 28.805C183.598 28.8285 183.646 28.8628 183.686 28.9058C184.695 29.9057 186.053 30.4735 187.473 30.4891C189.33 30.4891 190.554 29.4724 190.554 28.1988C190.554 24.8974 181.776 26.803 181.776 20.4516L181.779 20.4252ZM210.215 16.0599V22.7322H202.782V16.0599C202.782 16.0027 202.772 15.9458 202.751 15.8926C202.729 15.8394 202.698 15.7909 202.658 15.7499C202.618 15.7089 202.57 15.6762 202.518 15.6536C202.465 15.631 202.408 15.619 202.351 15.6183H199.532C199.474 15.619 199.418 15.631 199.365 15.6536C199.313 15.6762 199.265 15.7089 199.225 15.7499C199.185 15.7909 199.153 15.8394 199.132 15.8926C199.111 15.9458 199.1 16.0027 199.101 16.0599V32.9169C199.101 33.1613 199.296 33.3599 199.532 33.3599H202.351C202.587 33.3599 202.782 33.1613 202.782 32.9169V26.1391H210.21V32.9169C210.21 33.1613 210.404 33.3599 210.64 33.3599H213.46C213.697 33.3599 213.89 33.1613 213.89 32.9169V16.0599C213.891 16.0027 213.88 15.9458 213.859 15.8926C213.838 15.8394 213.806 15.7909 213.766 15.7499C213.726 15.7089 213.679 15.6762 213.626 15.6536C213.573 15.631 213.517 15.619 213.46 15.6183H210.64C210.525 15.6212 210.416 15.6692 210.337 15.7519C210.257 15.8345 210.214 15.9452 210.215 16.0599Z" fill="#FF3008"/>
<path d="M42.5081 17.8681C40.5526 14.2431 36.7262 11.9862 32.5651 12.0001H1.08175C0.869132 12.0009 0.661471 12.0643 0.484639 12.1824C0.307807 12.3004 0.169623 12.4679 0.0873033 12.664C0.00618728 12.8587 -0.0149389 13.0733 0.0266306 13.2801C0.0682001 13.487 0.170573 13.6767 0.320637 13.8251L7.17897 20.6306C7.78453 21.2334 8.60952 21.5709 9.46786 21.5709H31.6623C33.2442 21.5542 34.5373 22.807 34.554 24.3667C34.5706 25.9265 33.3026 27.2042 31.7206 27.2195H16.4192C16.2065 27.2196 15.9984 27.2823 15.8211 27.3999C15.6437 27.5175 15.505 27.6847 15.422 27.8806C15.3401 28.0756 15.3185 28.2907 15.3598 28.4981C15.4011 28.7055 15.5036 28.8958 15.654 29.0445L22.5165 35.8556C23.1258 36.4581 23.9485 36.7955 24.8054 36.7945H31.7262C40.7304 36.7945 47.5387 27.2945 42.5081 17.864" fill="#FF3008"/>
</svg>
