<svg width="124" height="64" viewBox="0 0 124 64" fill="none" xmlns="http://www.w3.org/2000/svg">
<path d="M120 19H4V45H120V19Z" fill="#DA291C"/>
<path fill-rule="evenodd" clip-rule="evenodd" d="M76.9009 27.1375H80.8983C81.428 27.1356 81.937 27.3412 82.3148 27.7097C82.6926 28.0781 82.9087 28.5796 82.9161 29.1052C82.9161 30.4809 81.7054 31.4386 79.8631 31.4386H78.126L82.9863 37.0806H85.7937L82.2143 32.9362C83.9689 32.4138 85.1796 30.8988 85.1796 29.1052C85.1707 27.9842 84.7157 26.9122 83.9137 26.1228C83.1118 25.3334 82.0279 24.8907 80.8983 24.8911L76.9009 24.9019V27.1375Z" fill="white"/>
<path d="M97.9357 26.9982V24.9086H88.0571V37.0807H97.9357V34.9736H90.3206V32.0481H96.6197V29.9411H90.3206V26.9982H97.9357Z" fill="white"/>
<path d="M105.954 29.9933C104.27 29.4709 102.743 29.0878 102.743 27.9211C102.743 27.1898 103.568 26.6674 105.288 26.6674C106.586 26.6674 107.762 27.0505 109.025 27.747L110.13 26.0056C108.534 25.0827 107.06 24.6648 105.393 24.6648C103.796 24.6648 102.498 24.9957 101.62 25.6225C101.235 25.8906 100.922 26.2481 100.708 26.6639C100.493 27.0798 100.385 27.5413 100.392 28.0082C100.392 30.4809 102.778 31.1949 104.901 31.8392C106.551 32.3442 108.025 32.7795 108.025 33.894C108.025 34.8866 106.954 35.3219 105.252 35.3219C103.857 35.2881 102.493 34.9047 101.287 34.2074L100.146 36.001C101.664 36.896 103.4 37.3599 105.165 37.3419C107.797 37.3419 110.376 36.4538 110.376 33.7547C110.376 31.4387 108.025 30.6376 105.954 29.9933Z" fill="white"/>
<path d="M23.3888 27.0203V24.9307H13.5103V37.1027H23.3888V34.9957H15.7737V32.0702H22.0728V29.9632H15.7737V27.0203H23.3888Z" fill="white"/>
<path d="M28.5472 34.9957V24.9307H26.2837V37.1027H34.8989V34.9957H28.5472Z" fill="white"/>
<path d="M47.1637 27.0203V24.9307H37.2852V37.1027H47.1637V34.9957H39.5486V32.0702H45.8477V29.9632H39.5486V27.0203H47.1637Z" fill="white"/>
<path d="M51.3924 30.207C51.5482 29.4119 51.9337 28.679 52.5019 28.0975C53.07 27.516 53.7963 27.1111 54.5923 26.9321C55.3883 26.753 56.2195 26.8076 56.9848 27.0892C57.75 27.3708 58.4162 27.8672 58.9022 28.5179L60.7446 27.2293C59.9985 26.2169 58.97 25.4436 57.7859 25.005C56.6019 24.5664 55.3143 24.4818 54.0823 24.7615C52.8504 25.0412 51.728 25.6731 50.8539 26.579C49.9798 27.4849 49.3923 28.6251 49.1641 29.8588L51.3924 30.207ZM61.6043 30.2941H55.9544V32.4186H59.1829C58.7443 33.9161 57.5512 35.1873 55.5158 35.1873C54.5433 35.1852 53.6015 34.8495 52.85 34.237C52.0984 33.6244 51.5835 32.7728 51.3924 31.8265L49.1641 32.1573C49.4351 33.6346 50.2188 34.9711 51.379 35.9349C52.5392 36.8987 54.0028 37.4289 55.5158 37.4336C56.3643 37.4479 57.206 37.2811 57.984 36.9446C58.7619 36.6082 59.458 36.1098 60.0252 35.4833C61.0937 34.236 61.6676 32.645 61.6394 31.008C61.6394 30.7817 61.6219 30.5379 61.6043 30.2941V30.2941Z" fill="white"/>
<path d="M69.4039 19.0028H71.7679L66.4108 32.3315H70.6231L68.8684 27.9781H71.1845L74.8692 37.1028H72.5356L71.4302 34.3689H65.592L61.3191 45.0001H58.9551L69.4039 19.0028Z" fill="white"/>
</svg>
