<svg width="155" height="48" viewBox="0 0 155 48" fill="none" xmlns="http://www.w3.org/2000/svg">
<path d="M4.4481 28.9891L13.3443 25.1147C13.4236 25.088 13.4916 25.0352 13.5372 24.965C13.5827 24.8948 13.6033 24.8113 13.5954 24.7279C13.5954 22.4251 11.3429 18.8286 7.28972 18.8286C3.68102 18.8277 4.11796e-06 20.9998 4.11796e-06 26.6725C-0.000808469 27.5175 0.118642 28.3578 0.355105 29.1687H4.52855L4.44729 28.9883L4.4481 28.9891ZM4.06619 27.0609C3.86064 26.2998 3.76836 25.5126 3.79235 24.7247C3.79235 22.742 4.86984 21.2241 6.54295 21.2241C7.95198 21.2241 9.00346 22.6388 9.00346 24.5809L4.07919 27.0568L4.06619 27.0609ZM108.121 29.1695C108.281 28.3854 108.36 27.5874 108.355 26.787C108.355 20.8868 104.339 18.7375 101.594 18.7375C98.4384 18.7375 97.2439 20.7398 96.9091 21.5507L97.2439 18.614C97.2439 18.5539 97.2439 18.5246 97.2 18.5246H97.1301C97.0402 18.5276 96.9517 18.5478 96.8693 18.584C95.4968 19.182 94.2584 19.7557 91.2462 19.7557H86.5608C86.5071 19.7619 86.4552 19.7788 86.4081 19.8052C86.3609 19.8316 86.3195 19.8671 86.2862 19.9097C86.2528 19.9522 86.2283 20.001 86.2139 20.0531C86.1995 20.1052 86.1956 20.1596 86.2025 20.2132V21.1298C86.1946 21.2006 86.205 21.2723 86.2325 21.338C86.2601 21.4037 86.304 21.4612 86.3601 21.5052C86.4029 21.5382 86.4517 21.5624 86.5039 21.5763C86.5561 21.5903 86.6105 21.5937 86.664 21.5865H87.2068C87.7082 21.5865 87.9056 21.8335 87.9056 22.2341C87.9056 22.7712 87.5717 23.5489 87.1499 24.4005L84.9373 28.942L82.8855 24.4638C82.5312 23.6691 82.2159 22.9183 82.2159 22.3812C82.2159 21.8969 82.4743 21.5865 83.187 21.5865H83.3405C83.3941 21.5802 83.446 21.5634 83.4931 21.5371C83.5401 21.5107 83.5815 21.4753 83.6149 21.4328C83.6482 21.3903 83.6727 21.3417 83.6872 21.2897C83.7016 21.2377 83.7056 21.1834 83.6989 21.1298V20.2116C83.7054 20.1504 83.6983 20.0886 83.678 20.0305C83.6577 19.9725 83.6247 19.9197 83.5814 19.876C83.5382 19.8322 83.4857 19.7987 83.4279 19.7777C83.3701 19.7568 83.3083 19.749 83.2471 19.7549H76.0476C75.9396 19.7685 75.8415 19.8243 75.7745 19.91C75.7075 19.9957 75.6772 20.1044 75.69 20.2124V21.1298C75.6821 21.1921 75.6886 21.2554 75.7091 21.3148C75.7295 21.3742 75.7634 21.4281 75.808 21.4724C75.8526 21.5166 75.9068 21.55 75.9664 21.5699C76.026 21.5898 76.0893 21.5958 76.1516 21.5873H76.2353C77.0015 21.5873 77.2835 22.018 78.0059 23.5156L80.737 29.1687H87.5408L90.3661 23.4952C90.7741 22.6111 91.082 22.1106 91.4168 21.8473C92.8462 22.1805 92.9534 23.7691 92.9534 25.3146V29.1655H97.2536C97.2536 29.1151 97.2536 29.0623 97.2301 29.0086V23.4359C97.4612 22.8416 97.8677 22.3318 98.3956 21.9741C98.9235 21.6165 99.5478 21.428 100.185 21.4337C102.696 21.4337 104.423 23.8593 104.423 27.7735C104.425 28.2391 104.395 28.7039 104.332 29.1655L108.121 29.1687V29.1695ZM118.228 21.3874C118.309 21.3976 118.391 21.3838 118.464 21.3478C118.537 21.3119 118.597 21.2553 118.638 21.1851C118.683 21.1081 118.702 21.0184 118.69 20.9299V19.6151C118.698 19.5528 118.692 19.4895 118.671 19.4301C118.651 19.3708 118.617 19.3169 118.572 19.2728C118.527 19.2286 118.473 19.1954 118.413 19.1755C118.354 19.1557 118.29 19.1499 118.228 19.1585H115.029V14.0254C115.029 13.9823 114.992 13.9758 114.952 13.979H114.912C114.86 13.9863 114.811 14.0109 114.775 14.0489C113.603 15.0048 112.343 15.8474 111.012 16.5655C110.916 16.6209 110.837 16.7037 110.787 16.8034C110.737 16.9032 110.718 17.0154 110.731 17.1262V19.1682H108.509C108.447 19.1609 108.384 19.1678 108.325 19.1882C108.266 19.2086 108.213 19.242 108.169 19.286C108.125 19.33 108.091 19.3835 108.071 19.4423C108.05 19.5011 108.043 19.5638 108.05 19.6257V20.5431C108.043 20.6051 108.049 20.6681 108.069 20.7272C108.09 20.7864 108.123 20.8401 108.167 20.8842C108.212 20.9284 108.265 20.9618 108.325 20.982C108.384 21.0022 108.447 21.0085 108.509 21.0006C110.731 21.0006 110.731 22.8354 110.731 24.4703V29.1695H115.039V21.3874H118.228ZM146.202 20.6463C147.678 20.6463 149.84 21.4711 151.69 23.7731C151.732 23.8398 151.788 23.8959 151.855 23.9371C151.922 23.9783 151.997 24.0034 152.076 24.0104C152.162 24.0076 152.246 23.9836 152.32 23.9405L153.06 23.5367C153.24 23.4432 153.304 23.3433 153.304 23.2035C153.297 23.0994 153.271 22.9976 153.227 22.9029L151.695 19.0187C151.654 18.9113 151.579 18.8203 151.482 18.7599C151.384 18.6995 151.269 18.673 151.155 18.6847H150.355C150.095 18.6847 149.97 18.8009 149.97 19.0179C149.971 19.087 149.982 19.156 150.004 19.221C150.098 19.555 150.128 19.863 149.96 19.863C149.912 19.8602 149.864 19.8451 149.823 19.8191C148.568 19.1682 147.177 18.825 145.763 18.818C142.554 18.818 140.509 20.5667 140.509 22.9955C140.509 24.9985 141.359 26.8 146.359 28.2854C147.296 28.5658 148.334 28.8323 149.191 29.1866H154.345C153.886 26.0362 150.134 25.2017 147.474 24.5142C145.8 24.0868 144.06 23.5529 144.06 22.2187C144.06 21.0534 145.114 20.6463 146.202 20.6463ZM20.9412 28.5162V19.6249C20.9491 19.5626 20.9426 19.4993 20.9221 19.4399C20.9017 19.3805 20.8678 19.3266 20.8232 19.2823C20.7786 19.2381 20.7244 19.2047 20.6648 19.1848C20.6052 19.1649 20.5419 19.1589 20.4796 19.1674H14.2512C14.1888 19.16 14.1256 19.1668 14.0662 19.1873C14.0069 19.2078 13.9529 19.2415 13.9084 19.2858C13.8639 19.3302 13.8301 19.384 13.8094 19.4433C13.7886 19.5026 13.7816 19.5658 13.7888 19.6281V20.5423C13.7821 20.5963 13.7862 20.6511 13.8007 20.7036C13.8153 20.756 13.8401 20.8051 13.8737 20.8479C13.9073 20.8907 13.9491 20.9265 13.9966 20.9531C14.044 20.9797 14.0963 20.9967 14.1504 21.003H14.382C15.8771 21.003 16.6304 22.2479 16.6337 23.9064V29.1687H20.9379C20.9379 28.9485 20.9412 28.7283 20.9412 28.5146V28.5162ZM74.4573 9.1539C74.4289 9.10352 74.4248 9.10352 74.3842 9.10352H74.3143C74.2672 9.10352 74.2233 9.14414 74.1762 9.17665C73.353 9.7674 71.6498 10.9359 68.4198 12.0036C68.1354 12.1003 67.9786 12.154 67.9786 12.4075V13.4419C67.9786 13.6524 68.0355 13.8051 68.3402 13.8352C70.0133 14.0156 70.1506 15.7147 70.1506 17.3529V28.7957C70.1574 28.9202 70.1574 29.045 70.1506 29.1695H74.4817V28.8087L74.4573 9.15471V9.1539ZM31.196 19.6257C31.2037 19.5637 31.1971 19.5008 31.1768 19.4418C31.1564 19.3827 31.1229 19.3291 31.0787 19.285C31.0345 19.2408 30.9808 19.2074 30.9217 19.1872C30.8626 19.1669 30.7997 19.1604 30.7377 19.1682H24.5726C24.51 19.162 24.4468 19.1699 24.3875 19.1913C24.3283 19.2126 24.2747 19.247 24.2304 19.2918C24.1862 19.3365 24.1525 19.3906 24.1319 19.4501C24.1112 19.5096 24.1041 19.5729 24.1111 19.6355V20.5496C24.0985 20.6591 24.1298 20.769 24.1982 20.8554C24.2666 20.9418 24.3665 20.9975 24.4759 21.0103H24.6222C26.1222 21.0103 26.8787 22.2552 26.8787 23.9137V29.1695H31.2293C31.2131 28.8762 31.2098 28.5723 31.2098 28.2684L31.1952 19.6265L31.196 19.6257ZM137.182 29.1695C137.165 28.8762 137.162 28.5723 137.162 28.2684V19.6265C137.17 19.5641 137.164 19.5007 137.143 19.4413C137.123 19.3818 137.089 19.3278 137.044 19.2836C136.999 19.2393 136.945 19.206 136.885 19.1861C136.826 19.1663 136.762 19.1604 136.7 19.169H130.549C130.493 19.1638 130.438 19.1694 130.385 19.1857C130.332 19.202 130.283 19.2286 130.24 19.2639C130.198 19.2993 130.163 19.3427 130.137 19.3917C130.111 19.4406 130.095 19.4942 130.09 19.5493C130.087 19.5782 130.087 19.6074 130.09 19.6363V20.5504C130.077 20.6584 130.106 20.7674 130.173 20.8537C130.239 20.94 130.337 20.9966 130.445 21.0112H130.602C132.101 21.0112 132.855 22.256 132.855 23.9145V29.1703H137.182V29.1695ZM140.75 28.3951C140.657 28.3976 140.566 28.4254 140.488 28.4756L139.538 29.0225C139.468 29.0553 139.408 29.106 139.363 29.1695H141.479C141.355 29.003 141.235 28.8364 141.114 28.6454C141.082 28.5742 141.031 28.5131 140.967 28.4689C140.903 28.4247 140.828 28.3992 140.75 28.3951ZM126.917 28.5162V19.6249C126.925 19.5629 126.918 19.4999 126.898 19.4408C126.878 19.3816 126.844 19.3279 126.8 19.2838C126.756 19.2396 126.702 19.2062 126.643 19.186C126.584 19.1658 126.521 19.1595 126.459 19.1674H120.226C120.164 19.16 120.101 19.1669 120.042 19.1875C119.983 19.2081 119.929 19.2418 119.885 19.2862C119.841 19.3306 119.807 19.3844 119.787 19.4437C119.767 19.5029 119.76 19.566 119.768 19.6281V20.5423C119.761 20.5959 119.764 20.6505 119.778 20.7027C119.792 20.755 119.816 20.804 119.849 20.8469C119.882 20.8897 119.923 20.9256 119.97 20.9524C120.017 20.9792 120.069 20.9964 120.123 21.003H120.364C121.863 21.003 122.616 22.2479 122.619 23.9064V29.1687H126.914C126.914 28.9485 126.917 28.7283 126.917 28.5146V28.5162ZM37.6496 26.2532C37.6496 25.8729 37.6496 25.4853 37.6992 25.1017C37.8771 23.0028 38.814 21.2403 40.7585 21.2403C42.5592 21.2403 43.3856 22.2682 43.2613 24.0104L43.2247 24.3273C43.2052 24.4606 43.2954 24.5305 43.4661 24.5305C43.5555 24.5305 43.6449 24.5175 43.7302 24.4907L47.2487 23.5602C47.3484 23.5471 47.44 23.4981 47.5063 23.4225C47.5727 23.3468 47.6093 23.2497 47.6095 23.1491V23.0191C47.1845 21.1038 45.7787 19.1016 42.0302 18.8342L41.4647 18.8147C37.9974 18.8147 34.1514 21.0071 33.7297 26.0793C33.6452 27.1194 33.7516 28.1676 34.0449 29.1695H38.0608C37.7729 28.2244 37.6342 27.2402 37.6496 26.2523V26.2532ZM52.897 25.7924C52.897 23.2661 53.7006 20.8137 56.6657 20.8137C59.0824 20.8137 59.8486 22.7655 60.0867 23.9966V29.1695H64.3869C64.3869 29.0428 64.3869 28.9128 64.3707 28.7795V18.8042C64.3707 18.7546 64.3707 18.7546 64.3268 18.7546H64.2537C64.2028 18.7641 64.1558 18.7884 64.1188 18.8245C63.1933 19.5343 62.1728 20.1106 61.087 20.5366C59.7118 19.3406 57.9357 18.7079 56.114 18.7652C52.4086 18.7652 48.9575 21.1005 48.9575 26.7732C48.9527 27.5793 49.0372 28.3821 49.2094 29.1695H53.439C53.0604 28.0846 52.8769 26.9413 52.897 25.7924Z" fill="#2E523D"/>
<path d="M31.1997 28.6719V28.7588C31.2038 28.7288 31.1997 28.7019 31.1997 28.6719Z" fill="#BF8C74"/>
<path d="M108.121 29.1695H104.322C104.038 31.1717 103.057 32.8237 100.64 32.8172C98.6022 32.8172 97.4443 30.9117 97.2168 29.0126C97.2168 29.0663 97.233 29.1158 97.2395 29.1695H92.9426V35.7937C92.9726 37.4424 92.2194 38.6938 90.7201 38.6938C90.3992 38.6938 90.2383 38.8474 90.2383 39.1537V40.0752C90.235 40.112 90.235 40.1489 90.2383 40.1857C90.2562 40.2906 90.3147 40.3843 90.401 40.4466C90.4873 40.5089 90.5946 40.5349 90.6998 40.5189H99.4725C99.5334 40.527 99.5953 40.5213 99.6536 40.5021C99.7119 40.4829 99.7651 40.4508 99.8092 40.4081C99.8533 40.3654 99.8872 40.3133 99.9082 40.2556C99.9293 40.1979 99.937 40.1363 99.9308 40.0752V39.157C99.9403 39.0854 99.9308 39.0126 99.9033 38.9458C99.8757 38.8791 99.8312 38.8208 99.774 38.7767C99.7315 38.7441 99.683 38.7203 99.6313 38.7066C99.5795 38.6929 99.5255 38.6897 99.4725 38.697C97.9725 38.697 97.22 37.4457 97.22 35.7969V33.3575C98.3261 34.3065 99.7422 34.816 101.199 34.7893C104.463 34.7893 107.529 32.974 108.227 28.6624C108.184 28.8331 108.154 29.0061 108.121 29.1695ZM119.162 31.4488C119.128 31.3815 119.076 31.3245 119.013 31.2836C118.949 31.2426 118.876 31.2192 118.801 31.2156C118.702 31.2181 118.607 31.2492 118.526 31.3049L118.493 31.3253C117.864 31.7194 117.01 32.1964 116.311 32.1964C115.611 32.1964 115.043 31.699 115.038 30.1202V29.1695H110.732V30.1446C110.732 33.7476 112.405 34.8429 114.286 34.8429C115.809 34.8429 117.488 34.1352 118.583 33.4575L119.504 32.8805C119.571 32.8461 119.628 32.7947 119.67 32.7315C119.711 32.6683 119.736 32.5953 119.741 32.5198C119.738 32.4239 119.707 32.3311 119.651 32.2532L119.162 31.4488ZM138.972 31.7827C137.593 31.6324 137.259 30.4777 137.181 29.1695H132.854V29.5465C132.325 30.8385 130.645 32.1525 129.129 32.1525C127.087 32.1525 126.923 30.6549 126.917 29.1703H122.622V28.9493C122.622 31.8689 123.45 34.8356 127.83 34.8356C130.645 34.8356 132.516 32.61 133.37 30.8881L132.891 34.7357C132.891 34.7991 132.891 34.8291 132.934 34.8291H133.005C133.095 34.8283 133.185 34.8066 133.266 34.7657C134.638 34.1685 135.88 33.5948 138.889 33.5948C139.197 33.5948 139.34 33.451 139.34 33.1942V32.1565C139.34 31.9591 139.276 31.8087 138.972 31.7827ZM76.7103 31.7121C75.3208 31.7121 74.5749 30.6508 74.4709 29.1695H70.1398C70.0699 30.4542 69.471 31.4285 68.4171 31.6527C68.2659 31.699 66.0971 31.699 65.8428 31.699C64.7483 31.4122 64.4573 30.364 64.3867 29.1695H60.0864V30.1308C59.8575 30.7255 59.452 31.2359 58.9244 31.5934C58.3965 31.9511 57.772 32.1393 57.1343 32.133C55.4604 32.133 54.1221 31.0522 53.4533 29.1695H49.2092C49.17 28.9972 49.1364 28.8238 49.1084 28.6494C49.8617 33.1471 53.2989 34.8356 55.7489 34.8356C58.9017 34.8356 60.0994 32.8334 60.4342 32.0192L60.0767 34.7357C60.0767 34.7991 60.0767 34.8291 60.1198 34.8291H60.1701C60.2598 34.8283 60.348 34.8066 60.4277 34.7657C61.8002 34.162 63.0483 33.5948 66.0606 33.5948H76.7908C76.8987 33.5812 76.9969 33.5255 77.0638 33.4398C77.1308 33.3541 77.1612 33.2453 77.1483 33.1373V32.1622C77.1551 32.1025 77.1484 32.0419 77.1289 31.9851C77.1094 31.9282 77.0775 31.8763 77.0355 31.8332C76.9935 31.7902 76.9425 31.757 76.8862 31.736C76.8298 31.715 76.7695 31.7069 76.7095 31.7121H76.7103Z" fill="#C07961"/>
<path d="M154.291 28.8761L154.261 28.7656L154.291 28.8761Z" fill="#BF8C74"/>
<path d="M154.345 29.1659H149.198C150.238 29.5965 151.011 30.167 151.011 31.0145C151.011 32.183 149.95 32.7567 148.062 32.7567C145.72 32.7567 143.377 31.7718 141.486 29.165H139.371C139.327 29.2294 139.302 29.3049 139.3 29.3828C139.304 29.4766 139.33 29.5682 139.377 29.6493L142.018 34.5752C142.069 34.6734 142.147 34.7545 142.244 34.8086C142.34 34.8626 142.45 34.8871 142.56 34.8791H143.658C143.903 34.9027 143.993 34.8125 143.993 34.6386C143.989 34.5544 143.973 34.4713 143.946 34.3916C143.859 34.1153 143.909 33.9341 144.104 33.9341C144.195 33.94 144.283 33.9649 144.364 34.0072C145.482 34.533 146.706 34.7979 147.942 34.7824C151.938 34.7824 154.398 32.6795 154.398 29.8297C154.396 29.6075 154.378 29.3856 154.345 29.1659Z" fill="#C07961"/>
<path d="M137.169 28.7624V28.6689C137.165 28.699 137.169 28.7291 137.169 28.7624Z" fill="#BF8C74"/>
<path d="M87.531 29.1692H80.7264L82.4938 32.8234L79.0696 40.1448C79.0248 40.2203 79.0038 40.3075 79.0094 40.3951C79.0151 40.4768 79.0453 40.555 79.096 40.6193C79.1467 40.6837 79.2157 40.7313 79.2938 40.7559L80.8637 41.5498L80.9239 41.5798C80.9757 41.6 81.031 41.6096 81.0866 41.6082C81.1422 41.6068 81.1969 41.5944 81.2477 41.5718C81.2985 41.5491 81.3443 41.5166 81.3824 41.4762C81.4206 41.4357 81.4503 41.3881 81.4699 41.3361L87.531 29.1692ZM14.4275 30.484C13.4499 29.9135 13.3963 29.8867 13.2126 29.8867C13.1612 29.8871 13.1106 29.8994 13.0647 29.9225C13.0187 29.9456 12.9787 29.979 12.9477 30.02C11.8767 31.5688 10.3475 32.279 9.0522 32.279C6.75258 32.279 5.25985 30.7911 4.5269 29.1692H0.353454C0.296572 28.9758 0.247005 28.7751 0.203125 28.5752C0.969394 32.1124 3.88414 34.8191 8.23555 34.8191C11.338 34.8191 13.233 33.3873 14.3771 31.2519C14.4811 31.0902 14.5477 30.9081 14.5713 30.718C14.5723 30.6693 14.5593 30.6213 14.5338 30.5798C14.5083 30.5383 14.4714 30.505 14.4275 30.484ZM33.0105 31.7825C31.6283 31.6321 31.2935 30.4775 31.2163 29.1692H26.8657V29.5462C26.3367 30.8383 24.6563 32.1522 23.1368 32.1522C21.0955 32.1522 20.9347 30.6546 20.9282 29.17H16.6377V28.949C16.6377 31.8686 17.4641 34.8354 21.8456 34.8354C24.6596 34.8354 26.5309 32.6097 27.3842 30.8878L26.9055 34.7354C26.9055 34.7988 26.9055 34.8289 26.9494 34.8289H27.0364C27.127 34.8281 27.2163 34.8064 27.2972 34.7655C28.6697 34.1682 29.9113 33.5945 32.9203 33.5945C33.2283 33.5945 33.3721 33.4507 33.3721 33.1939V32.1563C33.3648 31.9588 33.2982 31.8085 33.0105 31.7825ZM47.2576 30.3336L46.4483 29.7664C46.3687 29.7061 46.2732 29.6702 46.1736 29.6632C46.0979 29.6696 46.0251 29.695 45.9619 29.737C45.8987 29.7791 45.8471 29.8364 45.812 29.9038C45.4358 30.4931 44.936 30.9935 44.347 31.3702C43.7581 31.747 43.0943 31.9911 42.4016 32.0856C42.2094 32.1056 42.0163 32.1157 41.823 32.1156C39.7842 32.1156 38.623 30.8805 38.0672 29.1692H34.0514C34.9453 32.2595 37.5391 34.7322 41.0234 34.7322C41.2997 34.7322 41.5752 34.7184 41.8498 34.6891C44.7613 34.3917 46.4816 32.9737 47.4388 30.9512C47.4675 30.8988 47.4855 30.8412 47.4919 30.7818C47.4983 30.7223 47.4929 30.6622 47.4761 30.6049C47.4593 30.5475 47.4313 30.4941 47.3938 30.4475C47.3563 30.401 47.31 30.3623 47.2576 30.3336Z" fill="#C07961"/>
</svg>
