<svg width="124" height="64" viewBox="0 0 124 64" fill="none" xmlns="http://www.w3.org/2000/svg">
<g clip-path="url(#clip0_4198_10817)">
<path d="M64.817 29.4891L68.6137 29.4766L68.631 34.6569C68.0483 34.852 67.4503 34.9979 66.8433 35.0932C66.23 35.1829 65.6109 35.2275 64.9911 35.2265C63.4289 35.2316 62.223 34.7734 61.3734 33.8519C60.5238 32.9304 60.096 31.6274 60.0899 29.9428C60.0841 28.282 60.5572 26.9807 61.5091 26.039C62.461 25.0973 63.7743 24.6236 65.4491 24.6178C66.5018 24.6093 67.545 24.8171 68.5141 25.2283L67.9262 26.6347C67.1397 26.2635 66.2816 26.0689 65.4121 26.0645C64.9279 26.042 64.4445 26.1238 63.9946 26.3043C63.5448 26.4849 63.1389 26.76 62.8046 27.111C62.1339 27.8993 61.7935 28.9163 61.8545 29.9496C61.785 30.982 62.0959 32.0041 62.7286 32.8228C63.046 33.1593 63.434 33.4214 63.8647 33.5901C64.2954 33.7589 64.7581 33.8303 65.2196 33.799C65.8086 33.792 66.3951 33.7213 66.9688 33.5883L66.9597 30.9277L65.7902 30.9085L64.8218 29.519L64.817 29.4891Z" fill="black" stroke="black" stroke-width="0.7"/>
<path d="M76.6861 31.1288C76.7551 32.2124 76.4079 33.2815 75.7153 34.1176C75.3655 34.4838 74.9407 34.7701 74.47 34.9568C73.9992 35.1436 73.4937 35.2264 72.988 35.1996C72.3107 35.2154 71.6417 35.047 71.0526 34.7122C70.4886 34.3815 70.0371 33.8888 69.7566 33.2982C69.4413 32.6282 69.2843 31.8947 69.2977 31.1543C69.229 30.0787 69.5731 29.0174 70.2598 28.1868C70.6126 27.8209 71.0403 27.5354 71.5135 27.3499C71.9868 27.1644 72.4945 27.0832 73.002 27.112C73.5013 27.0861 74.0002 27.1694 74.4639 27.3561C74.9277 27.5429 75.3452 27.8285 75.6873 28.193C76.3815 29.009 76.7386 30.0588 76.6861 31.1288ZM71.0055 31.1481C71.0116 32.95 71.6803 33.8481 73.0116 33.8424C74.3288 33.8379 74.9843 32.9346 74.9782 31.1327C74.9721 29.3497 74.3057 28.4602 72.9789 28.4644C72.6884 28.4409 72.3967 28.4927 72.1321 28.6147C71.8674 28.7367 71.6386 28.9249 71.4678 29.1611C71.1204 29.7637 70.9595 30.4559 71.0055 31.15V31.1481Z" fill="black" stroke="black" stroke-width="0.7"/>
<path d="M78.8334 35.0408L78.1118 35.0432L78.0767 24.7251L83.7293 24.7059L83.0534 25.3693L78.7992 25.3862L78.8141 29.762L83.4715 29.7461L82.7955 30.4163L78.8165 30.4322L78.8334 35.0408Z" fill="black" stroke="black" stroke-width="0.7"/>
<path d="M85.7541 35.0177L85.0556 35.0201L85.0186 24.0385L85.7171 24.7145L85.7541 35.0177Z" fill="black" stroke="black" stroke-width="0.7"/>
<path d="M93.7846 31.1442C93.8514 32.1994 93.5312 33.2429 92.884 34.079C92.5724 34.4333 92.1851 34.7128 91.7508 34.897C91.3165 35.0811 90.8463 35.1651 90.3751 35.1428C89.7478 35.1575 89.1296 34.9904 88.5951 34.6616C88.0698 34.3256 87.6576 33.8395 87.4117 33.2664C87.1252 32.6034 86.9834 31.887 86.9956 31.1649C86.9284 30.1112 87.2496 29.0695 87.8985 28.2368C88.2088 27.885 88.594 27.6073 89.0258 27.4241C89.4575 27.2409 89.9249 27.1569 90.3934 27.1783C90.8603 27.1538 91.3265 27.236 91.7569 27.4185C92.1872 27.6011 92.5704 27.8793 92.8772 28.2319C93.5202 29.0619 93.8424 30.0959 93.7846 31.1442V31.1442ZM87.7297 31.1644C87.6803 32.0415 87.928 32.9098 88.433 33.6287C88.6801 33.9062 88.9834 34.1281 89.3227 34.2796C89.662 34.4312 90.0297 34.5089 90.4013 34.5076C90.7729 34.5063 91.14 34.4261 91.4782 34.2723C91.8165 34.1184 92.1182 33.8944 92.3634 33.6152C92.8638 32.893 93.1058 32.023 93.0504 31.1461C93.102 30.2686 92.8512 29.4001 92.3399 28.6852C92.102 28.3954 91.7992 28.1657 91.456 28.0148C91.1128 27.864 90.7389 27.7961 90.3646 27.8167C89.9923 27.7976 89.6209 27.8672 89.2808 28.0198C88.9408 28.1725 88.642 28.4038 88.409 28.6948C87.9115 29.4182 87.6728 30.2884 87.7316 31.1644H87.7297Z" fill="black" stroke="black" stroke-width="0.7"/>
<path d="M99.7146 34.9705L99.5342 33.7571H99.4779C99.1647 34.1905 98.76 34.5498 98.2925 34.8093C97.8426 35.0252 97.3482 35.1321 96.8493 35.1211C96.2111 35.1627 95.5814 34.9578 95.09 34.5486C94.8758 34.343 94.7083 34.0937 94.599 33.8177C94.4897 33.5417 94.441 33.2453 94.4564 32.9488C94.4442 32.6018 94.5237 32.2576 94.6867 31.9511C94.8498 31.6445 95.0908 31.3862 95.3854 31.2024C96.2073 30.7333 97.1438 30.5028 98.0895 30.537L99.5501 30.4889V29.9808C99.5895 29.3959 99.4309 28.8148 99.0997 28.3311C98.9197 28.1342 98.6964 27.9818 98.4475 27.8859C98.1985 27.79 97.9308 27.7531 97.6652 27.7783C96.8919 27.7973 96.1348 28.0034 95.4585 28.3787L95.1953 27.7725C95.9726 27.3895 96.8252 27.1841 97.6916 27.1711C98.0346 27.1431 98.3796 27.1865 98.7049 27.2986C99.0302 27.4106 99.3288 27.5888 99.5818 27.822C100.047 28.3974 100.273 29.1294 100.213 29.8668L100.231 34.9696L99.7146 34.9705ZM96.8902 34.486C97.2463 34.5161 97.6046 34.4677 97.9399 34.3441C98.2753 34.2206 98.5794 34.025 98.8309 33.7711C99.0824 33.5172 99.2751 33.2112 99.3955 32.8747C99.5158 32.5382 99.5609 32.1793 99.5274 31.8235L99.525 31.0682L98.1843 31.1293C97.3872 31.1166 96.5983 31.2921 95.8818 31.6416C95.6577 31.7808 95.4756 31.9784 95.3552 32.2132C95.2348 32.448 95.1805 32.7111 95.1982 32.9744C95.1868 33.1817 95.2208 33.389 95.2976 33.582C95.3745 33.7749 95.4924 33.9488 95.6432 34.0915C95.9937 34.3748 96.4381 34.5157 96.8878 34.486H96.8902Z" fill="black" stroke="black" stroke-width="0.7"/>
<path d="M104.159 34.476C104.548 34.4801 104.936 34.4408 105.316 34.3591V34.9239C104.938 35.044 104.542 35.1024 104.145 35.0971C103.871 35.1211 103.595 35.0855 103.336 34.9925C103.076 34.8996 102.84 34.7516 102.644 34.5588C102.279 34.0682 102.106 33.4619 102.155 32.8527L102.138 27.8972L101.001 27.901V27.4916L102.136 27.1702L102.139 25.4329L102.843 26.1103L102.849 27.2881L105.1 27.2804V27.8871L102.853 27.8976L102.869 32.7531C102.837 33.21 102.947 33.6657 103.184 34.0574C103.3 34.2019 103.449 34.3157 103.619 34.3887C103.789 34.4617 103.975 34.4917 104.159 34.476V34.476Z" fill="black" stroke="black" stroke-width="0.7"/>
<path d="M109.208 35.0812C108.725 35.1101 108.241 35.0337 107.79 34.8573C107.339 34.6808 106.932 34.4086 106.597 34.0593C105.929 33.2523 105.591 32.222 105.652 31.1759C105.595 30.1206 105.911 29.0789 106.545 28.2334C106.836 27.8716 107.207 27.5827 107.629 27.3896C108.051 27.1965 108.513 27.1045 108.976 27.121C109.381 27.1017 109.786 27.1763 110.157 27.339C110.528 27.5018 110.857 27.7483 111.118 28.0592C111.677 28.7942 111.957 29.7034 111.909 30.6255V31.1904L106.384 31.2091C106.336 32.0763 106.601 32.9318 107.13 33.6205C107.393 33.9036 107.715 34.1246 108.074 34.2674C108.433 34.4102 108.819 34.4713 109.204 34.4461C109.591 34.4489 109.977 34.4167 110.358 34.3499C110.79 34.2567 111.211 34.123 111.617 33.9505V34.5856C111.233 34.7599 110.831 34.8903 110.419 34.9744C110.019 35.0467 109.614 35.0825 109.208 35.0812ZM108.978 27.7422C108.647 27.7295 108.316 27.7887 108.01 27.9159C107.703 28.043 107.428 28.2351 107.203 28.4788C106.715 29.0753 106.442 29.8179 106.426 30.588L111.168 30.5721C111.209 29.8319 111.003 29.0989 110.583 28.4884C110.395 28.2435 110.152 28.0476 109.872 27.9174C109.593 27.7871 109.286 27.7265 108.978 27.7407V27.7422Z" fill="black" stroke="black" stroke-width="0.7"/>
<path d="M116.617 27.0941C116.967 27.0956 117.317 27.1278 117.662 27.1903L117.53 27.861C117.204 27.7815 116.87 27.7424 116.535 27.7446C116.219 27.7423 115.907 27.8176 115.627 27.9637C115.347 28.1098 115.107 28.3223 114.928 28.5827C114.494 29.1963 114.275 29.9368 114.307 30.688L114.322 34.9219L113.623 34.9243L113.597 27.2528L114.261 27.9293L114.265 28.6337H114.314C114.547 28.1605 114.892 27.7512 115.318 27.441C115.709 27.2021 116.16 27.0816 116.617 27.0941V27.0941Z" fill="black" stroke="black" stroke-width="0.7"/>
<path d="M123.706 32.8912C123.721 33.2001 123.658 33.5079 123.522 33.7856C123.386 34.0633 123.181 34.3019 122.928 34.4789C122.262 34.8893 121.487 35.0853 120.707 35.0403C119.867 35.0814 119.029 34.9221 118.263 34.5756L118.261 33.8207C119.019 34.2006 119.856 34.3961 120.705 34.3913C121.304 34.4263 121.901 34.293 122.429 34.0064C122.608 33.9061 122.756 33.7598 122.859 33.5826C122.962 33.4055 123.016 33.2039 123.015 32.999C123.016 32.8115 122.973 32.6265 122.891 32.4579C122.81 32.2893 122.69 32.1418 122.542 32.0266C122.074 31.6851 121.552 31.4249 120.998 31.2568C120.436 31.0745 119.894 30.8363 119.379 30.5457C119.098 30.3758 118.857 30.1458 118.675 29.8721C118.509 29.5946 118.426 29.2755 118.434 28.9523C118.427 28.6822 118.489 28.4149 118.615 28.1759C118.741 27.9369 118.926 27.7344 119.153 27.5878C119.76 27.2181 120.464 27.0411 121.174 27.0802C121.982 27.0738 122.784 27.2293 123.531 27.5378L123.272 28.1738C122.609 27.8854 121.897 27.7296 121.175 27.7153C120.66 27.6925 120.148 27.8011 119.687 28.0309C119.523 28.1079 119.384 28.23 119.287 28.3828C119.19 28.5357 119.139 28.713 119.139 28.894C119.132 29.076 119.168 29.257 119.242 29.4232C119.317 29.5893 119.429 29.7362 119.569 29.8524C120.081 30.2044 120.645 30.4741 121.241 30.6516C121.766 30.8229 122.273 31.047 122.753 31.3203C123.038 31.4898 123.282 31.7217 123.465 31.9987C123.627 32.2675 123.711 32.5769 123.706 32.8912V32.8912Z" fill="black" stroke="black" stroke-width="0.7"/>
<path d="M51.6672 36.3503C50.9354 36.1224 50.166 36.0407 49.4027 36.1098C48.6446 36.1419 47.893 35.9584 47.235 35.5805C46.9579 35.4107 46.727 35.1879 46.4653 35.0032C45.8927 34.6286 45.2841 34.312 44.6487 34.0583C43.8265 33.6974 42.9067 33.7532 42.0302 33.7403C41.3961 33.7311 40.7625 33.7152 40.1285 33.7071C38.3538 33.6835 36.5781 33.6792 34.8034 33.6792L31.7327 33.6763C31.7059 33.7204 31.6691 33.7576 31.6252 33.7848C31.5813 33.812 31.5316 33.8284 31.4801 33.8326C30.7224 33.9399 29.9614 34.0005 29.1998 34.0458C27.6885 34.2884 26.1658 34.4548 24.6378 34.5442C24.5824 34.5492 24.5267 34.5412 24.4751 34.5209C24.4234 34.5006 24.3771 34.4686 24.34 34.4273C23.437 34.5495 22.5306 34.6467 21.619 34.6991C21.5378 34.7063 21.4566 34.6867 21.3876 34.6433C21.172 34.7552 20.9632 34.8797 20.7622 35.0162C20.5443 35.162 20.3907 35.3859 20.3331 35.6416C19.8757 35.6849 19.419 35.7345 18.9629 35.7903C18.5825 35.8201 18.206 35.8882 17.8391 35.9933C17.702 35.9021 17.5419 35.8514 17.3773 35.847C17.2126 35.8426 17.0501 35.8846 16.9082 35.9683C16.7655 36.0587 16.6485 36.1843 16.5686 36.3332C16.4887 36.4821 16.4486 36.6491 16.4522 36.818C16.378 37.0104 16.3753 37.223 16.4445 37.4172C16.5137 37.6114 16.6503 37.7743 16.8294 37.8765C17.4278 38.2427 18.0292 38.6042 18.6334 38.9609C19.0142 39.2094 19.4197 39.4181 19.8433 39.5835C19.8703 39.6014 19.8984 39.6174 19.9275 39.6316C21.3378 40.3364 22.8112 40.907 24.3284 41.3357C25.8769 41.7354 27.4505 42.0302 29.0387 42.2181C30.6743 42.4442 32.3066 42.6775 33.9423 42.8916C35.4052 43.1115 36.8832 43.2149 38.3624 43.201C38.6357 43.1933 38.9075 43.1782 39.1779 43.1558C41.2193 43.3305 43.2726 43.0052 45.1601 42.208C45.6663 42.1001 46.1623 41.9491 46.6428 41.7567C48.7374 40.9075 50.4433 39.4107 52.0703 37.8774C52.1805 37.7631 52.2593 37.6224 52.2993 37.4688C52.3393 37.3152 52.339 37.1539 52.2985 37.0004C52.2579 36.8469 52.1786 36.7065 52.068 36.5926C51.9574 36.4788 51.8194 36.3953 51.6672 36.3503V36.3503Z" fill="#52C0D2"/>
<path d="M55.0114 38.348C54.9134 37.5873 54.7641 36.834 54.5645 36.0934C54.324 35.2986 53.7573 31.1932 52.2818 32.205C51.9142 32.4571 52.0071 32.7891 52.0321 33.1553C52.1105 34.3143 51.9171 35.4863 52.0133 36.6549C52.072 37.3684 52.1654 38.0786 52.2842 38.7839C52.374 39.4628 52.5303 40.1312 52.7508 40.7796C52.8787 41.2788 53.194 41.7096 53.6312 41.9824C55.2582 42.6954 55.2765 40.3278 55.0114 38.348Z" fill="#FFCA5A"/>
<path d="M53.3245 40.3947C53.2942 40.386 53.2764 40.3726 53.26 40.3692C53.2337 40.3637 53.2086 40.3534 53.1859 40.3389C53.1604 40.3192 53.1489 40.3043 53.134 40.2937C53.1191 40.2831 53.0998 40.2691 53.0801 40.2523C53.018 40.1884 52.9526 40.1277 52.8843 40.0704C52.7488 39.9444 52.6335 39.7984 52.5422 39.6374C52.3682 39.3152 52.2529 38.9647 52.2016 38.6021C52.1405 38.2456 52.1136 37.8885 52.0799 37.5383C52.0462 37.188 51.9928 36.8335 51.976 36.4755C51.9346 35.761 51.9361 35.0418 51.9452 34.3466C51.9201 33.6192 51.9883 32.8916 52.1482 32.1815C52.2022 31.9954 52.2786 31.8166 52.3758 31.6489C52.4287 31.5564 52.4934 31.4712 52.5682 31.3954C52.6174 31.3473 52.6751 31.3089 52.7385 31.2823C52.8109 31.253 52.8899 31.2439 52.967 31.2558C53.0851 31.28 53.1949 31.3342 53.286 31.4132C53.3624 31.4751 53.4338 31.543 53.4996 31.6162C53.6264 31.761 53.7321 31.923 53.8137 32.0973C54.0693 32.7783 54.1997 33.4999 54.1986 34.2272L54.2914 35.2833L54.3396 35.8125C54.3578 35.9886 54.3982 36.1628 54.4271 36.3384C54.4546 36.5136 54.4707 36.6904 54.4752 36.8676C54.4844 37.0452 54.4872 37.2232 54.4897 37.4012C54.4919 37.7574 54.4747 38.1135 54.4382 38.4678H54.3516C54.3203 38.1147 54.2958 37.7635 54.2611 37.4127L54.213 36.8869C54.1967 36.7117 54.1741 36.5371 54.175 36.3576C54.176 36.1782 54.1789 36.003 54.1616 35.8284L54.1 35.3016L53.9749 34.246C53.9354 33.8928 53.8994 33.5436 53.8354 33.2034C53.7804 32.8689 53.6756 32.5446 53.5246 32.2412C53.4499 32.0981 53.3553 31.9664 53.2437 31.85C53.1552 31.7467 53.0415 31.6682 52.9136 31.622C52.8886 31.622 52.88 31.6248 52.8362 31.6662C52.7904 31.7203 52.7512 31.7796 52.7193 31.8428C52.646 31.9855 52.5901 32.1366 52.5528 32.2926C52.4218 32.9689 52.3746 33.6587 52.4123 34.3466C52.4157 34.7059 52.3888 35.0605 52.371 35.4113C52.3532 35.762 52.3387 36.1132 52.3387 36.4625C52.3387 36.8118 52.3638 37.1548 52.3767 37.5171C52.3897 37.8794 52.3936 38.2234 52.4311 38.5679C52.4588 38.9101 52.5447 39.2452 52.6851 39.5585C52.7584 39.712 52.8548 39.8533 52.9709 39.9776C53.0339 40.0387 53.0938 40.1029 53.1503 40.17L53.1984 40.2133C53.2177 40.2307 53.234 40.2513 53.2432 40.2586C53.2578 40.2684 53.2741 40.2756 53.2913 40.2797C53.3187 40.2918 53.336 40.3043 53.348 40.3081L53.3245 40.3947Z" fill="#040505"/>
<path d="M54.9528 36.6194C55.103 37.2293 55.2021 37.8506 55.2492 38.477L55.2973 38.9413C55.3176 39.097 55.3292 39.2538 55.3319 39.4108C55.3356 39.7329 55.3132 40.0547 55.265 40.3731C55.2107 40.6948 55.1189 41.009 54.9913 41.3093C54.8672 41.6285 54.6448 41.9 54.3563 42.0844C54.2073 42.1723 54.0393 42.2231 53.8665 42.2326C53.6962 42.2265 53.5265 42.209 53.3585 42.1802C53.2739 42.1642 53.1941 42.129 53.1252 42.0772C53.0552 42.0306 52.9897 41.9776 52.9294 41.9189C52.811 41.8038 52.7163 41.6667 52.6504 41.5153L52.7211 41.4671C52.8331 41.5669 52.9517 41.659 53.0761 41.7428C53.1368 41.7828 53.1988 41.8193 53.2609 41.8525C53.3253 41.8807 53.3871 41.9145 53.4456 41.9536C53.5035 41.9951 53.5692 42.0242 53.6388 42.0392C53.7084 42.0542 53.7804 42.0547 53.8502 42.0406C53.9883 42.0243 54.1203 41.9748 54.2351 41.8963C54.457 41.718 54.6149 41.4723 54.6849 41.1963C54.769 40.9118 54.8227 40.6193 54.8451 40.3235C54.8688 40.0242 54.8749 39.7238 54.8634 39.4238C54.8585 39.1198 54.8821 38.8051 54.8903 38.4943C54.9254 37.8768 54.9183 37.2576 54.8691 36.641L54.9528 36.6194Z" fill="#040505"/>
<path d="M53.177 33.5498C53.041 33.7467 52.9668 33.9798 52.9639 34.2191C52.9561 34.4633 52.9886 34.7071 53.0601 34.9408C53.1903 35.3092 53.2446 35.7002 53.2198 36.0902L53.2102 36.1926C53.2072 36.2338 53.2009 36.2747 53.1914 36.3148C53.1756 36.3629 53.1684 36.3519 53.1611 36.3629C53.1589 36.3816 53.1589 36.4005 53.1611 36.4192C53.1617 36.451 53.1526 36.4822 53.1352 36.5087L52.9908 36.4553C52.9788 36.4399 52.9726 36.4702 52.948 36.4144C52.9335 36.3687 52.9259 36.321 52.9254 36.273C52.9156 36.2511 52.9088 36.2279 52.9052 36.2042L52.8864 36.1157L52.7902 35.7582C52.7194 35.5103 52.6835 35.2538 52.6834 34.9961C52.6689 34.7272 52.6799 34.4575 52.7162 34.1907C52.7605 33.9186 52.8782 33.6637 53.0567 33.4536L53.177 33.5498Z" fill="#040505"/>
<path d="M24.6931 34.6906C27.9462 34.2518 31.1569 33.5056 34.448 33.2535C36.0928 33.1389 37.7414 33.1572 39.3838 33.1909L40.6154 33.215C41.0282 33.2265 41.4284 33.2222 41.8393 33.2053C42.6682 33.1438 43.501 33.153 44.3284 33.2328C44.7546 33.2833 45.1709 33.3968 45.5638 33.5695C45.9442 33.7592 46.3015 33.9922 46.6284 34.2638C47.274 34.7757 47.8932 35.3107 48.6523 35.4387C49.4158 35.5854 50.2399 35.4637 51.1015 35.583C51.3195 35.6144 51.534 35.6669 51.7418 35.7399C51.8479 35.7775 51.952 35.8207 52.0535 35.8693C52.1713 35.9293 52.2767 36.0109 52.3643 36.1099C52.4541 36.2103 52.5226 36.328 52.5654 36.4558C52.5885 36.5239 52.6021 36.5948 52.6058 36.6665C52.6087 36.7348 52.6058 36.7801 52.6058 36.8378C52.6024 37.0577 52.5784 37.2767 52.5341 37.4921C52.3322 38.3447 51.8678 39.1124 51.2064 39.687C50.575 40.2479 49.8672 40.7162 49.1041 41.0779C48.3557 41.4409 47.5843 41.7543 46.7949 42.0161C46.0085 42.2807 45.2081 42.5012 44.3972 42.6767C42.7766 43.0125 41.1306 43.211 39.4767 43.2699C38.6521 43.306 37.8271 43.3132 37.0044 43.3103C36.1818 43.3074 35.3577 43.2925 34.5346 43.2579C32.8861 43.1973 31.2431 43.0338 29.6151 42.7681C28.802 42.6338 27.9924 42.4563 27.1948 42.2619L24.7975 41.6875C23.1907 41.3165 21.6156 40.8194 20.0868 40.2008C19.3242 39.8827 18.5847 39.5117 17.8739 39.0904C17.6925 38.9913 17.5193 38.8787 17.3447 38.7709L17.0815 38.6078C16.9915 38.5496 16.9055 38.4853 16.8241 38.4154C16.7537 38.3481 16.6786 38.2859 16.5995 38.2292C16.5778 38.2157 16.5538 38.2018 16.5273 38.1811C16.5124 38.17 16.4986 38.1576 16.4859 38.144C16.4749 38.133 16.4648 38.1209 16.4547 38.1089C16.4186 38.0636 16.3864 38.0153 16.3585 37.9646C16.3315 37.9165 16.3104 37.8818 16.282 37.8395L16.1968 37.7043C16.1406 37.6124 16.0903 37.5169 16.0462 37.4185C15.948 37.214 15.9019 36.9884 15.912 36.7618C15.9303 36.5253 16.0299 36.3024 16.1939 36.131C16.3476 35.9699 16.5311 35.84 16.7342 35.7485C16.9271 35.6583 17.1273 35.5845 17.3326 35.5277C18.1394 35.3392 18.9598 35.215 19.7861 35.1563C20.604 35.0562 21.4252 34.9922 22.244 34.9306C23.0628 34.8691 23.8811 34.7935 24.6931 34.6906ZM24.7042 34.7767C23.8898 34.8883 23.0685 34.9653 22.2531 35.0476C21.4377 35.1298 20.6199 35.2217 19.8116 35.3511C19.0013 35.4409 18.1978 35.584 17.4062 35.7793C17.0305 35.8745 16.6838 36.06 16.396 36.3196C16.2707 36.4454 16.1937 36.6113 16.1785 36.7882C16.168 36.9738 16.201 37.1594 16.2748 37.33C16.3113 37.4204 16.3536 37.5085 16.4013 37.5936L16.4754 37.7221C16.5028 37.7668 16.5321 37.8183 16.5543 37.8631C16.5746 37.9036 16.5981 37.9426 16.6245 37.9795L16.6437 38.0026C16.6484 38.0081 16.6535 38.0131 16.6591 38.0175C16.6731 38.0291 16.6928 38.0425 16.714 38.0565C16.7994 38.1217 16.8799 38.1932 16.9545 38.2706C17.0259 38.338 17.1032 38.3988 17.1854 38.4524L17.4438 38.617C17.6165 38.7252 17.7863 38.8407 17.9653 38.9388C18.6718 39.3503 19.4063 39.7117 20.1633 40.0204C21.6866 40.6224 23.2549 41.1032 24.8538 41.4585L27.2539 42.0132C28.054 42.2013 28.8511 42.3697 29.6593 42.4943C31.2773 42.7442 32.9095 42.8909 34.5461 42.9336C37.8175 43.0077 41.1225 42.9817 44.3058 42.2634C45.1001 42.0877 45.8841 41.8678 46.6539 41.6047C47.4232 41.3456 48.1747 41.0362 48.9034 40.6786C49.6259 40.3325 50.2956 39.8857 50.8927 39.3516C51.4808 38.8397 51.8938 38.1565 52.0738 37.3978C52.1107 37.2104 52.1311 37.0201 52.1348 36.8291C52.1348 36.7844 52.1382 36.7266 52.1348 36.6925C52.1336 36.6615 52.1278 36.6309 52.1175 36.6016C52.0948 36.5341 52.0586 36.4719 52.0112 36.4187C51.9632 36.3633 51.9053 36.3173 51.8404 36.2831C51.7568 36.2429 51.6712 36.2069 51.584 36.1753C51.4043 36.1116 51.2189 36.0652 51.0303 36.0367C50.2606 35.9102 49.4249 36.0213 48.5681 35.8491C48.1394 35.7572 47.7335 35.58 47.3746 35.328C47.0195 35.0875 46.7039 34.8157 46.3888 34.5583C46.0879 34.2992 45.7581 34.0758 45.406 33.8924C45.0479 33.7296 44.6678 33.6205 44.2779 33.5686C43.4705 33.4788 42.657 33.4577 41.846 33.5056C41.4357 33.5157 41.0142 33.5133 40.6063 33.4955L39.3747 33.4522C37.7338 33.3935 36.0938 33.3502 34.4576 33.4392C32.8211 33.5521 31.1913 33.7482 29.5747 34.0266C27.9558 34.2893 26.3346 34.5708 24.7047 34.7767H24.7042Z" fill="#040505"/>
<path d="M38.5593 34.0767C38.3578 33.9135 38.1134 33.8119 37.8555 33.7842C37.108 33.7437 36.3588 33.7437 35.6113 33.7842C34.5645 33.7946 33.5198 33.8768 32.4843 34.03C31.7516 34.1306 31.0295 34.3004 30.2963 34.3966C28.3528 34.6512 26.2788 34.3365 24.4618 35.2506C24.1481 35.4084 23.8244 35.5874 23.7488 35.9723C23.7192 36.1393 23.7448 36.3115 23.8217 36.4627C23.8986 36.6139 24.0226 36.736 24.1751 36.8104C24.4486 36.9236 24.7373 36.996 25.0319 37.0255C25.4129 37.1183 25.8002 37.1826 26.1908 37.2179C27.3483 37.266 28.5101 37.2126 29.668 37.2396C30.6908 37.2636 31.7121 37.3704 32.7354 37.3286C33.8815 37.3012 35.0222 37.1623 36.1414 36.9139C36.4911 36.8779 36.8356 36.8029 37.1685 36.6901C37.3831 36.5838 37.5866 36.4558 37.8021 36.3534C38.2376 36.1977 38.6149 35.9122 38.8831 35.5355C39.006 35.2923 39.0409 35.0142 38.9819 34.7482C38.9228 34.4823 38.7735 34.245 38.5593 34.0767V34.0767Z" fill="#FFCA5A"/>
<path d="M38.6549 28.0535C38.7992 28.3003 39.1018 28.4687 39.2904 28.689C39.5516 28.9945 39.7955 29.3145 40.0654 29.6118C40.344 29.9002 40.5986 30.2109 40.8265 30.5409C41.0169 30.898 41.2497 31.231 41.5197 31.5324C42.1244 32.1035 43.5008 31.5806 43.7351 32.5871C43.801 32.8685 43.7803 33.2404 43.4638 33.3496C43.0789 33.4819 42.6503 33.2318 42.2678 33.1986C41.8855 33.1909 41.5145 33.067 41.2041 32.8435C40.861 32.6188 40.5665 32.3274 40.3382 31.9866C40.0272 31.4952 39.6554 31.045 39.2317 30.6467C38.9012 30.2863 38.6063 29.8923 38.3037 29.5089" fill="white"/>
<path d="M38.6961 28.0275C38.8607 28.268 39.1512 28.4013 39.3754 28.6457L40.0008 29.326C40.2024 29.5574 40.4314 29.7657 40.6416 30.0034C40.8537 30.241 41.0445 30.4968 41.2117 30.7679C41.2913 30.8918 41.377 31.0116 41.4686 31.1268C41.5119 31.1807 41.5581 31.2321 41.6071 31.2808C41.6307 31.3049 41.6552 31.3289 41.6803 31.3491C41.7053 31.3693 41.7284 31.3799 41.7486 31.3972C41.8531 31.4601 41.9687 31.5023 42.0892 31.5214C42.2195 31.5497 42.3639 31.5666 42.5149 31.5887C42.8593 31.6126 43.196 31.7019 43.5069 31.8519C43.6845 31.9626 43.8253 32.1235 43.9115 32.3142C43.9452 32.4053 43.9722 32.4988 43.9923 32.5938C44.0089 32.6877 44.0152 32.7833 44.0111 32.8786C44.0064 32.9832 43.9843 33.0863 43.9457 33.1836C43.9011 33.295 43.8275 33.3923 43.7325 33.4656C43.5566 33.5849 43.3427 33.6347 43.1322 33.6051C42.7651 33.5632 42.4904 33.4126 42.2253 33.3871C41.8906 33.3606 41.5662 33.2595 41.2757 33.0913C41.2045 33.046 41.1369 32.9954 41.0736 32.9397L40.8966 32.792C40.7726 32.6915 40.6544 32.584 40.5425 32.4701C40.4252 32.3524 40.3246 32.2191 40.2433 32.0742C40.174 31.9409 40.096 31.8123 40.01 31.6893C39.9238 31.5671 39.8291 31.4487 39.73 31.3342C39.6256 31.221 39.5107 31.1179 39.387 31.0263C39.2665 30.9266 39.1568 30.8147 39.0593 30.6924C38.9569 30.5726 38.8621 30.448 38.7707 30.3224C38.5869 30.0698 38.4205 29.8091 38.2612 29.542L38.3406 29.479C38.5648 29.696 38.7736 29.9255 38.9795 30.1526L39.2903 30.4894C39.4001 30.5956 39.5021 30.7098 39.5953 30.831C39.6837 30.9594 39.7801 31.0821 39.8839 31.1985C39.9912 31.313 40.0951 31.4319 40.1918 31.5584C40.2883 31.6847 40.3765 31.8171 40.4559 31.9548C40.5309 32.0766 40.6223 32.1873 40.7277 32.2839C40.8388 32.3836 40.9554 32.4769 41.077 32.5635L41.2641 32.7015C41.3193 32.7449 41.3778 32.7837 41.4392 32.8175C41.6941 32.9417 41.9735 33.0075 42.2571 33.0099C42.6102 33.033 42.908 33.1649 43.1596 33.1697C43.2582 33.1804 43.3575 33.156 43.44 33.1009C43.4678 33.0685 43.4886 33.0308 43.5012 32.9901C43.5137 32.9494 43.5178 32.9065 43.5132 32.8642C43.513 32.8049 43.5066 32.7459 43.4939 32.6881C43.4824 32.626 43.4549 32.5803 43.44 32.525C43.3922 32.436 43.3217 32.3613 43.2356 32.3085C42.9833 32.2037 42.7143 32.1445 42.4413 32.1338C42.2771 32.1175 42.1146 32.0874 41.9554 32.0439C41.774 31.997 41.6034 31.9153 41.4532 31.8033C41.4152 31.7715 41.3743 31.7388 41.3401 31.7071C41.306 31.6753 41.2795 31.6431 41.2516 31.6108C41.1961 31.5459 41.1442 31.478 41.0962 31.4073C41.0063 31.273 40.9231 31.1343 40.847 30.9916C40.7118 30.7243 40.5529 30.4695 40.3722 30.2305C40.1923 29.99 39.9811 29.7629 39.7949 29.5122L39.2282 28.7746C39.0589 28.5423 38.7707 28.3768 38.6057 28.0847L38.6961 28.0275Z" fill="#040505"/>
<path d="M36.7821 19.5179C36.3732 19.5783 35.9559 19.5446 35.5621 19.4193C35.1113 19.2408 34.637 19.1427 34.1886 18.9661C33.8586 18.8362 33.5666 18.6197 33.2346 18.485C33.0475 18.3855 32.8515 18.3039 32.6491 18.241C32.1498 18.1448 31.623 18.1641 31.3815 18.6995C31.2503 18.9792 31.2229 19.2964 31.304 19.5944C31.8207 21.3707 34.8842 20.6231 36.1148 20.8766" fill="white"/>
<path d="M36.7925 19.5935C36.5365 19.6335 36.2769 19.6452 36.0184 19.6286C35.8854 19.6201 35.7536 19.5985 35.6249 19.5641C35.4868 19.5237 35.3844 19.4809 35.2636 19.4458C35.0269 19.3736 34.7825 19.3135 34.5377 19.2427C34.415 19.2076 34.2913 19.1696 34.1687 19.1258C34.0438 19.0808 33.9223 19.0271 33.805 18.9651C33.5905 18.8431 33.369 18.7338 33.1416 18.638C33.0126 18.585 32.901 18.5254 32.7962 18.4821C32.6953 18.4402 32.5885 18.4147 32.4796 18.4066C32.2692 18.3685 32.0522 18.3912 31.8542 18.472C31.7691 18.5206 31.6954 18.5868 31.638 18.6662C31.5806 18.7456 31.5408 18.8364 31.5213 18.9324C31.4599 19.1338 31.4612 19.3491 31.5251 19.5497C31.5897 19.7519 31.7067 19.9334 31.8643 20.0756C32.2314 20.3514 32.6705 20.5149 33.1286 20.5461C33.6194 20.5981 34.1129 20.6217 34.6065 20.6168C34.8576 20.6221 35.1111 20.6308 35.3666 20.6529C35.627 20.6706 35.8843 20.7205 36.1324 20.8016L36.1016 20.9507C35.6134 20.9435 35.1174 21.0089 34.6103 21.0296C34.0972 21.0593 33.5825 21.0497 33.0709 21.0008C32.8041 20.9746 32.5412 20.9182 32.2872 20.8328C32.017 20.7453 31.7671 20.6042 31.5526 20.4181C31.3377 20.2172 31.181 19.9621 31.0989 19.6796C31.0158 19.3945 31.0208 19.0909 31.1133 18.8088C31.1567 18.6658 31.2232 18.5309 31.3101 18.4094C31.4046 18.2801 31.53 18.1764 31.6748 18.1078C31.9457 17.9964 32.2436 17.9683 32.5306 18.0269C32.6013 18.038 32.6557 18.0476 32.7355 18.0674C32.8061 18.0871 32.875 18.1125 32.9414 18.1434C33.067 18.2006 33.1762 18.2646 33.2782 18.3103C33.5116 18.4184 33.7384 18.5402 33.9575 18.675C34.4036 18.889 34.8665 19.066 35.3415 19.2042C35.4589 19.2451 35.5903 19.3034 35.6913 19.3409C35.8037 19.3799 35.9197 19.4076 36.0377 19.4236C36.281 19.4566 36.5271 19.4628 36.7718 19.4424L36.7925 19.5935Z" fill="#040505"/>
<path d="M35.9568 19.4669C36.4634 19.1489 37.1677 19.2591 37.7176 19.339C38.1346 19.3484 38.5495 19.4018 38.9554 19.4982C39.3557 19.6459 39.6289 20.0727 39.97 20.332C40.4144 20.6413 40.9335 20.8258 41.4734 20.8665C41.6312 20.8891 41.7408 20.956 41.8934 20.9858C42.0617 21.0186 42.246 21.0311 42.4148 21.0585C42.6125 21.0504 42.8105 21.0528 43.008 21.0657C43.3717 21.1619 43.377 21.4025 43.2774 21.7171C43.1994 21.9486 43.0986 22.1718 42.9767 22.3835C42.9286 22.4686 42.8829 22.5528 42.842 22.6414C42.7781 22.8362 42.6527 23.0051 42.4846 23.1225C42.3173 23.254 42.1296 23.3572 41.929 23.428C41.7842 23.4746 41.6361 23.5098 41.4859 23.5334C41.1602 23.5815 40.8398 23.6512 40.5131 23.6969C40.1499 23.7084 39.7946 23.8067 39.4772 23.9837C39.1597 24.1606 38.8892 24.4111 38.6884 24.714C38.5865 25.0344 38.5521 25.3723 38.5874 25.7066C38.5941 26.6409 38.7798 27.6157 38.8183 28.5452C38.7943 29.3099 38.5659 30.0541 38.1568 30.7006C37.681 31.6147 37.2235 32.5702 36.3696 33.1663C35.8443 33.533 35.278 33.7543 34.7522 34.0684C34.515 34.2099 34.1239 34.5313 34.0907 34.8132C34.5454 34.7873 35.0013 34.7903 35.4555 34.8224C35.7961 34.923 36.1041 35.1117 36.3485 35.3693C36.5929 35.6269 36.7651 35.9444 36.8478 36.2898C37.2389 37.5272 35.8746 38.4654 34.9966 38.8965C33.7256 39.5219 32.3564 39.3983 30.9883 39.3853C30.1911 39.3776 29.1683 39.3372 28.656 38.6189C28.2521 38.0851 27.9633 37.4734 27.8078 36.8223C27.6523 36.1713 27.6334 35.495 27.7525 34.8363C28.1339 33.0442 28.7609 31.3133 29.6157 29.6927C30.4677 28.105 31.9398 26.9917 32.8433 25.4405C33.2166 24.7997 33.3927 24.0376 33.7747 23.3832C33.8564 23.1836 33.9225 22.9778 33.9724 22.7679C34.0809 22.575 34.2034 22.3904 34.339 22.2156L34.6954 21.6238C34.7665 21.51 34.8308 21.3921 34.8879 21.2707C35.1433 20.7058 35.3478 19.9476 35.8443 19.5449C35.8802 19.5167 35.9178 19.4907 35.9568 19.4669V19.4669Z" fill="white"/>
<path d="M35.9234 19.4135C36.1722 19.2701 36.4541 19.1943 36.7412 19.1936C37.0195 19.1895 37.2975 19.2101 37.5721 19.2552C37.8432 19.2943 38.1162 19.3185 38.3899 19.3279C38.6758 19.3333 38.9556 19.412 39.2025 19.5564C39.4235 19.7253 39.6292 19.9134 39.8173 20.1183C40.0096 20.3053 40.2351 20.4549 40.4821 20.5595C40.7324 20.6614 40.9938 20.7332 41.261 20.7736L41.463 20.8054C41.5345 20.815 41.6048 20.8321 41.6728 20.8564C41.7972 20.9056 41.9276 20.938 42.0605 20.9526L42.4661 21.005C42.5912 21.0171 42.7264 20.9848 42.8736 20.9887C43.027 20.9896 43.1748 21.047 43.2887 21.1499C43.3443 21.2091 43.3782 21.2854 43.385 21.3664C43.3914 21.4409 43.3858 21.5159 43.3686 21.5886C43.2974 21.8598 43.1901 22.1202 43.0496 22.3628C42.9852 22.485 42.9207 22.6004 42.862 22.7255C42.8095 22.8607 42.7273 22.9824 42.6215 23.0816C42.4081 23.2681 42.1587 23.4089 41.8888 23.4953C41.755 23.5368 41.6183 23.5682 41.4799 23.5891C41.3452 23.6093 41.211 23.6339 41.0763 23.6589C40.8078 23.7104 40.5317 23.758 40.2584 23.7898C39.993 23.8074 39.7365 23.8931 39.5137 24.0385C39.2832 24.177 39.0718 24.3451 38.8849 24.5384C38.8001 24.6339 38.7379 24.7474 38.7031 24.8704C38.6718 24.9983 38.6557 25.1294 38.655 25.261C38.655 25.53 38.6588 25.8085 38.6728 26.0789C38.6867 26.3493 38.7142 26.6231 38.7435 26.8968C38.8022 27.4415 38.8753 27.9875 38.9023 28.5413C38.9088 29.1068 38.7788 29.6655 38.5232 30.1699C38.4082 30.423 38.2788 30.6674 38.1542 30.9108C38.0296 31.1543 37.9026 31.4001 37.7693 31.6426C37.5079 32.1401 37.1753 32.5969 36.7821 32.9984C36.3584 33.3689 35.8914 33.6868 35.3913 33.9453C35.2735 34.0141 35.1566 34.0833 35.0435 34.1545C34.9868 34.1897 34.9324 34.2286 34.8785 34.2662C34.8246 34.3037 34.7823 34.3393 34.7342 34.3802C34.6436 34.4576 34.5628 34.5458 34.4936 34.6429C34.4301 34.7295 34.3917 34.8353 34.4109 34.8531L34.1097 34.4908C34.4229 34.5192 34.7953 34.4673 35.2042 34.4908C35.4221 34.5011 35.6365 34.5499 35.8373 34.6352C36.0357 34.7228 36.2176 34.8437 36.3752 34.9927C36.6707 35.2792 36.8976 35.6289 37.039 36.0155C37.1194 36.2121 37.1673 36.4204 37.181 36.6323C37.1911 36.8508 37.1584 37.0692 37.0847 37.2751C36.9373 37.6597 36.6986 38.0026 36.3891 38.2744C35.8101 38.7926 35.1257 39.1793 34.383 39.4079C34.0142 39.5147 33.6356 39.5845 33.253 39.6162C32.5112 39.6614 31.7675 39.668 31.0251 39.6359C30.6447 39.6398 30.2646 39.6136 29.8883 39.5575C29.4803 39.5017 29.0936 39.3416 28.7654 39.0928C28.6054 38.959 28.4684 38.7999 28.3599 38.6217C28.2526 38.4635 28.155 38.2989 28.0631 38.1305C27.879 37.7929 27.7317 37.4364 27.6238 37.0672C27.4007 36.3226 27.366 35.5342 27.5228 34.7728C27.8388 33.3196 28.3132 31.9054 28.9377 30.5558C29.0945 30.219 29.2595 29.8865 29.438 29.5584C29.6214 29.2286 29.8277 28.9121 30.0552 28.6111C30.5036 28.0092 31.0073 27.4674 31.4912 26.9219C31.9798 26.3918 32.4124 25.8127 32.782 25.1937C32.9475 24.8722 33.0967 24.5425 33.2289 24.2059C33.3006 24.0356 33.3732 23.8648 33.4574 23.6959C33.4991 23.6116 33.5429 23.528 33.5887 23.4453L33.6604 23.3226C33.6808 23.289 33.6986 23.2539 33.7138 23.2177C33.7764 23.0734 33.7913 22.8809 33.8822 22.6885C33.9779 22.5245 34.0875 22.369 34.2098 22.2237C34.3984 21.9264 34.612 21.6055 34.7813 21.2976C34.9372 20.9771 35.0575 20.624 35.221 20.2901C35.3699 19.9387 35.6129 19.6353 35.9234 19.4135V19.4135ZM35.9898 19.5193C35.7055 19.7344 35.4858 20.0235 35.3548 20.355C35.2013 20.6837 35.0912 21.0286 34.9329 21.3745C34.8482 21.5468 34.7486 21.6998 34.6591 21.86C34.5697 22.0202 34.4816 22.1746 34.3792 22.3411C34.2714 22.4813 34.1749 22.6298 34.0905 22.7852C34.0265 22.9295 34.0188 23.1128 33.9462 23.3096C33.9279 23.3593 33.9058 23.4076 33.8803 23.4539L33.8177 23.5718C33.7776 23.6514 33.7395 23.7316 33.7032 23.8124C33.6311 23.9769 33.5657 24.1453 33.5022 24.3166C33.3803 24.6689 33.2406 25.0148 33.0836 25.3529C32.7237 26.0097 32.2918 26.6244 31.7958 27.1855C31.3233 27.7528 30.8259 28.2897 30.4006 28.8694C30.1875 29.1557 29.9946 29.4565 29.8233 29.7696C29.653 30.0876 29.4933 30.4143 29.3423 30.7439C28.7407 32.066 28.2859 33.4501 27.9861 34.8714C27.8497 35.5564 27.8858 36.2645 28.091 36.932C28.1914 37.2678 28.3272 37.592 28.496 37.8991C28.5807 38.0526 28.6711 38.2036 28.7703 38.3489C28.8519 38.4858 28.9562 38.6078 29.0786 38.7098C29.3414 38.903 29.6493 39.0257 29.9729 39.0663C30.3234 39.1163 30.6773 39.1387 31.0313 39.1332C31.7561 39.1619 32.4819 39.1532 33.2058 39.1072C33.9046 39.0559 34.5828 38.8479 35.1902 38.4986C35.4931 38.3291 35.7754 38.1254 36.0317 37.8914C36.2769 37.6768 36.4668 37.4063 36.5854 37.1028C36.6341 36.9616 36.6545 36.8122 36.6455 36.6631C36.6321 36.5082 36.5934 36.3566 36.531 36.2142C36.4167 35.9095 36.233 35.6356 35.9946 35.4141C35.8822 35.3126 35.7531 35.2313 35.6131 35.1735C35.4736 35.1188 35.3252 35.0901 35.1753 35.0889C34.8501 35.0793 34.4903 35.1485 34.0689 35.137L33.7023 35.125L33.7677 34.7747V34.7723C33.79 34.6629 33.8349 34.5593 33.8995 34.4682C33.9492 34.3955 34.0065 34.3283 34.0703 34.2676C34.1838 34.1598 34.3074 34.0632 34.4393 33.9789C34.5039 33.9373 34.5705 33.8989 34.6389 33.8639L34.8314 33.7706C34.9584 33.709 35.0854 33.6513 35.2119 33.595C35.465 33.4834 35.7137 33.3751 35.9489 33.2476C36.1858 33.1279 36.4078 32.9808 36.6104 32.8093C37.0088 32.4468 37.342 32.0187 37.5956 31.5435C37.7318 31.3082 37.8578 31.0653 37.9853 30.8218C38.1128 30.5784 38.2422 30.3378 38.3567 30.0915C38.6048 29.6144 38.7338 29.0844 38.7329 28.5466C38.7108 28.0029 38.643 27.4583 38.5886 26.9108C38.5612 26.637 38.5371 26.3618 38.5241 26.0857C38.5174 25.9481 38.5145 25.8085 38.5136 25.6714C38.5126 25.5343 38.5083 25.3967 38.5136 25.2567C38.5157 25.1137 38.5348 24.9714 38.5703 24.8328C38.6116 24.6902 38.6844 24.5586 38.7834 24.4479C38.9793 24.2468 39.2009 24.0724 39.4425 23.9293C39.6829 23.7746 39.9587 23.6838 40.244 23.6656C40.5182 23.6358 40.7838 23.592 41.0551 23.5425C41.1903 23.5184 41.3264 23.4944 41.4635 23.4756C41.5968 23.4564 41.7285 23.4273 41.8575 23.3885C42.1123 23.3074 42.3475 23.1744 42.5484 22.9978C42.6435 22.9087 42.7171 22.7989 42.7634 22.6769C42.8211 22.5533 42.8894 22.4287 42.9534 22.3079C43.0881 22.0745 43.1911 21.8242 43.2599 21.5636C43.2795 21.5074 43.2848 21.4473 43.2755 21.3885C43.2662 21.3297 43.2425 21.2742 43.2065 21.2268C43.1128 21.146 42.9934 21.1013 42.8697 21.1008C42.7422 21.0965 42.6051 21.1297 42.4555 21.1176L42.0447 21.0652C41.9743 21.0566 41.9045 21.0444 41.8354 21.0286C41.7642 21.0108 41.6983 20.9853 41.6348 20.9641C41.5735 20.9413 41.51 20.9252 41.4452 20.916L41.2403 20.8843C40.9641 20.8428 40.6937 20.7687 40.435 20.6634C40.1748 20.5537 39.9373 20.3966 39.7345 20.2001C39.5511 20.0008 39.3509 19.8176 39.1361 19.6526C38.9058 19.52 38.6455 19.4485 38.3798 19.4448C38.1042 19.4357 37.8292 19.4116 37.5562 19.3726C37.2887 19.329 37.018 19.3092 36.747 19.3134C36.4809 19.315 36.2199 19.3861 35.9898 19.5198V19.5193Z" fill="#040505"/>
<path d="M42.4919 21.9264C42.4795 21.9149 42.4678 21.9027 42.4568 21.8898C42.3913 21.7879 42.3641 21.6661 42.3798 21.546C42.3956 21.4258 42.4534 21.3152 42.5429 21.2336C42.6541 21.1397 42.7863 21.0742 42.9284 21.0427C43.0704 21.0112 43.2179 21.0146 43.3583 21.0527C43.428 21.0697 43.4935 21.1006 43.5508 21.1437C43.6082 21.1868 43.6562 21.241 43.6919 21.3032C43.7276 21.3654 43.7503 21.4342 43.7587 21.5054C43.767 21.5767 43.7607 21.6489 43.7403 21.7176C43.6441 21.9774 43.3319 21.9986 43.1019 22.0241C42.999 22.0505 42.8917 22.0555 42.7868 22.0387C42.6818 22.0219 42.5815 21.9837 42.4919 21.9264V21.9264Z" fill="#040505"/>
<path d="M35.7976 21.5318C35.7271 21.6598 35.6175 21.7619 35.4849 21.8234C35.3473 21.8881 35.2053 21.9434 35.0601 21.9889C34.896 22.0242 34.7287 22.0428 34.5608 22.0442C34.1807 22.0591 33.8007 22.037 33.4216 22.0177C32.8732 21.9903 32.2583 21.7233 31.772 21.6915C31.3361 21.6631 31.0859 21.7132 30.8733 22.1245C30.7689 22.3301 30.7186 22.5588 30.727 22.7892C30.7354 23.0196 30.8023 23.244 30.9214 23.4414C31.1496 23.7068 31.4385 23.9131 31.7636 24.0428C32.0887 24.1725 32.4403 24.2217 32.7885 24.1861C33.5866 24.1563 34.8898 24.0028 35.5239 23.4428C35.7024 23.2855 35.864 23.0858 36.0353 22.9174C36.2507 22.6514 36.4023 22.3395 36.4784 22.0057" fill="white"/>
<path d="M35.8474 21.567C35.7755 21.7027 35.6646 21.8138 35.529 21.886C35.401 21.9413 35.2817 22.0101 35.1369 22.0592C34.8568 22.1315 34.5683 22.1657 34.2791 22.1607C33.9957 22.1665 33.7143 22.1578 33.4353 22.1506C33.147 22.1338 32.8613 22.0869 32.5828 22.0106C32.3224 21.9379 32.0567 21.886 31.7881 21.8552C31.6633 21.8439 31.5376 21.8481 31.4138 21.8677C31.3119 21.8841 31.2195 21.9371 31.154 22.0168C31.0063 22.2074 30.9239 22.4406 30.9192 22.6817C30.8939 22.9133 30.956 23.146 31.0934 23.3341C31.2607 23.5227 31.4644 23.6754 31.6924 23.7829C31.9204 23.8904 32.1678 23.9505 32.4197 23.9596C32.5499 23.969 32.6805 23.9704 32.8109 23.9639C32.9468 23.9575 33.0827 23.948 33.2183 23.9355C33.4892 23.9091 33.7595 23.8768 34.0241 23.8268C34.5398 23.7572 35.0286 23.5551 35.4428 23.2403C35.539 23.1542 35.6353 23.0589 35.7368 22.9598C35.7849 22.9117 35.8407 22.8612 35.896 22.8126C35.9426 22.7746 35.9856 22.7324 36.0245 22.6866C36.1811 22.4686 36.3146 22.235 36.4228 21.9894L36.5383 22.0279C36.5083 22.3217 36.4235 22.6074 36.2881 22.8699C36.2459 22.9382 36.1976 23.0026 36.1438 23.0623L36.0134 23.2177C35.9234 23.3231 35.8344 23.4352 35.7276 23.542C35.6162 23.6513 35.4931 23.7481 35.3606 23.8307C35.2298 23.9062 35.0936 23.972 34.9531 24.0274C34.6799 24.1323 34.3981 24.2128 34.1107 24.268C33.829 24.3255 33.544 24.3652 33.2573 24.3868C33.1146 24.3984 32.9717 24.4066 32.8287 24.4114C32.6799 24.417 32.531 24.4134 32.3827 24.4008C32.0777 24.3773 31.7796 24.2973 31.5038 24.165C31.2228 24.0295 30.9761 23.8321 30.7821 23.5877C30.6762 23.4539 30.6038 23.2967 30.5709 23.1292C30.5386 22.9741 30.5294 22.815 30.5435 22.6572C30.5612 22.3356 30.6839 22.0287 30.8928 21.7835C31.0128 21.6507 31.1752 21.5636 31.3522 21.5372C31.5051 21.5168 31.66 21.516 31.8131 21.5348C32.0986 21.576 32.3803 21.6403 32.6555 21.7272C32.9136 21.807 33.179 21.861 33.4478 21.8884C33.7268 21.9091 34.0035 21.9312 34.2786 21.9365C34.5482 21.9527 34.8187 21.9365 35.0844 21.8884C35.2076 21.8561 35.337 21.7921 35.4693 21.7469C35.5848 21.6926 35.6815 21.6049 35.7469 21.4953L35.8474 21.567Z" fill="#040505"/>
<path d="M31.4418 30.4841C31.2585 30.8305 31.1676 31.2164 30.9954 31.5676C30.968 31.6239 31.1585 31.7817 31.1469 31.8048C31.3196 31.4536 31.4101 31.0677 31.5934 30.7213C31.6217 30.6679 31.4312 30.5048 31.4418 30.4841Z" fill="#040505"/>
<path d="M31.1542 29.2505C30.9577 29.6361 30.7932 30.0373 30.6626 30.4499C30.6399 30.5173 30.8261 30.651 30.8141 30.6871C30.9448 30.2745 31.1092 29.8733 31.3058 29.4877C31.3341 29.4343 31.1432 29.2707 31.1542 29.2505Z" fill="#040505"/>
<path d="M30.1717 31.3116C29.9208 31.6923 29.7284 32.1085 29.6011 32.5462C29.59 32.627 29.7599 32.7305 29.7526 32.7834C29.88 32.3457 30.0723 31.9295 30.3232 31.5488C30.3501 31.4901 30.1596 31.3376 30.1717 31.3116Z" fill="#040505"/>
<path d="M40.6427 22.3104C40.7246 22.4726 40.8544 22.6058 41.0145 22.6919C41.0458 22.7058 41.0954 22.7174 41.1449 22.7323C41.1945 22.7472 41.2411 22.7597 41.2892 22.7718C41.3842 22.7972 41.4806 22.8169 41.5779 22.8309C41.7711 22.8535 41.9666 22.8464 42.1576 22.8098C42.2716 22.7949 42.3702 22.7929 42.4703 22.7828C42.564 22.7767 42.6561 22.7556 42.743 22.7203L42.8176 22.8343C42.7231 22.8999 42.6162 22.9456 42.5035 22.9685C42.3991 22.9964 42.2904 23.0118 42.1999 23.033C41.9879 23.0993 41.765 23.1233 41.5437 23.1037C41.4344 23.091 41.3262 23.0702 41.2199 23.0417C41.1675 23.0272 41.116 23.0114 41.065 22.9936C41.0093 22.9759 40.9549 22.954 40.9024 22.9281C40.8002 22.8674 40.7127 22.7848 40.6461 22.6862C40.5796 22.5876 40.5357 22.4755 40.5176 22.358L40.6427 22.3104Z" fill="#040505"/>
<path d="M39.9352 19.5641C39.7048 19.459 39.4526 19.4105 39.1996 19.4227C38.9466 19.4349 38.7002 19.5075 38.4809 19.6344C38.3527 19.7172 38.2604 19.8454 38.2228 19.9934C38.1851 20.1413 38.2048 20.298 38.2779 20.4321C38.3146 20.4971 38.3639 20.5541 38.4229 20.5999C38.4819 20.6457 38.5493 20.6793 38.6214 20.6988C38.6935 20.7182 38.7687 20.7232 38.8427 20.7133C38.9167 20.7035 38.988 20.679 39.0525 20.6414C39.1429 20.5827 39.0525 20.6159 39.1573 20.5894C39.115 20.6005 39.2536 20.5827 39.2709 20.5841C39.3964 20.6019 39.5188 20.6372 39.6346 20.689C39.707 20.7082 39.7826 20.7129 39.8569 20.7028C39.9312 20.6927 40.0027 20.6681 40.0674 20.6303C40.1322 20.5924 40.1888 20.5422 40.234 20.4824C40.2793 20.4226 40.3123 20.3545 40.3312 20.282C40.369 20.1344 40.3491 19.9779 40.2755 19.8445C40.202 19.7111 40.0802 19.6108 39.9352 19.5641V19.5641Z" fill="white"/>
<path d="M39.944 39.1299C39.6181 39.3009 39.2782 39.4437 38.9279 39.5566C38.7538 39.6047 38.5835 39.6394 38.4127 39.6928C38.0385 39.8039 37.6575 39.8903 37.2721 39.9516C36.7496 40.0416 36.2228 40.134 35.6951 40.2138C35.3689 40.2619 35.0408 40.2995 34.7084 40.3341C34.2172 40.3851 33.6789 40.4602 33.1781 40.4784C32.1433 40.514 31.0907 40.4784 30.0511 40.4828C29.505 40.496 28.9586 40.4734 28.4154 40.4149C27.9824 40.3591 27.5629 40.2817 27.141 40.2076C26.9195 40.1627 26.701 40.1034 26.4872 40.03C26.2778 39.9605 26.0798 39.8607 25.8994 39.7337C25.6114 39.5385 25.341 39.3186 25.0911 39.0765C24.8447 38.8443 24.6962 38.5268 24.676 38.1888C24.6712 38.0711 24.6918 37.9537 24.7366 37.8447C24.7814 37.7357 24.8492 37.6377 24.9353 37.5573C25.0215 37.4769 25.124 37.4161 25.2358 37.379C25.3477 37.342 25.4662 37.3295 25.5833 37.3425C26.2087 37.3536 26.786 37.6658 27.4061 37.6644C27.866 37.6635 28.3252 37.6305 28.7805 37.5657C29.0985 37.4994 29.4196 37.4496 29.7427 37.4166C30.1088 37.4065 30.4821 37.4507 30.8492 37.4507C31.5597 37.4507 32.2746 37.4758 32.9847 37.4507C33.2691 37.4304 33.5512 37.3847 33.8275 37.3141C33.8992 37.2987 33.9762 37.3141 34.0455 37.2944C34.0782 37.2848 34.1037 37.2597 34.1349 37.2463C34.2047 37.2189 34.2889 37.203 34.3587 37.1837C34.4404 37.158 34.5238 37.1377 34.6083 37.1231C34.6661 37.1154 34.7238 37.127 34.781 37.1231C34.8383 37.1193 34.8845 37.0952 34.9388 37.0909C35.0702 37.0793 35.2092 37.0909 35.341 37.0909C35.5787 37.0895 35.8159 37.0683 36.0501 37.0274C36.165 37.0185 36.2782 36.9947 36.3869 36.9566C36.4383 36.9302 36.4947 36.9148 36.5524 36.9114C36.5743 36.915 36.5966 36.9163 36.6188 36.9153C36.651 36.9061 36.6572 36.8787 36.6823 36.8671C36.7667 36.8425 36.8541 36.8291 36.942 36.8272C36.993 36.8162 37.0238 36.7695 37.0763 36.7623C37.1262 36.759 37.1764 36.759 37.2264 36.7623H37.4347C37.4732 36.7589 37.512 36.7589 37.5506 36.7623C37.5882 36.776 37.6268 36.7867 37.6661 36.7945C38.0028 36.8123 38.33 36.7536 38.6648 36.7753C38.9434 36.8135 39.2141 36.8966 39.4663 37.0211C39.9315 37.1996 40.4496 37.4671 40.5525 37.7962C40.5847 37.8878 40.6233 37.977 40.668 38.0632C40.6916 38.1511 40.6958 38.243 40.6805 38.3326C40.6805 38.4548 40.7541 38.6314 40.5602 38.7175C40.4134 38.7558 40.2713 38.8102 40.1364 38.8797C40.0426 38.9485 40.07 39.0134 39.944 39.1299Z" fill="#52C0D2"/>
<path d="M42.1343 40.6319C42.0352 40.6721 41.9437 40.729 41.864 40.8003C41.8169 40.8401 41.7652 40.874 41.71 40.9014C40.1143 41.8227 38.5416 42.7888 36.8992 43.6187C35.2375 44.4475 33.4911 45.0945 31.6906 45.5485C30.664 45.8141 29.6523 46.1345 28.6353 46.4362C28.1503 46.5805 25.9172 47.3128 25.8113 46.314C25.7526 45.7597 26.6556 45.191 27.0111 44.899C27.8011 44.2514 28.628 43.6538 29.4622 43.0707C30.1521 42.5867 30.9007 42.1927 31.5655 41.6702C32.1529 41.2088 32.6956 40.5694 33.4634 40.4496" fill="#52C0D2"/>
<path d="M42.1542 40.6704C42.0909 40.7004 42.0299 40.7349 41.9714 40.7733C41.944 40.7935 41.9183 40.8157 41.8944 40.8397C41.865 40.8667 41.8327 40.8904 41.7982 40.9105L41.4273 41.1342L40.6888 41.5855L39.2095 42.4866C38.2175 43.0798 37.2164 43.6615 36.1671 44.1671C35.6434 44.4199 35.1107 44.6532 34.569 44.8672C34.0287 45.0837 33.4803 45.2795 32.9223 45.4445C32.3642 45.6095 31.7956 45.7457 31.2467 45.9083L29.5855 46.3789L28.7528 46.6079C28.4785 46.6853 28.1942 46.7681 27.9085 46.834C27.6199 46.9036 27.3268 46.9535 27.0315 46.9831C26.7179 47.026 26.3987 46.9976 26.0977 46.8999C26.0098 46.8675 25.9294 46.8175 25.8616 46.7528C25.7937 46.6882 25.7398 46.6104 25.7032 46.5242C25.6376 46.3512 25.6408 46.1597 25.7123 45.9892C25.8514 45.7079 26.0546 45.4632 26.3055 45.2747C26.5326 45.0822 26.775 44.9215 26.9939 44.7454C27.2207 44.5649 27.4502 44.3885 27.6824 44.2162C28.1466 43.8698 28.6185 43.5359 29.0938 43.2059C29.5692 42.8758 30.0709 42.5766 30.5313 42.2321C30.7637 42.0618 31.0047 41.9093 31.2395 41.7481C31.4727 41.5845 31.6975 41.4091 31.913 41.2227C32.1359 41.0322 32.3719 40.8577 32.6192 40.7002C32.8724 40.5411 33.1578 40.4402 33.4548 40.4048L33.4683 40.4904C32.9282 40.6626 32.4435 40.9752 32.064 41.3964C31.6407 41.7992 31.17 42.1489 30.6622 42.438C30.4096 42.5823 30.1522 42.7118 29.9136 42.871C29.675 43.0303 29.4426 43.1967 29.2088 43.3666C28.7422 43.7033 28.2799 44.0483 27.8276 44.4029C27.6015 44.5806 27.378 44.7612 27.157 44.9446C26.9319 45.1371 26.6957 45.3002 26.4869 45.4864C26.2775 45.6493 26.1086 45.8584 25.9933 46.0974C25.9534 46.1962 25.9534 46.3066 25.9933 46.4053C26.0152 46.4512 26.0465 46.4921 26.0851 46.5252C26.1237 46.5583 26.1688 46.583 26.2175 46.5978C26.471 46.6667 26.7364 46.6796 26.9954 46.6358C27.2733 46.5995 27.5485 46.5444 27.819 46.4707C28.0937 46.3995 28.3612 46.3129 28.6402 46.2254L29.4696 45.9713L31.1326 45.4758C31.6878 45.3036 32.2391 45.1693 32.7871 44.9947C33.8865 44.6748 34.9658 44.2892 36.019 43.84C37.0687 43.3844 38.0876 42.8445 39.0979 42.2922L40.6099 41.4507L41.3662 41.0283L41.7448 40.819C41.7736 40.8039 41.8007 40.7857 41.8256 40.7647C41.8538 40.7388 41.8839 40.715 41.9156 40.6935C41.979 40.6549 42.0451 40.6208 42.1133 40.5915L42.1542 40.6704Z" fill="#040505"/>
<path d="M17.8321 38.1725C17.2096 38.6372 16.5332 39.0149 15.9468 39.5297C15.5995 39.8343 15.23 40.1143 14.913 40.4535C14.7922 40.5829 14.1976 41.2233 14.6724 41.2666C14.9484 41.2693 15.2211 41.2065 15.4681 41.0833C16.4161 40.7436 17.3849 40.4653 18.3686 40.25C19.3692 40.0036 20.3381 39.6447 21.331 39.371C21.6721 39.3173 22.0031 39.2125 22.3129 39.0602" fill="#52C0D2"/>
<path d="M17.8576 38.2076C17.4443 38.5444 17.0046 38.8504 16.5895 39.1727C16.3825 39.3329 16.184 39.5038 15.9948 39.6846C15.7986 39.8689 15.5989 40.044 15.4118 40.2244C15.2261 40.3989 15.0553 40.5885 14.9009 40.7912C14.8319 40.8779 14.7757 40.9739 14.7339 41.0765C14.729 41.0896 14.7253 41.1031 14.7229 41.1169C14.7234 41.1164 14.7238 41.1158 14.7241 41.1152C14.7244 41.1145 14.7245 41.1138 14.7245 41.1131C14.7245 41.1123 14.7244 41.1116 14.7241 41.111C14.7238 41.1103 14.7234 41.1097 14.7229 41.1092C14.7236 41.1029 14.723 41.0965 14.7212 41.0903C14.7193 41.0842 14.7163 41.0785 14.7123 41.0736C14.7074 41.0591 14.6975 41.0468 14.6844 41.039C14.6776 41.0327 14.6772 41.0293 14.6709 41.0284C14.6647 41.0274 14.6752 41.0284 14.6781 41.0284C14.681 41.0284 14.6853 41.0318 14.6964 41.0332C14.9275 41.0346 15.1558 40.9822 15.3632 40.8802C15.6167 40.784 15.8746 40.7022 16.1329 40.6252C16.6515 40.478 17.173 40.3601 17.6935 40.248C18.2141 40.1359 18.7288 40.0315 19.2392 39.8905L20.0032 39.6707L20.3881 39.559C20.5153 39.5179 20.6395 39.4681 20.7599 39.4099C20.8825 39.3564 21.0102 39.3153 21.1409 39.2872C21.2679 39.254 21.4055 39.2232 21.5373 39.2025C21.7949 39.1779 22.0477 39.1178 22.2888 39.024L22.3369 39.0972C22.113 39.2578 21.8583 39.3704 21.5888 39.4277C21.4609 39.4619 21.3425 39.5013 21.2145 39.5417C21.0895 39.5869 20.9607 39.621 20.8297 39.6437C20.6979 39.6622 20.5678 39.6908 20.4405 39.7294L20.0633 39.8569L19.3066 40.1094C18.8024 40.2822 18.2819 40.4231 17.7734 40.5646C17.2649 40.706 16.7569 40.8561 16.2628 41.0303C16.0146 41.1135 15.7711 41.2059 15.5296 41.3026C15.2591 41.4366 14.9607 41.5046 14.6589 41.5013C14.6372 41.5013 14.6055 41.4936 14.5795 41.4888C14.5491 41.4845 14.5194 41.4757 14.4915 41.4628C14.4559 41.4473 14.4222 41.428 14.3909 41.4051C14.3542 41.3757 14.3238 41.3393 14.3014 41.298C14.279 41.2567 14.2651 41.2113 14.2606 41.1645C14.259 41.1288 14.2598 41.0929 14.263 41.0572C14.272 41.0056 14.2872 40.9552 14.3082 40.9071C14.3758 40.7667 14.4638 40.637 14.5694 40.5222C14.7543 40.3162 14.9559 40.1259 15.1722 39.9531C15.3824 39.7818 15.596 39.623 15.801 39.4599C16.0106 39.2902 16.2288 39.1314 16.4548 38.9841C16.9026 38.6882 17.3688 38.4347 17.8061 38.1378L17.8576 38.2076Z" fill="#040505"/>
<path d="M24.7456 35.0436C24.5603 35.0637 24.381 35.1212 24.2186 35.2127C24.0562 35.3042 23.914 35.4277 23.8008 35.5758C23.7474 35.643 23.7079 35.7201 23.6845 35.8027C23.6612 35.8853 23.6544 35.9717 23.6646 36.0569C23.7022 36.2264 23.7981 36.3774 23.9355 36.4836C24.5075 36.9775 25.2156 37.2866 25.9666 37.3703C26.3431 37.4281 26.723 37.461 27.1039 37.469C27.4863 37.4771 27.8698 37.469 28.2546 37.4618C29.0244 37.4526 29.8047 37.3963 30.5883 37.392C32.1377 37.4545 33.6895 37.3901 35.2283 37.1995C35.6078 37.1329 35.983 37.0442 36.3521 36.934C36.7253 36.8371 37.082 36.6853 37.4105 36.4836C37.5717 36.3787 37.742 36.2912 37.907 36.195C38.072 36.0987 38.2351 35.9987 38.3919 35.8899C38.7109 35.6741 39.0148 35.4368 39.3016 35.1798L39.3651 35.239C39.1195 35.549 38.8389 35.8298 38.529 36.0756C38.3739 36.1994 38.2122 36.3147 38.0446 36.4211C37.8794 36.5316 37.7034 36.6249 37.5192 36.6997C37.3345 36.7733 37.1464 36.8353 36.965 36.9118C36.7837 36.9883 36.5989 37.0586 36.4113 37.1173C36.0374 37.2402 35.6567 37.3416 35.2712 37.4209C33.7269 37.679 32.1641 37.8109 30.5984 37.8154C29.8253 37.8346 29.0542 37.9082 28.2647 37.9308C27.8697 37.9404 27.4745 37.9284 27.0808 37.8948C26.6837 37.8641 26.289 37.8073 25.8993 37.7249C25.5055 37.6428 25.1223 37.516 24.7572 37.3472C24.3874 37.1773 24.0531 36.939 23.7719 36.6448C23.6088 36.4978 23.5016 36.2989 23.4684 36.0819C23.4606 35.9726 23.4748 35.8629 23.5099 35.7591C23.5451 35.6553 23.6007 35.5596 23.6733 35.4776C23.8067 35.323 23.9702 35.1972 24.1538 35.1078C24.3374 35.0183 24.5373 34.9672 24.7413 34.9575L24.7456 35.0436Z" fill="#040505"/>
<path d="M28.3272 37.2159C28.219 37.2176 28.1111 37.206 28.0058 37.1813C27.7078 37.1497 27.4187 37.061 27.1543 36.9201C26.8873 36.7493 26.6217 36.576 26.3668 36.3879C25.6323 35.8519 25.0534 35.1304 24.6892 34.2973C24.325 33.4641 24.1885 32.5492 24.2938 31.646C24.3428 31.2401 24.4483 30.8431 24.607 30.4663C24.8421 29.9046 25.138 29.3702 25.4893 28.8728C25.6962 28.5536 25.9447 28.2634 26.2282 28.0097C26.3427 27.9197 26.6232 27.7071 26.7786 27.7537C27.0922 27.85 26.6545 28.3311 26.5659 28.4624C26.1046 29.1399 25.7726 29.3616 25.4595 30.3042C25.0901 31.5495 25.1563 32.8836 25.6471 34.0862C25.9165 34.5702 26.2757 34.9983 26.7054 35.3477C26.8755 35.5051 27.0695 35.6342 27.2803 35.7302C27.5996 35.8588 27.9542 35.8701 28.281 35.762" fill="white"/>
<path d="M28.3267 37.3262C28.2005 37.3303 28.0743 37.3187 27.951 37.2915L27.6022 37.2299C27.4764 37.2071 27.3536 37.1695 27.2366 37.1178C27.1776 37.0913 27.1205 37.0606 27.0658 37.0259L26.9157 36.9297L26.3163 36.5395C26.2172 36.4722 26.1239 36.3952 26.0277 36.3206C25.9314 36.246 25.8443 36.1614 25.7525 36.0801C25.0316 35.4131 24.5145 34.5555 24.2611 33.6066C24.1346 33.1339 24.0742 32.6459 24.0817 32.1565C24.0812 32.0344 24.0871 31.9124 24.0995 31.7909C24.107 31.6682 24.1208 31.546 24.1409 31.4247C24.1831 31.1826 24.2443 30.9442 24.3241 30.7117C24.4063 30.4833 24.5027 30.2603 24.6128 30.0439C24.7181 29.8284 24.8365 29.6186 24.9616 29.4127C25.0867 29.2068 25.2223 29.0081 25.3667 28.8156C25.511 28.6232 25.6524 28.4351 25.8165 28.2542C25.9796 28.0686 26.1705 27.9094 26.3822 27.7822C26.4372 27.7488 26.4948 27.7198 26.5544 27.6956C26.6246 27.664 26.7025 27.6533 26.7786 27.6648C26.8001 27.669 26.8208 27.6763 26.8402 27.6864C26.8613 27.6943 26.8807 27.7064 26.897 27.722C26.9357 27.7534 26.9613 27.7982 26.9686 27.8476C26.977 27.9238 26.9626 28.0008 26.9273 28.0689C26.8712 28.18 26.8038 28.285 26.7262 28.3821C26.6901 28.4302 26.6521 28.4784 26.6213 28.5202L26.5174 28.6645L26.0902 29.2299C25.8165 29.6043 25.6144 30.0261 25.4941 30.474C25.3761 30.9243 25.3152 31.3875 25.3128 31.8529C25.3034 32.3184 25.3519 32.7832 25.4571 33.2366C25.552 33.6859 25.7449 34.1088 26.0219 34.475C26.3073 34.8367 26.6414 35.1569 27.0148 35.4267C27.1863 35.5557 27.3873 35.6397 27.5996 35.6712C27.8118 35.7026 28.0285 35.6804 28.23 35.6066L28.3262 35.9165C28.0757 35.9907 27.8113 36.0053 27.5541 35.9593C27.2999 35.9109 27.061 35.8021 26.8575 35.6422C26.4759 35.343 26.1345 34.9956 25.8419 34.6088C25.5546 34.2133 25.3575 33.7595 25.2647 33.2795C25.1687 32.8093 25.1261 32.3298 25.1377 31.85C25.1419 31.3703 25.2066 30.8929 25.3301 30.4293C25.4582 29.9636 25.671 29.5255 25.9579 29.137C26.1022 28.9446 26.2504 28.7637 26.3846 28.5727L26.4847 28.4283C26.5207 28.3754 26.5578 28.3297 26.592 28.284C26.6613 28.1964 26.7207 28.1014 26.769 28.0006C26.7878 27.9632 26.7962 27.9216 26.7935 27.8798C26.7937 27.8773 26.7934 27.8748 26.7924 27.8725C26.7915 27.8702 26.7901 27.8681 26.7882 27.8664C26.7882 27.862 26.7829 27.8601 26.7786 27.8572C26.7743 27.8543 26.7488 27.8428 26.7392 27.8404C26.6442 27.8495 26.5538 27.8857 26.4789 27.9448C26.2913 28.0709 26.1245 28.2255 25.9844 28.4028C25.84 28.5799 25.7097 28.7738 25.5774 28.9686C25.4451 29.1635 25.3282 29.3593 25.218 29.5628C25.1078 29.7663 25.0073 29.9756 24.9106 30.1883C24.8138 30.396 24.7284 30.6088 24.6546 30.8257C24.5151 31.2582 24.4418 31.7093 24.4372 32.1637C24.4283 32.6197 24.4827 33.0747 24.5988 33.5157C24.8352 34.4029 25.3067 35.2097 25.9637 35.851C26.0488 35.9275 26.1306 36.0074 26.2182 36.082C26.3057 36.1566 26.3938 36.2263 26.4885 36.2956L27.0625 36.6983L27.2068 36.7993C27.2506 36.8298 27.2966 36.8569 27.3444 36.8806C27.4418 36.9279 27.5445 36.9634 27.6503 36.9865C27.7605 37.0125 27.8779 37.0346 27.9962 37.0635C28.1021 37.0935 28.2114 37.1096 28.3214 37.1116L28.3267 37.3262Z" fill="#040505"/>
<path d="M35.8071 30.2306C35.8325 30.8464 36.0159 31.4454 36.3397 31.9698C36.7837 32.5356 37.184 33.1216 37.5765 33.7244C38.1413 34.5905 38.7186 35.6744 39.4475 36.2816C40.0656 36.7964 40.9508 36.1291 41.5604 36.041C41.7047 35.3651 40.8613 35.0408 40.5746 35.0985C39.9656 35.2207 38.4579 32.5096 37.9566 31.696C37.7284 31.2366 37.613 30.7295 37.6198 30.2166C37.6536 29.6403 37.6365 29.0622 37.5688 28.4889" fill="white"/>
<path d="M35.8573 30.2224C35.9173 30.6049 36.0061 30.9824 36.1229 31.3516C36.1864 31.5259 36.2758 31.6897 36.3879 31.8375L36.7564 32.2927C37.2443 32.9124 37.7003 33.5556 38.1352 34.2114C38.5326 34.8583 39.003 35.4573 39.5371 35.9968C39.5693 36.0242 39.6059 36.0618 39.6333 36.0815C39.6596 36.1015 39.6869 36.1202 39.7151 36.1373C39.7733 36.1688 39.8367 36.1896 39.9022 36.1989C40.0612 36.2146 40.2216 36.1982 40.3742 36.1508C40.5449 36.1051 40.7225 36.0406 40.9086 35.9732C41.1077 35.8945 41.3144 35.8366 41.5254 35.8005L41.3195 35.993C41.3356 35.9328 41.3382 35.8699 41.3272 35.8086C41.3162 35.7473 41.2919 35.6892 41.256 35.6384C41.1646 35.5183 41.0422 35.4255 40.9019 35.3699C40.832 35.3399 40.7586 35.3189 40.6835 35.3074L40.6383 35.304H40.6233H40.6157L40.5854 35.3064C40.5416 35.3118 40.4972 35.31 40.454 35.3011C40.417 35.2954 40.3809 35.2847 40.3467 35.2694C40.2381 35.2225 40.1382 35.1574 40.0513 35.0769C39.9741 35.0079 39.901 34.9343 39.8325 34.8566C39.5779 34.5571 39.3453 34.2397 39.1363 33.9068C38.9256 33.5816 38.7279 33.2501 38.534 32.9172L37.9567 31.9198C37.9086 31.8361 37.8605 31.7601 37.8124 31.661C37.7707 31.5694 37.7344 31.4754 37.7037 31.3795C37.644 31.1909 37.5709 31.0066 37.5209 30.8123C37.4696 30.6159 37.4512 30.4123 37.4665 30.2099L37.4987 29.6388C37.5103 29.4464 37.5218 29.2578 37.5262 29.0682C37.5372 28.881 37.5352 28.6932 37.5204 28.5063L37.6166 28.4798C37.7132 28.8595 37.7635 29.2494 37.7662 29.6412C37.772 29.8337 37.7758 30.0261 37.773 30.2186C37.773 30.3975 37.7951 30.577 37.8047 30.7622C37.8129 30.9485 37.8452 31.1328 37.9009 31.3107C37.9304 31.3971 37.9656 31.4815 38.0063 31.5633C38.0433 31.6364 38.1025 31.7192 38.1506 31.801L38.7592 32.7767C38.967 33.0976 39.1787 33.4156 39.4004 33.724C39.6147 34.0315 39.8509 34.3232 40.1072 34.5968C40.1687 34.6599 40.2339 34.7193 40.3025 34.7748C40.358 34.8232 40.4213 34.8619 40.4896 34.8893C40.4991 34.8942 40.5097 34.8967 40.5204 34.8965C40.5305 34.9003 40.5305 34.8965 40.5315 34.8965C40.5324 34.8965 40.5281 34.8965 40.5368 34.8965L40.5647 34.8926L40.6214 34.8859C40.6556 34.8859 40.6869 34.8859 40.7176 34.8859C40.8328 34.8964 40.946 34.9221 41.0544 34.9624C41.2765 35.0393 41.4728 35.1764 41.6216 35.3584C41.7013 35.4613 41.758 35.5802 41.7879 35.7069C41.8178 35.8336 41.8201 35.9653 41.7948 36.093L41.7606 36.2523L41.5889 36.2845C41.4157 36.3242 41.2465 36.3795 41.0833 36.4495C40.9033 36.5203 40.7157 36.5987 40.5093 36.6574C40.2875 36.7275 40.0537 36.7514 39.8224 36.7276C39.6938 36.711 39.5692 36.6717 39.4543 36.6117C39.3975 36.5803 39.3431 36.5449 39.2912 36.5058C39.2398 36.4688 39.2075 36.4356 39.1652 36.4C38.8631 36.12 38.5998 35.8007 38.3825 35.4507C38.1617 35.114 37.9635 34.7728 37.7677 34.4337C37.3828 33.7572 36.972 33.0937 36.5318 32.4524L36.1917 31.9713C36.0782 31.7984 35.9922 31.609 35.9367 31.4098C35.8453 31.0243 35.7836 30.6323 35.752 30.2373L35.8573 30.2224Z" fill="#040505"/>
<path d="M39.9816 18.7866C39.8999 18.8236 39.8253 18.8703 39.7411 18.9078C39.649 18.9492 39.5609 18.9989 39.478 19.0565C39.4024 19.1099 39.2721 19.1089 39.2283 19.2085C39.1321 19.4255 39.6006 19.6083 39.7012 19.7185C39.7531 19.7792 39.8089 19.8366 39.8681 19.8903C40.1397 20.1376 40.4281 20.3659 40.7312 20.5735C40.8829 20.6635 41.0507 20.723 41.2252 20.7486C41.3383 20.7693 41.4533 20.7856 41.5682 20.7967C41.6321 20.8066 41.6972 20.8056 41.7607 20.7938C41.9088 20.7457 41.8126 20.5114 41.7693 20.4161C41.7212 20.3132 41.6755 20.2093 41.6202 20.1101C41.5721 20.0226 41.5052 19.9523 41.4547 19.8696C41.3418 19.6673 41.2131 19.4743 41.0698 19.2922C40.9555 19.1283 40.808 18.9903 40.6369 18.8871C40.5378 18.8405 40.4354 18.8014 40.3304 18.7702C40.2163 18.7312 40.0916 18.7371 39.9816 18.7866Z" fill="#CF7852"/>
<path d="M39.9952 18.8178C39.8658 18.8876 39.7316 18.9502 39.607 19.0199C39.5762 19.0382 39.5459 19.0574 39.5166 19.0776C39.4842 19.1012 39.4483 19.1196 39.4102 19.132C39.3395 19.1565 39.2779 19.1801 39.2659 19.234C39.2598 19.2629 39.2622 19.2928 39.2727 19.3204C39.2832 19.3479 39.3014 19.3719 39.3251 19.3894C39.3758 19.4382 39.4316 19.4814 39.4915 19.5184L39.6791 19.6381C39.7379 19.6856 39.7932 19.7372 39.8446 19.7926C40.0582 19.9884 40.2906 20.1751 40.522 20.3483C40.6346 20.435 40.7557 20.5103 40.8833 20.573C41.0135 20.6259 41.1505 20.6601 41.2903 20.6745L41.5044 20.6985C41.5715 20.7087 41.6395 20.7124 41.7074 20.7096C41.7367 20.7072 41.7415 20.6995 41.7415 20.6985C41.746 20.6864 41.7476 20.6734 41.7463 20.6605C41.7391 20.5994 41.7217 20.5399 41.6949 20.4844C41.6319 20.3622 41.5727 20.2174 41.5068 20.1063C41.4702 20.0505 41.4216 19.9923 41.3788 19.9201L41.2677 19.73C41.1954 19.6062 41.1167 19.4862 41.0319 19.3706C40.9485 19.2551 40.8557 19.1466 40.7544 19.0464C40.7047 19.0004 40.6485 18.9621 40.5874 18.9328C40.522 18.9054 40.4566 18.8765 40.3916 18.8453C40.3328 18.8088 40.2659 18.7873 40.1968 18.7825C40.1277 18.7777 40.0586 18.7899 39.9952 18.8178V18.8178ZM39.9678 18.7567C40.0395 18.7239 40.1171 18.7059 40.1959 18.704C40.2747 18.7021 40.3531 18.7163 40.4263 18.7457C40.4984 18.7673 40.5706 18.7909 40.6427 18.8154C40.7173 18.8437 40.7865 18.8846 40.8472 18.9362C40.961 19.037 41.0661 19.1472 41.1614 19.2658C41.2582 19.3816 41.3464 19.5044 41.425 19.6333L41.5409 19.8219C41.5741 19.8763 41.6208 19.9312 41.667 19.9971C41.7445 20.1293 41.8142 20.2661 41.8758 20.4065C41.9115 20.4845 41.9332 20.5682 41.9397 20.6538C41.9439 20.7149 41.9247 20.7753 41.8859 20.8227C41.8648 20.8449 41.8394 20.8627 41.8113 20.875C41.7832 20.8874 41.753 20.8939 41.7223 20.8944C41.643 20.8954 41.5639 20.8883 41.4861 20.8732L41.2629 20.8376C41.1104 20.8144 40.9621 20.7697 40.8222 20.7048C40.6886 20.6318 40.562 20.5466 40.4441 20.4503C40.2118 20.2664 39.989 20.071 39.7763 19.8648C39.7293 19.8109 39.6788 19.7601 39.6253 19.7127C39.569 19.6713 39.505 19.6329 39.4434 19.591C39.3787 19.5495 39.3187 19.5011 39.2645 19.4467C39.2351 19.4167 39.2111 19.3819 39.1937 19.3437C39.1758 19.3002 39.1744 19.2516 39.1899 19.2071C39.2046 19.1628 39.2355 19.1258 39.2765 19.1036C39.3112 19.085 39.3476 19.0699 39.3852 19.0584C39.4175 19.0488 39.4479 19.0339 39.4752 19.0141C39.5065 18.993 39.5387 18.9732 39.5714 18.9545C39.7032 18.8828 39.8369 18.8236 39.9678 18.7558V18.7567Z" fill="#040505"/>
<path d="M41.531 20.4099C41.4629 20.3931 41.3986 20.3636 41.3415 20.3228C41.2221 20.2339 41.1138 20.1308 41.0192 20.0158C40.9061 19.8898 40.7902 19.7661 40.6872 19.6285C40.5918 19.4969 40.5041 19.3599 40.4246 19.2181C40.4143 19.1994 40.4053 19.1799 40.3976 19.1599C40.3798 19.1171 40.3813 19.1118 40.4212 19.0849C40.4734 19.0563 40.5279 19.0323 40.5843 19.0132C40.6412 18.9863 40.7028 18.9709 40.7656 18.968C40.91 18.968 41.0028 19.0892 41.1024 19.2047C41.1707 19.2841 41.2385 19.3639 41.303 19.4486C41.4467 19.639 41.5783 19.8383 41.697 20.0452C41.7555 20.1413 41.797 20.2468 41.8197 20.357C41.8139 20.4181 41.7639 20.4152 41.7211 20.4128C41.6782 20.4104 41.6364 20.4176 41.5907 20.4171C41.5706 20.4165 41.5507 20.4141 41.531 20.4099V20.4099Z" fill="white"/>
<path d="M41.5263 20.4402C41.3495 20.3809 41.1939 20.2714 41.0784 20.1251C40.9567 19.9933 40.8431 19.8533 40.7248 19.7181C40.666 19.6499 40.6138 19.5762 40.5689 19.4982L40.4217 19.2716C40.3948 19.232 40.3731 19.1892 40.3572 19.1441C40.354 19.1331 40.3536 19.1215 40.3562 19.1103C40.3588 19.0992 40.3643 19.0889 40.3722 19.0806C40.382 19.0708 40.393 19.0623 40.4049 19.0551C40.4254 19.0419 40.4469 19.0305 40.4693 19.0209C40.5535 18.9808 40.6422 18.9509 40.7335 18.9319C40.7837 18.9275 40.8343 18.9344 40.8815 18.9524C40.9286 18.9703 40.9711 18.9987 41.0057 19.0353C41.0701 19.0997 41.131 19.1675 41.1881 19.2384C41.3074 19.3741 41.4198 19.5157 41.5248 19.6627C41.6337 19.8091 41.7302 19.9642 41.8135 20.1265C41.8345 20.1689 41.8522 20.2128 41.8664 20.2579C41.8747 20.2838 41.8797 20.3106 41.8813 20.3377C41.8828 20.3586 41.8787 20.3795 41.8696 20.3983C41.8605 20.4171 41.8466 20.4332 41.8293 20.445C41.7997 20.4602 41.7657 20.4646 41.7331 20.4575C41.71 20.4542 41.6889 20.4542 41.6667 20.4522C41.6197 20.4518 41.5727 20.4478 41.5263 20.4402V20.4402ZM41.5388 20.3801C41.5817 20.3855 41.6251 20.3845 41.6677 20.3772C41.7086 20.37 41.7735 20.3685 41.7697 20.3599C41.7644 20.3632 41.7663 20.3555 41.7634 20.3474C41.7589 20.331 41.7534 20.315 41.7471 20.2992C41.7327 20.2617 41.7158 20.2218 41.699 20.1828C41.6254 20.0308 41.5282 19.8749 41.4368 19.7253C41.3429 19.5748 41.2384 19.4312 41.1241 19.2956C41.011 19.1648 40.9047 18.9892 40.7426 19.0094C40.6586 19.0263 40.5767 19.0528 40.4987 19.0883C40.4799 19.096 40.4617 19.1051 40.4443 19.1157C40.437 19.12 40.4301 19.125 40.4236 19.1306C40.4236 19.134 40.4236 19.1195 40.4236 19.1306C40.4373 19.1699 40.4557 19.2074 40.4785 19.2422L40.6199 19.4679C40.6642 19.5449 40.7158 19.6176 40.7739 19.6849C40.8908 19.8191 41.0029 19.9572 41.1236 20.088C41.2315 20.2228 41.3755 20.3241 41.5388 20.3801V20.3801Z" fill="#040505"/>
<path d="M35.1489 23.863C35.4496 24.0848 35.9894 23.8654 36.2958 23.7528C36.6916 23.6026 37.0505 23.3689 37.3479 23.0677C37.6327 22.7834 37.8232 22.3903 38.1855 22.193C38.2602 22.2255 38.3325 22.2631 38.402 22.3056C38.4943 22.3503 38.593 22.3805 38.6945 22.3951C38.8926 22.4191 39.0934 22.41 39.2886 22.3681C39.5395 22.3382 39.7849 22.2734 40.0179 22.1757C40.2233 22.0948 40.4095 21.972 40.5647 21.8151C40.72 21.6582 40.8408 21.4707 40.9195 21.2645C41.0638 20.7376 40.7612 20.3787 40.4244 20.027C40.2551 19.8519 40.0742 19.6884 39.8827 19.5377C39.6923 19.3835 39.4718 19.2706 39.2353 19.2064C38.9988 19.1421 38.7516 19.1278 38.5093 19.1644C38.2635 19.1969 38.0309 19.2948 37.8357 19.4477C37.6328 19.5617 37.4801 19.7479 37.4081 19.9693C37.342 20.203 37.3111 20.4452 37.3162 20.6881C37.3102 20.8259 37.3333 20.9634 37.384 21.0916C37.4347 21.2199 37.512 21.336 37.6106 21.4324C37.5053 21.582 37.4182 21.7018 37.3123 21.8529C37.1365 22.1966 36.8784 22.4915 36.5609 22.7112C36.4676 22.7617 36.3752 22.8074 36.2867 22.8603" fill="#CF7852"/>
<path d="M35.1759 23.8259C35.2868 23.8951 35.4182 23.9237 35.5478 23.9067C35.6838 23.8932 35.8177 23.8642 35.9471 23.8201C36.2121 23.7392 36.4672 23.6288 36.7077 23.4911C36.9438 23.3488 37.1591 23.1746 37.3475 22.9734C37.5318 22.7723 37.6785 22.5279 37.8907 22.3224C37.9441 22.271 38.0017 22.224 38.0629 22.1819C38.0778 22.1709 38.0942 22.1612 38.111 22.1516L38.135 22.1372L38.1471 22.13H38.15C38.16 22.1253 38.1707 22.1222 38.1817 22.1208C38.1898 22.1195 38.1981 22.1195 38.2062 22.1208H38.2144C38.2528 22.1354 38.2899 22.1535 38.3251 22.1747L38.416 22.2257C38.4446 22.2398 38.474 22.2523 38.504 22.2632C38.5634 22.2868 38.6254 22.303 38.6888 22.3113C38.8224 22.3259 38.9573 22.3259 39.0909 22.3113C39.1577 22.304 39.2239 22.2925 39.2892 22.2767C39.3599 22.2608 39.4301 22.2478 39.4989 22.2349C39.6319 22.2143 39.7623 22.1798 39.8881 22.1319C40.0101 22.0732 40.1282 22.0067 40.2417 21.9327C40.4717 21.8018 40.6581 21.606 40.7776 21.3698C40.8316 21.2546 40.8593 21.1288 40.8586 21.0015C40.858 20.8743 40.829 20.7488 40.7738 20.6342C40.6406 20.3991 40.4709 20.1867 40.271 20.0049C40.0779 19.8109 39.8666 19.6361 39.6398 19.4828C39.4142 19.3427 39.1566 19.2621 38.8913 19.2485C38.7577 19.2409 38.6237 19.2455 38.491 19.2625C38.3632 19.2804 38.2395 19.3204 38.1254 19.3808C38.007 19.4447 37.8943 19.5188 37.7887 19.6022C37.6871 19.6746 37.6046 19.7705 37.5481 19.8817C37.5 20.0032 37.4666 20.13 37.4485 20.2594C37.4299 20.3939 37.4206 20.5296 37.4206 20.6654C37.4197 20.7947 37.44 20.9233 37.4808 21.046C37.5121 21.1608 37.5767 21.2638 37.6665 21.3419L37.7511 21.4025L37.6925 21.4819L37.3985 21.8798L37.1099 22.2834C37.01 22.4237 36.8891 22.5477 36.7515 22.651C36.6095 22.7399 36.4623 22.8202 36.3108 22.8916L36.2627 22.8132C36.4055 22.7351 36.5438 22.649 36.6769 22.5553C36.7979 22.4525 36.9022 22.3316 36.9862 22.1968L37.2494 21.7778L37.5284 21.3674L37.5544 21.5074C37.4226 21.409 37.3272 21.2698 37.2831 21.1114C37.2349 20.9667 37.211 20.8151 37.2123 20.6625C37.2125 20.5177 37.2226 20.373 37.2426 20.2295C37.2635 20.0809 37.3027 19.9354 37.3595 19.7965C37.4304 19.656 37.534 19.5345 37.6617 19.4424C37.7769 19.3516 37.8999 19.2711 38.0292 19.2019C38.1643 19.1304 38.3108 19.083 38.4622 19.0619C38.6084 19.0431 38.7561 19.0379 38.9033 19.0465C39.2025 19.0633 39.4924 19.1556 39.7462 19.3149C39.8685 19.3939 39.9847 19.4819 40.094 19.5781C40.2027 19.6705 40.309 19.7672 40.4105 19.8668C40.6259 20.0652 40.8077 20.2973 40.9489 20.5538C41.017 20.6937 41.0519 20.8475 41.0509 21.0032C41.0476 21.1574 41.0136 21.3093 40.9508 21.4501C40.816 21.7199 40.6027 21.9425 40.3389 22.0886C40.2773 22.1266 40.2152 22.1627 40.1527 22.1973C40.0889 22.2345 40.0229 22.2676 39.955 22.2964C39.8172 22.3471 39.6745 22.3831 39.5292 22.4037C39.4599 22.4158 39.3916 22.4273 39.3247 22.4413C39.2531 22.4574 39.1804 22.4689 39.1073 22.4759C38.961 22.489 38.8137 22.4861 38.6681 22.4672C38.5923 22.4555 38.5183 22.4345 38.4477 22.4047C38.4119 22.3906 38.3769 22.3745 38.3429 22.3566L38.251 22.3027C38.2245 22.2873 38.1836 22.2652 38.174 22.2613C38.1801 22.2621 38.1862 22.2621 38.1923 22.2613C38.2013 22.2604 38.2099 22.2576 38.2178 22.2531H38.2154L38.2048 22.2594L38.1836 22.2719C38.1697 22.2801 38.1552 22.2878 38.1418 22.2974C38.0866 22.3342 38.0344 22.3754 37.9859 22.4206C37.7891 22.6044 37.6386 22.8449 37.4404 23.0561C37.2413 23.2627 37.0147 23.4408 36.7669 23.5854C36.517 23.7239 36.2524 23.8338 35.9779 23.913C35.8402 23.9574 35.6978 23.9858 35.5536 23.9977C35.4014 24.0144 35.2483 23.9773 35.1206 23.8928L35.1759 23.8259Z" fill="#040505"/>
<path d="M40.1525 21.4487C40.2412 21.3968 40.3258 21.3383 40.4056 21.2736C40.6011 21.1375 40.7619 20.9573 40.8751 20.7477C40.9129 20.636 40.9223 20.5166 40.9026 20.4003C40.8828 20.284 40.8345 20.1744 40.7621 20.0814C40.6455 19.8629 40.4783 19.6755 40.2744 19.535C40.0705 19.3945 39.8358 19.305 39.5902 19.274C39.2547 19.2627 38.9252 19.3644 38.6545 19.5627C38.3672 19.7118 38.1341 19.9475 37.9882 20.2363C37.9312 20.4319 37.9279 20.6393 37.9787 20.8366C38.0295 21.034 38.1325 21.214 38.2768 21.3578C38.3468 21.4756 38.4397 21.5782 38.5501 21.6594C38.8145 21.755 39.0981 21.7857 39.3769 21.7491C39.6558 21.7124 39.9217 21.6094 40.1525 21.4487Z" fill="white"/>
<path d="M40.1358 21.4174C40.2817 21.3223 40.4204 21.2165 40.5505 21.1008C40.6814 20.9918 40.7843 20.8531 40.8507 20.6962C40.8729 20.6168 40.8788 20.5337 40.8681 20.4519C40.8573 20.3701 40.8302 20.2914 40.7882 20.2204C40.7054 20.0693 40.6041 19.9292 40.4866 19.8033C40.2639 19.544 39.9501 19.3803 39.61 19.3462C39.2706 19.3363 38.9386 19.4473 38.6734 19.6594C38.5304 19.7497 38.3988 19.8568 38.2813 19.9784C38.1715 20.0933 38.0932 20.2344 38.0537 20.3883C38.0355 20.5488 38.0519 20.7114 38.1017 20.8651C38.1515 21.0187 38.2335 21.16 38.3424 21.2793C38.3972 21.351 38.4473 21.4285 38.4954 21.4877C38.542 21.5456 38.6026 21.5908 38.6714 21.619C38.8237 21.6815 38.9882 21.7085 39.1525 21.6979C39.4973 21.6802 39.8336 21.5843 40.1358 21.4174V21.4174ZM40.1724 21.48C39.8679 21.6787 39.5226 21.8064 39.1621 21.8538C38.9727 21.874 38.7812 21.8506 38.6022 21.7855C38.5554 21.7662 38.5102 21.7433 38.467 21.7172C38.4238 21.688 38.3845 21.6534 38.3501 21.6142C38.2827 21.5396 38.2375 21.4675 38.1836 21.4001C38.0665 21.2542 37.9709 21.0921 37.8998 20.919C37.822 20.7357 37.8033 20.5327 37.8464 20.3383C37.8947 20.1481 37.9946 19.975 38.135 19.8379C38.2679 19.7099 38.4159 19.5986 38.5757 19.5064C38.7299 19.4071 38.8952 19.3264 39.0683 19.2659C39.2465 19.2064 39.4353 19.1857 39.6221 19.2052C39.9921 19.2523 40.33 19.4397 40.5659 19.7287C40.685 19.8655 40.7879 20.0156 40.8724 20.1761C40.9187 20.2586 40.9479 20.3495 40.9583 20.4435C40.9686 20.5375 40.9599 20.6326 40.9325 20.7232C40.8592 20.8918 40.7463 21.0404 40.6035 21.1562C40.4681 21.2748 40.324 21.383 40.1724 21.48V21.48Z" fill="#040505"/>
<path d="M39.2834 20.9719C39.1959 20.9593 39.0795 20.9377 39.0333 20.8487C39.0042 20.7983 38.9912 20.7402 38.9961 20.6822C39.001 20.6243 39.0236 20.5692 39.0607 20.5244C39.0937 20.497 39.1336 20.4793 39.1761 20.4731C39.2186 20.467 39.2619 20.4728 39.3013 20.4898C39.5658 20.5648 39.4682 20.714 39.4562 20.7751C39.4451 20.8439 39.4571 20.9978 39.2834 20.9719Z" fill="#040505"/>
<path d="M24.3959 44.2499C24.3988 44.9234 21.3041 45.0153 20.9038 45.024C19.002 45.0719 17.0992 44.9957 15.2073 44.7959C15.1395 44.7887 15.0529 45.101 15.0322 45.0986C17.6165 45.4064 20.2281 45.4077 22.8127 45.1024C23.4963 45.0153 24.5787 44.8657 24.5749 43.9622C24.5749 44.0103 24.3979 44.1546 24.3984 44.2508L24.3959 44.2499Z" fill="#040505"/>
<path d="M5.77686 36.9965C7.2435 37.0424 8.70871 37.0191 10.1725 36.9268C10.2547 36.9215 10.3081 36.6266 10.3471 36.6241C8.88238 36.7162 7.41717 36.7395 5.95148 36.6939C5.87643 36.6915 5.80716 36.9975 5.77686 36.9965Z" fill="#040505"/>
<path d="M12.9146 33.0701H14.288C14.3655 33.0701 14.4324 32.767 14.4631 32.767H13.0897C13.0122 32.767 12.9453 33.0701 12.915 33.0701H12.9146Z" fill="#040505"/>
<path d="M9.1035 33.1322C9.5786 33.189 10.0598 33.1663 10.5275 33.0653C10.6189 33.0456 10.6492 32.7738 10.7021 32.7622C10.2344 32.8632 9.75323 32.8858 9.27814 32.8291C9.21127 32.8214 9.12275 33.1341 9.10303 33.1317L9.1035 33.1322Z" fill="#040505"/>
<path d="M10.6818 44.4972L9.46029 44.4746C9.40497 44.4746 9.31597 44.6695 9.29143 44.7099C9.27989 44.7296 9.16587 44.974 9.17212 44.974L10.3936 44.9966C10.4489 44.9966 10.5379 44.8042 10.5629 44.7614C10.574 44.7421 10.6885 44.4972 10.6822 44.4972H10.6818Z" fill="#040505"/>
<path d="M6.48124 44.9282L6.20174 44.8801C6.15363 44.8719 6.05164 45.0817 6.03288 45.1154C5.98544 45.1998 5.94552 45.2881 5.91357 45.3795L6.19308 45.4276C6.24119 45.4358 6.34318 45.2261 6.36242 45.1924C6.40976 45.1079 6.44968 45.0196 6.48173 44.9282H6.48124Z" fill="#040505"/>
<path d="M0 39.9776C2.56428 40.092 5.13312 40.051 7.69245 39.8549C7.77712 39.8472 7.82523 39.5561 7.86708 39.5518C5.30777 39.7481 2.7389 39.789 0.174627 39.6744C0.0990981 39.6744 0.030308 39.978 0 39.9776Z" fill="#040505"/>
<path d="M22.7722 35.8288C22.315 35.4268 21.8371 35.049 21.3405 34.6968C20.8868 34.3383 20.5381 33.8587 20.1186 33.4608C19.646 33.0283 19.1513 32.6207 18.6363 32.2397C18.2124 31.8962 17.7605 31.5887 17.2855 31.3203C16.9915 31.1644 16.5971 30.9257 16.3498 31.2827C16.2908 31.402 16.2588 31.5328 16.2561 31.6659C16.2533 31.7989 16.2799 31.9309 16.3339 32.0525C16.5369 32.7189 17.0175 33.2419 17.2768 33.8808C17.537 34.5325 17.7493 35.2024 17.9118 35.8851C17.9397 35.9987 17.946 36.0997 17.984 36.2137C18.0129 36.3003 18.0138 36.4822 18.0975 36.5409" fill="#52C0D2"/>
<path d="M22.7421 35.8597C22.2951 35.4986 21.8294 35.1614 21.3469 34.8493C20.8943 34.4853 20.4677 34.0902 20.0702 33.6667C19.8638 33.4796 19.6415 33.2996 19.4169 33.1269C19.1922 32.9542 18.9574 32.7901 18.7337 32.6107C18.2962 32.2508 17.8389 31.9156 17.3641 31.6066C17.1589 31.4576 16.9277 31.3483 16.6824 31.2842C16.6449 31.2821 16.6076 31.2909 16.5751 31.3097C16.5372 31.333 16.5052 31.3648 16.4818 31.4026C16.4287 31.4973 16.4086 31.607 16.4245 31.7144C16.4389 31.8453 16.4673 31.9744 16.5092 32.0993C16.552 32.2299 16.6034 32.3575 16.6631 32.4813C16.7834 32.7329 16.9326 32.9778 17.074 33.2323C17.2221 33.4863 17.3457 33.7539 17.443 34.0314C17.4911 34.1681 17.5392 34.3052 17.5873 34.4428C17.6362 34.58 17.692 34.7145 17.7547 34.846C17.813 34.9794 17.8578 35.1183 17.8885 35.2607C17.9245 35.4012 17.9553 35.5431 17.9847 35.6855C17.9996 35.7577 18.0111 35.825 18.0236 35.903C18.0361 35.9809 18.039 36.0502 18.0501 36.1152C18.091 36.248 18.0679 36.4327 18.1261 36.5029L18.078 36.5742C18.0111 36.5198 17.9661 36.4431 17.9515 36.3581C17.9409 36.3225 17.9322 36.2869 17.9212 36.2581C17.9066 36.2248 17.8939 36.1907 17.8832 36.1561C17.8601 36.081 17.8456 36.0088 17.8269 35.9448L17.7624 35.7428L17.6354 35.3329C17.5882 35.1978 17.5509 35.0595 17.5238 34.9191C17.5012 34.7773 17.4667 34.6376 17.4208 34.5015C17.3727 34.3672 17.3198 34.234 17.2659 34.1017C17.1624 33.8386 17.0335 33.5863 16.8811 33.3482C16.5163 32.8735 16.2521 32.3293 16.1046 31.749C16.0721 31.5699 16.0996 31.385 16.183 31.2231C16.2312 31.1355 16.299 31.0602 16.3812 31.0033C16.4702 30.9432 16.5746 30.9098 16.6819 30.907C16.8565 30.9119 17.0278 30.9563 17.1827 31.0369L17.3824 31.1332C17.4492 31.1664 17.5156 31.201 17.5815 31.2371C18.0847 31.5369 18.5669 31.8706 19.0248 32.2359C19.2567 32.4081 19.476 32.6006 19.6939 32.795C19.9119 32.9893 20.124 33.19 20.329 33.406C20.6875 33.8511 21.0764 34.271 21.4927 34.6627C21.9529 35.0132 22.3915 35.3913 22.806 35.7947L22.7421 35.8597Z" fill="#040505"/>
<path d="M62.6996 39.8596C62.7051 39.9907 62.6794 40.1213 62.6246 40.2406C62.5699 40.3599 62.4875 40.4644 62.3845 40.5457C62.1411 40.7252 61.8432 40.8155 61.5411 40.8012C61.2119 40.8166 60.8826 40.7705 60.5703 40.665V40.4244C60.8743 40.5387 61.1979 40.5916 61.5224 40.5798C61.7627 40.5921 62.0001 40.5225 62.1959 40.3826C62.2751 40.3233 62.3389 40.2459 62.3819 40.1568C62.425 40.0677 62.446 39.9696 62.4432 39.8707C62.4473 39.7567 62.4182 39.6441 62.3594 39.5464C62.2896 39.4478 62.197 39.3674 62.0896 39.3121C61.9138 39.2203 61.7303 39.1443 61.5411 39.085C61.2709 39.0113 61.0206 38.8778 60.8089 38.6943C60.736 38.6099 60.6807 38.5118 60.646 38.4057C60.6114 38.2997 60.5982 38.1879 60.6071 38.0767C60.6161 37.9655 60.647 37.8572 60.6982 37.758C60.7493 37.6589 60.8197 37.5709 60.9051 37.4992C61.1282 37.3282 61.4041 37.2407 61.685 37.2519C61.9989 37.2489 62.3101 37.3106 62.599 37.4333L62.5124 37.6412C62.2528 37.5284 61.9733 37.4683 61.6903 37.4646C61.473 37.4537 61.2585 37.5168 61.0817 37.6436C61.0084 37.6999 60.9497 37.773 60.9105 37.8567C60.8713 37.9404 60.8528 38.0323 60.8566 38.1247C60.8526 38.2336 60.877 38.3417 60.9273 38.4384C60.9837 38.5299 61.0623 38.6056 61.1558 38.6587C61.3293 38.7532 61.5113 38.8312 61.6994 38.8916C61.9114 38.9578 62.1153 39.0479 62.307 39.1601C62.4289 39.233 62.531 39.3347 62.6043 39.4564C62.6703 39.5804 62.7031 39.7192 62.6996 39.8596V39.8596Z" fill="black" stroke="black" stroke-width="0.5"/>
<path d="M64.8848 40.7897C64.7139 40.8023 64.5429 40.7679 64.3902 40.6901C64.2376 40.6123 64.1091 40.4942 64.0189 40.3486H64.0025L64.0102 40.5468C64.0166 40.6635 64.0201 40.7918 64.0208 40.9317L64.0242 41.9093H63.7903L63.7778 38.1811H63.9765L64.0246 38.5472H64.0386C64.1291 38.4086 64.2551 38.2966 64.4035 38.2231C64.5519 38.1496 64.7172 38.1172 64.8824 38.1291C65.0318 38.1192 65.1814 38.1445 65.3192 38.203C65.457 38.2615 65.5791 38.3515 65.6757 38.4659C65.8771 38.7559 65.9745 39.1056 65.9518 39.458C65.9749 39.8084 65.8747 40.1558 65.6685 40.44C65.5738 40.5549 65.4538 40.6464 65.3178 40.7071C65.1818 40.7678 65.0336 40.7961 64.8848 40.7897V40.7897ZM64.8795 40.5819C64.9976 40.5871 65.1151 40.5629 65.2215 40.5114C65.3279 40.4599 65.4198 40.3828 65.489 40.287C65.6454 40.044 65.7201 39.7574 65.7022 39.4691C65.6996 38.715 65.426 38.3389 64.8814 38.3408C64.7601 38.3307 64.6381 38.3478 64.5243 38.3908C64.4104 38.4338 64.3076 38.5018 64.2233 38.5896C64.0634 38.8259 63.9901 39.1103 64.016 39.3945V39.47C63.9909 39.7708 64.0627 40.0718 64.2209 40.3288C64.3033 40.4195 64.4058 40.4896 64.5202 40.5336C64.6345 40.5775 64.7576 40.5941 64.8795 40.5819V40.5819Z" fill="black" stroke="black" stroke-width="0.5"/>
<path d="M68.6855 40.7295L68.6249 40.3235H68.6062C68.5013 40.4684 68.3658 40.5885 68.2093 40.6752C68.0594 40.7473 67.8945 40.7831 67.7282 40.7796C67.5147 40.7931 67.3041 40.7242 67.1399 40.5871C67.0683 40.5183 67.0123 40.4348 66.9758 40.3424C66.9392 40.25 66.923 40.1509 66.9282 40.0516C66.9241 39.9356 66.9507 39.8205 67.0052 39.7179C67.0598 39.6154 67.1404 39.529 67.239 39.4676C67.5139 39.3106 67.8271 39.2335 68.1434 39.2448L68.6322 39.2289V39.0586C68.6454 38.8628 68.5923 38.6683 68.4816 38.5063C68.4212 38.4403 68.3463 38.3893 68.2628 38.3572C68.1793 38.3252 68.0895 38.313 68.0005 38.3215C67.7418 38.3277 67.4884 38.3966 67.262 38.5222L67.174 38.3196C67.434 38.1914 67.7193 38.1227 68.0091 38.1185C68.1238 38.1091 68.2392 38.1236 68.348 38.161C68.4568 38.1985 68.5567 38.258 68.6413 38.336C68.7971 38.5284 68.8727 38.7734 68.8525 39.0201L68.8583 40.7271L68.6855 40.7295ZM67.7402 40.5679C67.8593 40.5778 67.9791 40.5615 68.0912 40.5202C68.2034 40.4788 68.305 40.4134 68.3892 40.3285C68.4733 40.2436 68.5377 40.1413 68.578 40.0288C68.6184 39.9163 68.6336 39.7963 68.6225 39.6773V39.4247L68.1742 39.4449C67.9077 39.4407 67.644 39.4994 67.4044 39.6162C67.3294 39.6628 67.2684 39.7289 67.2281 39.8074C67.1877 39.886 67.1695 39.9741 67.1754 40.0622C67.1718 40.1316 67.1832 40.2009 67.2088 40.2654C67.2345 40.33 67.2738 40.3882 67.3241 40.4361C67.4413 40.5307 67.5899 40.5778 67.7402 40.5679V40.5679Z" fill="black" stroke="black" stroke-width="0.5"/>
<path d="M71.1544 40.7684C70.9941 40.7776 70.8338 40.7515 70.6847 40.6921C70.5356 40.6327 70.4013 40.5413 70.2913 40.4244C70.0687 40.153 69.9564 39.8078 69.9767 39.4574C69.9531 39.0974 70.0675 38.742 70.2966 38.4634C70.4092 38.3431 70.5466 38.2488 70.6993 38.1869C70.8519 38.125 71.0162 38.097 71.1808 38.105C71.3986 38.1032 71.6148 38.1416 71.8187 38.218L71.7557 38.4259C71.5702 38.3595 71.3753 38.3228 71.1784 38.3171C71.0448 38.3085 70.911 38.3305 70.7872 38.3814C70.6634 38.4324 70.5528 38.5109 70.464 38.6111C70.2876 38.8543 70.2025 39.1519 70.2235 39.4516C70.2072 39.743 70.2943 40.0307 70.4693 40.2642C70.5527 40.3621 70.6575 40.4393 70.7757 40.4899C70.8939 40.5404 71.0222 40.563 71.1505 40.5558C71.3732 40.557 71.5938 40.5137 71.7995 40.4283V40.6458C71.5964 40.7346 71.3759 40.7766 71.1544 40.7684Z" fill="black" stroke="black" stroke-width="0.5"/>
<path d="M73.8404 40.7593C73.6787 40.7689 73.5168 40.7433 73.366 40.6843C73.2151 40.6252 73.0789 40.5341 72.9667 40.4172C72.7437 40.1478 72.6308 39.8041 72.6507 39.4549C72.6316 39.1019 72.7373 38.7534 72.9494 38.4706C73.0467 38.3495 73.1709 38.2529 73.3122 38.1883C73.4534 38.1238 73.6077 38.0931 73.7629 38.0987C73.8984 38.0922 74.0336 38.1171 74.1579 38.1715C74.2822 38.2259 74.3921 38.3084 74.4793 38.4124C74.6663 38.6583 74.76 38.9626 74.7439 39.2712V39.4602L72.8955 39.4665C72.8791 39.7566 72.9676 40.043 73.1447 40.2733C73.2324 40.3683 73.3402 40.4424 73.4602 40.4903C73.5803 40.5382 73.7095 40.5586 73.8385 40.55C73.9675 40.5508 74.0963 40.54 74.2233 40.5177C74.3676 40.4865 74.5085 40.4418 74.6443 40.384V40.5966C74.5158 40.655 74.3813 40.6987 74.2431 40.727C74.1101 40.7499 73.9753 40.7607 73.8404 40.7593V40.7593ZM73.7639 38.3055C73.653 38.3013 73.5424 38.3212 73.4399 38.3637C73.3373 38.4062 73.2452 38.4704 73.1698 38.5519C73.0067 38.7513 72.9152 38.9997 72.91 39.2572L74.4976 39.2519C74.5113 39.0042 74.4422 38.7589 74.3013 38.5548C74.2388 38.4728 74.1574 38.4073 74.0641 38.3636C73.9708 38.32 73.8683 38.2995 73.7653 38.3041L73.7639 38.3055Z" fill="black" stroke="black" stroke-width="0.5"/>
<path d="M77.4971 40.0319C77.502 40.1349 77.4807 40.2375 77.4352 40.3301C77.3897 40.4226 77.3215 40.5021 77.2369 40.5611C77.0145 40.6987 76.7551 40.7644 76.4941 40.7492C76.213 40.763 75.9327 40.7097 75.6763 40.5938V40.3413C75.9299 40.469 76.2101 40.5349 76.4941 40.5337C76.6947 40.5456 76.8947 40.5011 77.0714 40.4052C77.131 40.3716 77.1806 40.3227 77.215 40.2635C77.2494 40.2043 77.2674 40.1369 77.2672 40.0685C77.2675 40.0057 77.2534 39.9437 77.2259 39.8872C77.1985 39.8307 77.1584 39.7813 77.1089 39.7427C76.9523 39.6285 76.7777 39.5413 76.5922 39.4849C76.4042 39.424 76.2227 39.3443 76.0506 39.2472C75.9563 39.19 75.8758 39.1128 75.8148 39.0211C75.7595 38.9281 75.7318 38.8213 75.735 38.7131C75.7324 38.6228 75.7533 38.5333 75.7954 38.4533C75.8375 38.3733 75.8995 38.3056 75.9755 38.2566C76.1778 38.1334 76.4125 38.0742 76.649 38.0867C76.9196 38.0844 77.1879 38.1364 77.4379 38.2397L77.3514 38.4524C77.1296 38.3561 76.8912 38.3041 76.6495 38.2994C76.4772 38.2915 76.3059 38.3278 76.1516 38.4047C76.0968 38.4305 76.0504 38.4713 76.018 38.5224C75.9855 38.5736 75.9683 38.6329 75.9683 38.6934C75.9662 38.7543 75.9781 38.8149 76.0032 38.8704C76.0282 38.926 76.0656 38.9751 76.1126 39.0138C76.2839 39.1315 76.4725 39.2216 76.6716 39.2809C76.8474 39.3383 77.0169 39.4132 77.1777 39.5046C77.2732 39.5613 77.3546 39.639 77.4158 39.7317C77.4709 39.822 77.4991 39.9261 77.4971 40.0319V40.0319Z" fill="black" stroke="black" stroke-width="0.5"/>
<path d="M81.0603 40.527C81.1896 40.5282 81.3187 40.5151 81.4452 40.488V40.6771C81.3186 40.7174 81.1864 40.7371 81.0536 40.7353C80.9618 40.7433 80.8695 40.7313 80.7828 40.7003C80.6961 40.6692 80.6172 40.6198 80.5514 40.5554C80.4294 40.3911 80.3713 40.1882 80.3878 39.9843L80.382 38.3268H80.002V38.1897L80.382 38.0824L80.4979 37.5012H80.6182V38.1224L81.3716 38.1199V38.323L80.6182 38.3254L80.6235 39.9501C80.6128 40.103 80.6498 40.2555 80.7293 40.3865C80.7684 40.4357 80.8191 40.4743 80.8769 40.4989C80.9348 40.5234 80.9978 40.5331 81.0603 40.527V40.527Z" fill="black" stroke="black" stroke-width="0.5"/>
<path d="M84.2562 40.6766L84.2504 39.0119C84.2675 38.8105 84.2088 38.61 84.0859 38.4495C84.0185 38.3866 83.9386 38.3386 83.8514 38.3086C83.7642 38.2786 83.6717 38.2673 83.5798 38.2753C83.4574 38.2649 83.3341 38.2804 83.218 38.3209C83.102 38.3613 82.9957 38.4258 82.9063 38.5101C82.7451 38.7272 82.6699 38.9962 82.6951 39.2655L82.6999 40.6824H82.4661L82.4536 37.0085H82.6874L82.6912 38.1772L82.6807 38.5053H82.697C82.7823 38.3599 82.9084 38.2428 83.0597 38.1685C83.2313 38.0935 83.4172 38.0574 83.6043 38.0627C84.1868 38.0607 84.4791 38.3722 84.4813 38.997L84.4871 40.6756L84.2562 40.6766Z" fill="black" stroke="black" stroke-width="0.5"/>
<path d="M87.2979 40.6665L87.2373 40.2609H87.219C87.1142 40.4058 86.9789 40.5259 86.8226 40.6126C86.6726 40.6846 86.5078 40.7203 86.3415 40.717C86.128 40.7307 85.9173 40.6618 85.7531 40.5246C85.6815 40.4558 85.6256 40.3724 85.5891 40.2801C85.5525 40.1878 85.5363 40.0887 85.5415 39.9895C85.5373 39.8735 85.5639 39.7583 85.6185 39.6558C85.673 39.5533 85.7537 39.4669 85.8522 39.4055C86.1271 39.2485 86.4403 39.1714 86.7567 39.1827L87.2454 39.1668V38.997C87.2587 38.8012 87.2056 38.6067 87.0949 38.4447C87.0345 38.3787 86.9596 38.3277 86.8761 38.2956C86.7926 38.2636 86.7028 38.2513 86.6138 38.2599C86.355 38.2664 86.1016 38.3354 85.8753 38.461L85.7873 38.258C86.0473 38.1299 86.3326 38.0612 86.6225 38.0569C86.7372 38.0474 86.8527 38.0619 86.9616 38.0993C87.0705 38.1367 87.1704 38.1963 87.2551 38.2744C87.4104 38.467 87.4858 38.7119 87.4658 38.9585L87.4716 40.6655L87.2979 40.6665ZM86.3531 40.5044C86.4722 40.5143 86.592 40.498 86.7042 40.4566C86.8163 40.4152 86.918 40.3497 87.0021 40.2648C87.0863 40.1798 87.1507 40.0775 87.191 39.9649C87.2313 39.8524 87.2464 39.7324 87.2353 39.6133V39.3607L86.787 39.3814C86.5205 39.3771 86.2568 39.4358 86.0173 39.5527C85.9422 39.5993 85.8813 39.6654 85.8411 39.744C85.8008 39.8225 85.7827 39.9106 85.7887 39.9987C85.7851 40.068 85.7965 40.1374 85.8221 40.2019C85.8478 40.2664 85.8871 40.3246 85.9374 40.3725C86.0545 40.4671 86.2029 40.5142 86.3531 40.5044V40.5044Z" fill="black" stroke="black" stroke-width="0.5"/>
<path d="M89.4261 40.4985C89.5554 40.4998 89.6845 40.4867 89.8109 40.4596V40.6482C89.6844 40.6885 89.5521 40.7082 89.4193 40.7064C89.3276 40.7144 89.2352 40.7025 89.1485 40.6715C89.0618 40.6404 88.9828 40.5909 88.9171 40.5264C88.7953 40.3623 88.7371 40.1596 88.7535 39.9558L88.7482 38.2984H88.3682V38.1613L88.7482 38.0535L88.8642 37.4723H88.9844V38.0934L89.7373 38.091V38.294L88.984 38.2964L88.9892 39.9212C88.9786 40.074 89.0153 40.2264 89.0946 40.3576C89.1337 40.4068 89.1845 40.4456 89.2424 40.4702C89.3003 40.4948 89.3635 40.5046 89.4261 40.4985V40.4985Z" fill="black" stroke="black" stroke-width="0.5"/>
<path d="M94.6425 40.6419L94.0749 38.9272C94.0383 38.8111 93.9913 38.6405 93.9339 38.4153H93.9209L93.8728 38.59L93.7675 38.9325L93.1993 40.6472H92.9679L92.2251 38.0829H92.4753L92.8914 39.569C92.9876 39.9369 93.0518 40.2073 93.0838 40.3802H93.0978C93.1892 40.0117 93.2561 39.7668 93.2984 39.6455L93.8223 38.0781H94.0349L94.543 39.6369C94.6575 40.0067 94.7275 40.2513 94.7532 40.3706H94.7676C94.7798 40.2683 94.8418 39.994 94.9538 39.5479L95.3387 38.0732H95.5749L94.8869 40.6419H94.6425Z" fill="black" stroke="black" stroke-width="0.5"/>
<path d="M98.6463 39.3415C98.6687 39.6946 98.5616 40.0437 98.3452 40.3235C98.241 40.442 98.1115 40.5355 97.9662 40.5971C97.821 40.6588 97.6637 40.6869 97.5061 40.6795C97.2962 40.6843 97.0894 40.6284 96.9106 40.5184C96.735 40.406 96.5971 40.2436 96.5146 40.0522C96.4188 39.8304 96.3714 39.5908 96.3756 39.3492C96.3527 38.9967 96.4598 38.648 96.6767 38.3692C96.7806 38.2516 96.9095 38.1588 97.054 38.0976C97.1984 38.0364 97.3547 38.0084 97.5115 38.0156C97.6676 38.0074 97.8236 38.0348 97.9676 38.096C98.1115 38.1571 98.2397 38.2502 98.3423 38.3682C98.5572 38.6456 98.6652 38.9911 98.6463 39.3415V39.3415ZM96.6205 39.3483C96.6039 39.6416 96.6868 39.932 96.8557 40.1724C96.9384 40.2653 97.0399 40.3396 97.1534 40.3903C97.267 40.441 97.39 40.467 97.5143 40.4666C97.6387 40.4662 97.7615 40.4394 97.8747 40.3879C97.9879 40.3365 98.0889 40.2615 98.171 40.1681C98.3381 39.9265 98.419 39.6357 98.4005 39.3425C98.4176 39.049 98.3338 38.7585 98.1628 38.5193C98.083 38.4227 97.9816 38.3463 97.8667 38.2962C97.7519 38.246 97.6269 38.2236 97.5018 38.2306C97.3773 38.2243 97.2531 38.2476 97.1395 38.2987C97.0258 38.3498 96.9259 38.4272 96.848 38.5246C96.6816 38.7659 96.6014 39.0563 96.6205 39.3488V39.3483Z" fill="black" stroke="black" stroke-width="0.5"/>
<path d="M100.798 38.0049C100.915 38.0053 101.032 38.0159 101.148 38.0366L101.103 38.2613C100.994 38.2346 100.883 38.2215 100.77 38.2223C100.665 38.2215 100.561 38.2467 100.467 38.2955C100.373 38.3443 100.293 38.4153 100.233 38.5023C100.088 38.7076 100.015 38.9554 100.025 39.2067L100.03 40.6231H99.7963L99.7876 38.0563H99.9858L100.011 38.5192H100.027C100.105 38.3609 100.221 38.224 100.364 38.1203C100.494 38.0405 100.645 38.0004 100.798 38.0049V38.0049Z" fill="black" stroke="black" stroke-width="0.5"/>
<path d="M102.384 39.4892L103.689 38.0459H103.973L102.966 39.1443L104.069 40.6117H103.788L102.808 39.3189L102.39 39.7038L102.393 40.6179H102.159L102.146 36.9441H102.38L102.387 38.7858L102.373 39.4916L102.384 39.4892Z" fill="black" stroke="black" stroke-width="0.5"/>
<path d="M107.667 38.2344H107.063L107.07 40.5982H106.838L106.831 38.2344H106.354V38.0973L106.831 38.0083V37.8096C106.811 37.566 106.871 37.3225 107.002 37.1163C107.073 37.0376 107.161 36.9764 107.259 36.9378C107.357 36.8991 107.463 36.8839 107.569 36.8936C107.713 36.8935 107.856 36.9146 107.994 36.9561L107.94 37.1591C107.819 37.121 107.692 37.1015 107.565 37.1014C107.492 37.0943 107.418 37.1055 107.35 37.1339C107.283 37.1624 107.223 37.2073 107.177 37.2645C107.089 37.4249 107.049 37.6078 107.065 37.7904V38.0309H107.669L107.667 38.2344Z" fill="black" stroke="black" stroke-width="0.5"/>
<path d="M110.698 39.3011C110.72 39.6542 110.613 40.0032 110.396 40.283C110.292 40.4014 110.163 40.4949 110.017 40.5564C109.872 40.618 109.715 40.6461 109.557 40.6386C109.347 40.6433 109.141 40.5874 108.962 40.4774C108.786 40.3652 108.648 40.2027 108.566 40.0112C108.47 39.7895 108.422 39.5498 108.426 39.3083C108.403 38.9557 108.511 38.607 108.728 38.3282C108.831 38.2107 108.96 38.118 109.105 38.0569C109.249 37.9958 109.406 37.9678 109.562 37.9751C109.718 37.9668 109.875 37.9942 110.019 38.0553C110.163 38.1165 110.291 38.2096 110.393 38.3277C110.609 38.6051 110.717 38.9506 110.698 39.3011V39.3011ZM108.672 39.3078C108.656 39.6013 108.739 39.8918 108.907 40.1324C108.99 40.2253 109.092 40.2996 109.205 40.3503C109.319 40.401 109.442 40.427 109.566 40.4266C109.691 40.4261 109.813 40.3992 109.927 40.3477C110.04 40.2962 110.141 40.2211 110.223 40.1276C110.39 39.886 110.471 39.5949 110.453 39.3015C110.47 39.008 110.386 38.7175 110.215 38.4783C110.135 38.3816 110.034 38.3051 109.919 38.255C109.804 38.2048 109.679 38.1824 109.554 38.1897C109.429 38.1832 109.305 38.2064 109.191 38.2576C109.078 38.3087 108.978 38.3862 108.9 38.4836C108.733 38.7249 108.653 39.0153 108.672 39.3078V39.3078Z" fill="black" stroke="black" stroke-width="0.5"/>
<path d="M112.85 37.9645C112.967 37.9648 113.084 37.9754 113.199 37.9963L113.156 38.221C113.046 38.1944 112.935 38.1813 112.822 38.182C112.717 38.1812 112.612 38.2063 112.519 38.2553C112.425 38.3042 112.345 38.3753 112.285 38.4625C112.14 38.6678 112.066 38.9155 112.077 39.1669L112.082 40.5833H111.848L111.839 38.0165H112.038L112.063 38.4793H112.079C112.157 38.321 112.273 38.1841 112.416 38.0805C112.546 38.0006 112.697 37.9603 112.85 37.9645V37.9645Z" fill="black" stroke="black" stroke-width="0.5"/>
<path d="M115.515 38.0049H115.755L116.303 39.4435C116.47 39.8851 116.575 40.1831 116.62 40.3374H116.635C116.699 40.134 116.806 39.8306 116.955 39.4271L117.493 37.9991H117.734L116.594 40.9855C116.536 41.1579 116.458 41.3229 116.362 41.4772C116.305 41.5578 116.229 41.6238 116.142 41.6696C116.046 41.7149 115.942 41.7372 115.836 41.7346C115.734 41.7331 115.633 41.7169 115.536 41.6865V41.4834C115.633 41.509 115.732 41.5215 115.832 41.5205C115.906 41.5217 115.98 41.5016 116.044 41.4627C116.112 41.4175 116.169 41.3571 116.21 41.2862C116.278 41.1655 116.335 41.039 116.381 40.908C116.445 40.7354 116.487 40.6232 116.506 40.5712L115.515 38.0049Z" fill="black" stroke="black" stroke-width="0.5"/>
<path d="M120.732 39.2673C120.754 39.6204 120.647 39.9695 120.43 40.2493C120.326 40.3677 120.196 40.4612 120.051 40.5227C119.906 40.5843 119.749 40.6123 119.591 40.6048C119.381 40.6096 119.174 40.5537 118.995 40.4437C118.82 40.3314 118.682 40.169 118.6 39.9775C118.504 39.7558 118.456 39.5161 118.46 39.2746C118.437 38.922 118.544 38.5733 118.761 38.2945C118.865 38.177 118.994 38.0843 119.138 38.0232C119.283 37.9621 119.439 37.9341 119.596 37.9414C119.752 37.9331 119.908 37.9606 120.052 38.0217C120.196 38.0828 120.324 38.176 120.427 38.294C120.642 38.5713 120.75 38.9168 120.732 39.2673V39.2673ZM118.706 39.2741C118.689 39.5676 118.772 39.8581 118.941 40.0987C119.024 40.1917 119.125 40.266 119.239 40.3167C119.352 40.3675 119.475 40.3935 119.6 40.3931C119.724 40.3927 119.847 40.3659 119.96 40.3144C120.073 40.2628 120.174 40.1879 120.256 40.0944C120.424 39.8528 120.505 39.5617 120.486 39.2683C120.504 38.9748 120.42 38.6843 120.249 38.4451C120.169 38.3485 120.068 38.272 119.953 38.2218C119.838 38.1717 119.713 38.1493 119.588 38.1564C119.464 38.15 119.339 38.1733 119.226 38.2244C119.112 38.2755 119.012 38.353 118.934 38.4504C118.767 38.6915 118.687 38.9817 118.706 39.2741Z" fill="black" stroke="black" stroke-width="0.5"/>
<path d="M122.081 37.9823L122.087 39.6446C122.07 39.8461 122.129 40.0467 122.252 40.2071C122.319 40.27 122.399 40.318 122.486 40.348C122.574 40.378 122.666 40.3894 122.758 40.3812C122.88 40.3914 123.003 40.3759 123.119 40.3357C123.235 40.2955 123.342 40.2315 123.431 40.1479C123.594 39.932 123.67 39.6631 123.645 39.394L123.64 37.9775H123.872L123.88 40.5443H123.682L123.638 40.1902H123.624C123.525 40.3305 123.391 40.442 123.234 40.5131C123.078 40.5842 122.906 40.6124 122.735 40.5948C122.151 40.5968 121.858 40.2853 121.856 39.6605L121.851 37.9838L122.081 37.9823Z" fill="black" stroke="black" stroke-width="0.5"/>
</g>
<defs>
<clipPath id="clip0_4198_10817">
<rect width="124" height="29" fill="white" transform="translate(0 18)"/>
</clipPath>
</defs>
</svg>
