<svg width="122" height="48" viewBox="0 0 122 48" fill="none" xmlns="http://www.w3.org/2000/svg">
<path d="M52.0385 26.0491C52.0385 31.8011 47.5387 36.0397 42.0165 36.0397C36.4942 36.0397 31.9944 31.8011 31.9944 26.0491C31.9944 20.2566 36.4942 16.0586 42.0165 16.0586C47.5387 16.0586 52.0385 20.2566 52.0385 26.0491ZM47.6514 26.0491C47.6514 22.4547 45.0434 19.9954 42.0165 19.9954C38.9896 19.9954 36.3816 22.4547 36.3816 26.0491C36.3816 29.6075 38.9896 32.1029 42.0165 32.1029C45.0434 32.1029 47.6514 29.603 47.6514 26.0491Z" fill="#EA4335"/>
<path d="M73.6599 26.0491C73.6599 31.8011 69.1601 36.0397 63.6378 36.0397C58.1155 36.0397 53.6157 31.8011 53.6157 26.0491C53.6157 20.2611 58.1155 16.0586 63.6378 16.0586C69.1601 16.0586 73.6599 20.2566 73.6599 26.0491ZM69.2727 26.0491C69.2727 22.4547 66.6647 19.9954 63.6378 19.9954C60.6109 19.9954 58.0029 22.4547 58.0029 26.0491C58.0029 29.6075 60.6109 32.1029 63.6378 32.1029C66.6647 32.1029 69.2727 29.603 69.2727 26.0491Z" fill="#FBBC05"/>
<path d="M94.3799 16.6622V34.5983C94.3799 41.9764 90.0287 44.9898 84.8848 44.9898C80.0427 44.9898 77.1284 41.7512 76.0293 39.1026L79.849 37.5126C80.5291 39.1387 82.1957 41.0575 84.8803 41.0575C88.1729 41.0575 90.2134 39.0261 90.2134 35.2019V33.765H90.0603C89.0783 34.9767 87.1865 36.0352 84.7992 36.0352C79.8039 36.0352 75.2275 31.684 75.2275 26.0852C75.2275 20.4458 79.8039 16.0586 84.7992 16.0586C87.182 16.0586 89.0738 17.1171 90.0603 18.2927H90.2134V16.6667H94.3799V16.6622ZM90.5242 26.0852C90.5242 22.5673 88.1775 19.9954 85.1911 19.9954C82.1642 19.9954 79.6283 22.5673 79.6283 26.0852C79.6283 29.567 82.1642 32.1029 85.1911 32.1029C88.1775 32.1029 90.5242 29.567 90.5242 26.0852Z" fill="#4285F4"/>
<path d="M101.25 6.14941V35.4274H96.9707V6.14941H101.25Z" fill="#34A853"/>
<path d="M117.922 29.3379L121.327 31.6081C120.228 33.2341 117.579 36.0358 113.003 36.0358C107.328 36.0358 103.089 31.6486 103.089 26.0452C103.089 20.1041 107.364 16.0547 112.512 16.0547C117.697 16.0547 120.233 20.1806 121.061 22.4103L121.516 23.5454L108.161 29.0766C109.183 31.0811 110.773 32.1035 113.003 32.1035C115.237 32.1035 116.787 31.0045 117.922 29.3379ZM107.44 25.7435L116.368 22.0364C115.877 20.7887 114.399 19.9194 112.661 19.9194C110.431 19.9194 107.328 21.8878 107.44 25.7435Z" fill="#EA4335"/>
<path d="M15.798 23.4504V19.2119H30.0812C30.2208 19.9506 30.2929 20.8244 30.2929 21.7703C30.2929 24.9503 29.4235 28.8826 26.6219 31.6843C23.8967 34.522 20.4149 36.0354 15.8025 36.0354C7.25333 36.0354 0.0644531 29.0718 0.0644531 20.5226C0.0644531 11.9734 7.25333 5.00977 15.8025 5.00977C20.532 5.00977 23.9013 6.86554 26.4327 9.28435L23.4418 12.2752C21.6266 10.5726 19.1672 9.24832 15.798 9.24832C9.55503 9.24832 4.67236 14.2796 4.67236 20.5226C4.67236 26.7656 9.55503 31.7969 15.798 31.7969C19.8474 31.7969 22.1536 30.1708 23.631 28.6934C24.8291 27.4953 25.6174 25.7836 25.9282 23.4459L15.798 23.4504Z" fill="#4285F4"/>
</svg>
