<svg width="220" height="48" viewBox="0 0 220 48" fill="none" xmlns="http://www.w3.org/2000/svg">
<path d="M80.4985 41H1.33731C0.723438 41 0.370523 40.3764 0.781387 39.9203C2.09819 38.4585 4.5127 36.7791 6.21867 36.7791C8.91548 36.7791 9.30074 38.6977 11.6123 38.6977C15.4649 38.6977 19.7027 25.6512 26.2522 25.6512C32.8016 25.6512 32.8016 33.3256 40.1215 33.3256C47.4414 33.3256 50.5235 8 60.9255 8C70.0502 8 79.1749 26.942 82.0754 39.0501C82.3171 40.0591 81.5361 41 80.4985 41Z" fill="#553C9A"/>
<path d="M92.7341 34.4578H95.6835V27.8619C95.6835 24.9929 97.185 23.4646 99.1423 23.4646C100.858 23.4646 101.931 24.7516 101.931 26.8698V34.4578H104.88V26.3872C104.88 22.982 102.869 20.7834 99.759 20.7834C98.0162 20.7834 96.4879 21.5341 95.6835 22.8748V14.3484H92.7341V34.4578Z" fill="#131520"/>
<path d="M111.818 16.1448C111.818 15.0723 110.96 14.1875 109.861 14.1875C108.788 14.1875 107.876 15.0723 107.876 16.1448C107.876 17.2441 108.788 18.1289 109.861 18.1289C110.96 18.1289 111.818 17.2441 111.818 16.1448ZM108.386 34.4578H111.335V21.0515H108.386V34.4578Z" fill="#131520"/>
<path d="M115.03 34.4578H117.98V27.8619C117.98 25.0466 119.294 23.4646 121.197 23.4646C122.806 23.4646 123.584 24.8321 123.584 26.9234V34.4578H126.533V27.8619C126.533 25.0466 127.82 23.4646 129.724 23.4646C131.332 23.4646 132.11 24.8321 132.11 26.9234V34.4578H135.059V26.4408C135.059 23.0088 133.263 20.7834 130.233 20.7834C128.463 20.7834 126.747 21.7218 125.943 23.4378C125.219 21.7754 123.771 20.7834 121.787 20.7834C120.071 20.7834 118.731 21.6146 117.98 22.8748V21.0515H115.03V34.4578Z" fill="#131520"/>
<path d="M137.598 27.7546C137.598 31.5888 140.387 34.7259 144.06 34.7259C145.991 34.7259 147.599 33.7338 148.35 32.6613V34.4578H151.3V21.0515H148.35V22.8479C147.599 21.7754 145.991 20.7834 144.06 20.7834C140.387 20.7834 137.598 23.9204 137.598 27.7546ZM148.591 27.7546C148.591 30.1678 146.983 32.0446 144.596 32.0446C142.21 32.0446 140.601 30.1678 140.601 27.7546C140.601 25.3415 142.21 23.4646 144.596 23.4646C146.983 23.4646 148.591 25.3415 148.591 27.7546Z" fill="#131520"/>
<path d="M155.027 34.4578H157.976V14.3484H155.027V34.4578Z" fill="#131520"/>
<path d="M160.706 27.7546C160.706 31.5888 163.495 34.7259 167.168 34.7259C169.099 34.7259 170.707 33.7338 171.458 32.6613V34.4578H174.408V21.0515H171.458V22.8479C170.707 21.7754 169.099 20.7834 167.168 20.7834C163.495 20.7834 160.706 23.9204 160.706 27.7546ZM171.699 27.7546C171.699 30.1678 170.091 32.0446 167.704 32.0446C165.318 32.0446 163.709 30.1678 163.709 27.7546C163.709 25.3415 165.318 23.4646 167.704 23.4646C170.091 23.4646 171.699 25.3415 171.699 27.7546Z" fill="#131520"/>
<path d="M182.425 40.0616L191.032 21.0515H187.761L183.658 30.5431L179.529 21.0515H176.285L182.05 33.7338L179.181 40.0616H182.425Z" fill="#131520"/>
<path d="M191.539 27.7546C191.539 31.5888 194.327 34.7259 198 34.7259C199.931 34.7259 201.54 33.7338 202.29 32.6613V34.4578H205.24V21.0515H202.29V22.8479C201.54 21.7754 199.931 20.7834 198 20.7834C194.327 20.7834 191.539 23.9204 191.539 27.7546ZM202.532 27.7546C202.532 30.1678 200.923 32.0446 198.537 32.0446C196.15 32.0446 194.542 30.1678 194.542 27.7546C194.542 25.3415 196.15 23.4646 198.537 23.4646C200.923 23.4646 202.532 25.3415 202.532 27.7546Z" fill="#131520"/>
<path d="M218.942 30.7576C218.942 28.7199 217.789 27.3256 215.376 26.7089L213.123 26.1191C211.997 25.8241 211.327 25.3683 211.327 24.5103C211.327 23.6523 212.158 23.1429 213.284 23.1429C214.33 23.1429 215.215 23.6791 215.483 24.8053H218.432C218.218 22.3921 216.207 20.7834 213.311 20.7834C210.308 20.7834 208.324 22.2849 208.324 24.5371C208.324 26.4944 209.45 27.9959 211.756 28.5858L213.954 29.1757C215.349 29.5243 215.939 30.0337 215.939 30.9453C215.939 31.8569 215.054 32.3664 213.767 32.3664C212.453 32.3664 211.246 31.8301 211.005 30.3823H207.948C208.109 33.0635 210.549 34.7259 213.686 34.7259C216.689 34.7259 218.942 33.3584 218.942 30.7576Z" fill="#131520"/>
</svg>
