<svg width="175" height="48" viewBox="0 0 175 48" fill="none" xmlns="http://www.w3.org/2000/svg">
<path fill-rule="evenodd" clip-rule="evenodd" d="M79.9288 30.0566C78.7083 30.3381 78.077 29.9626 78.077 29.1542C78.077 28.0466 79.2222 27.6032 80.8583 27.6032C81.5779 27.6032 82.2568 27.6653 82.2568 27.6653C82.2568 28.1395 81.2265 29.7574 79.9288 30.0566ZM81.1706 18.9673C77.2639 18.9673 74.459 20.4039 74.459 20.4039V24.6271C74.459 24.6271 77.5558 22.8468 80.0682 22.8468C82.0725 22.8468 82.319 23.9283 82.2281 24.8255C82.2281 24.8255 81.6495 24.6725 79.8854 24.6725C75.727 24.6725 73.6287 26.5624 73.6287 29.5923C73.6287 32.4666 75.9871 33.6677 77.9746 33.6677C80.874 33.6677 82.1492 31.7188 82.5404 30.7945C82.8125 30.1532 82.8626 29.7208 83.1059 29.7208C83.3853 29.7208 83.2913 30.031 83.2772 30.6691C83.2543 31.7872 83.3075 32.6322 83.4846 33.3445H87.3296V26.4282C87.3296 22.11 85.8016 18.9673 81.1706 18.9673Z" fill="#231F20"/>
<path fill-rule="evenodd" clip-rule="evenodd" d="M106.478 26.3248C106.478 25.0616 107.652 23.9111 109.808 23.9111C112.156 23.9111 114.046 25.0422 114.47 25.2992V20.4102C114.47 20.4102 112.977 18.973 109.309 18.973C105.442 18.973 102.221 21.2358 102.221 26.1065C102.221 30.9767 105.144 33.6777 109.298 33.6777C112.544 33.6777 114.478 31.8943 114.478 31.8943V27.2512C113.866 27.5933 112.161 28.7771 109.832 28.7771C107.365 28.7771 106.478 27.6424 106.478 26.3253L106.478 26.3248ZM55.0863 19.2931C55.0868 19.2963 55.3317 20.347 55.009 21.7209C54.8445 22.4197 54.5421 23.0139 54.9071 23.0139C55.1588 23.0139 55.1594 22.805 55.4868 22.0562C55.9657 20.9616 56.9751 18.9693 59.334 18.9693C61.5764 18.9693 62.6329 20.3318 62.9827 21.6076C63.2491 22.5768 63.0162 23.0139 63.341 23.0139C63.5718 23.0139 63.6517 22.511 63.9358 21.875C64.446 20.7355 65.5557 18.9693 67.8002 18.9693C71.1868 18.9693 72.4798 21.4149 72.4798 25.0835V33.3497H67.4488V25.729C67.4488 24.4584 67.2435 23.226 66.0852 23.226C65.0121 23.226 64.5118 25.1279 64.5118 26.3556V33.3528H59.3883V25.7295C59.3883 24.1038 59.159 23.2265 58.0164 23.2265C57.0273 23.2265 56.4503 24.9764 56.4503 26.3561V33.3502H51.3472V19.2931H55.0863ZM89.0044 19.3124C89.0065 19.3135 89.875 19.8143 91.5607 19.8143C93.2495 19.8143 94.107 19.3124 94.107 19.3124V33.3534H89.0044V19.3124ZM131.131 19.3124C131.133 19.3135 132.002 19.8143 133.688 19.8143C135.376 19.8143 136.234 19.3124 136.234 19.3124V33.3534H131.131V19.3124ZM100.861 15.0376V33.3534H95.7583V15.0376H100.861ZM120.534 15.0376C120.535 15.0391 120.746 15.5655 120.746 17.1311C120.746 19.443 120.243 21.3246 120.005 22.0416C119.88 22.4212 119.655 23.0071 119.977 23.0176C120.163 23.0233 120.275 22.7434 120.503 22.2578C120.729 21.7716 121.853 18.9725 124.807 18.9725C128.875 18.9725 129.474 22.3042 129.474 25.9123V33.3528H124.371V25.6068C124.371 24.0182 124.038 23.2291 122.973 23.2291C121.687 23.2291 121.233 25.2198 121.233 26.3593V33.3528H116.13V15.037H120.535L120.534 15.0376ZM141.697 19.2931C141.698 19.2963 141.943 20.347 141.62 21.7209C141.456 22.4197 141.153 23.0139 141.518 23.0139C141.77 23.0139 141.771 22.805 142.098 22.0562C142.576 20.9616 143.586 18.9693 145.945 18.9693C148.29 18.9693 149.22 20.3381 149.594 21.6076C149.845 22.4583 149.627 23.0139 149.952 23.0139C150.183 23.0139 150.263 22.511 150.547 21.875C151.056 20.7355 152.167 18.9693 154.411 18.9693C157.798 18.9693 159.091 21.4149 159.091 25.0835V33.3497H154.06V25.729C154.06 24.4584 153.855 23.226 152.696 23.226C151.623 23.226 151.122 25.1279 151.122 26.3556V33.3528H145.999V25.7295C145.999 24.1038 145.771 23.2265 144.628 23.2265C143.638 23.2265 143.061 24.9764 143.061 26.3561V33.3502H137.958V19.2931H141.697ZM91.5403 14.8955C89.8159 14.8955 88.4169 15.8084 88.4169 16.9343C88.4169 18.0602 89.8154 18.973 91.5403 18.973C93.2657 18.973 94.6642 18.0602 94.6642 16.9343C94.6642 15.8084 93.2662 14.8955 91.5403 14.8955ZM133.668 14.8955C131.943 14.8955 130.544 15.8084 130.544 16.9343C130.544 18.0602 131.942 18.973 133.668 18.973C135.393 18.973 136.792 18.0602 136.792 16.9343C136.792 15.8084 135.393 14.8955 133.668 14.8955Z" fill="#231F20"/>
<path fill-rule="evenodd" clip-rule="evenodd" d="M167.783 30.3245C166.614 30.3245 165.753 28.8409 165.753 26.7734C165.753 24.7655 166.637 23.2233 167.743 23.2233C169.162 23.2233 169.768 24.5252 169.768 26.7734C169.768 29.1124 169.209 30.3245 167.783 30.3245ZM169.183 18.9646C166.561 18.9646 165.359 20.9308 164.836 22.051C164.491 22.791 164.51 23.0087 164.257 23.0087C163.893 23.0087 164.195 22.4144 164.359 21.7157C164.683 20.3397 164.437 19.2884 164.437 19.2884H160.7V37.223H165.801V31.5371C166.404 32.5612 167.522 33.6552 169.246 33.6552C172.936 33.6552 174.792 30.5339 174.792 26.317C174.792 21.5376 172.57 18.9646 169.184 18.9646" fill="#231F20"/>
<path fill-rule="evenodd" clip-rule="evenodd" d="M33.3113 23.2091C33.6544 23.1684 33.9829 23.1663 34.2853 23.2091C34.4602 22.8081 34.49 22.1172 34.3328 21.3646C34.0994 20.246 33.7829 19.5693 33.1291 19.6747C32.4752 19.7802 32.4512 20.5907 32.6852 21.7088C32.8168 22.3381 33.0507 22.876 33.3113 23.2091Z" fill="#231F20"/>
<path fill-rule="evenodd" clip-rule="evenodd" d="M27.7001 24.0943C28.1675 24.2995 28.4552 24.4358 28.5675 24.3167C28.6401 24.2426 28.6181 24.1011 28.5064 23.9188C28.2756 23.5423 27.8009 23.16 27.2969 22.9454C26.2671 22.502 25.0383 22.6493 24.0905 23.3303C23.7777 23.5595 23.4811 23.877 23.5234 24.0697C23.5369 24.1319 23.5839 24.1789 23.6936 24.1945C23.9516 24.2238 24.8529 23.7684 25.8916 23.7047C26.6243 23.6598 27.2316 23.889 27.6995 24.0943" fill="#231F20"/>
<path fill-rule="evenodd" clip-rule="evenodd" d="M26.7595 24.6311C26.1501 24.7272 25.8143 24.9283 25.5987 25.1147C25.4148 25.2755 25.301 25.4536 25.302 25.5784C25.3026 25.638 25.3281 25.6724 25.3485 25.6897C25.3762 25.7142 25.4091 25.7278 25.4488 25.7278C25.5861 25.7278 25.8948 25.604 25.8948 25.604C26.7423 25.3006 27.3016 25.3377 27.8557 25.4004C28.1617 25.4348 28.3069 25.4536 28.3737 25.3487C28.3936 25.3184 28.4176 25.2531 28.3565 25.1539C28.2139 24.9225 27.5988 24.5314 26.7601 24.6311" fill="#231F20"/>
<path fill-rule="evenodd" clip-rule="evenodd" d="M31.4167 26.6015C31.8303 26.8046 32.2857 26.7247 32.434 26.4234C32.5823 26.1221 32.3671 25.7126 31.9535 25.5095C31.5399 25.3064 31.0846 25.3863 30.9363 25.6876C30.7879 25.9894 31.0031 26.3983 31.4167 26.6015Z" fill="#231F20"/>
<path fill-rule="evenodd" clip-rule="evenodd" d="M34.0753 24.2781C33.7395 24.2724 33.4607 24.6411 33.4528 25.1022C33.445 25.5633 33.7113 25.9409 34.0471 25.9466C34.3829 25.9523 34.6618 25.5837 34.6696 25.1225C34.6774 24.6619 34.4111 24.2839 34.0753 24.2781Z" fill="#231F20"/>
<path fill-rule="evenodd" clip-rule="evenodd" d="M11.5086 32.5861C11.4251 32.4811 11.2878 32.513 11.1546 32.5443C11.0616 32.5663 10.9567 32.5903 10.8413 32.5887C10.5942 32.584 10.3848 32.4785 10.2673 32.2978C10.1143 32.0628 10.1232 31.7124 10.2919 31.3114L10.3707 31.1317C10.6402 30.527 11.0909 29.5154 10.5848 28.5514C10.2036 27.8255 9.58218 27.3738 8.83489 27.2788C8.11736 27.1879 7.37894 27.4537 6.9079 27.9733C6.16478 28.7932 6.04832 29.9092 6.19193 30.3035C6.24468 30.4476 6.32719 30.4878 6.38672 30.4962C6.5131 30.5129 6.70005 30.421 6.81703 30.1061L6.85045 30.0037C6.90267 29.8371 6.99981 29.5269 7.15908 29.2784C7.35126 28.9786 7.64997 28.7723 8.0009 28.6966C8.3581 28.6198 8.72366 28.6882 9.02968 28.8888C9.55033 29.2293 9.75086 29.8674 9.5284 30.4758C9.41351 30.7907 9.22655 31.3928 9.26781 31.8874C9.35136 32.8885 9.96705 33.2906 10.5201 33.3334C11.058 33.3538 11.434 33.0514 11.529 32.831C11.5849 32.7005 11.5379 32.6211 11.5071 32.5871" fill="#231F20"/>
<path fill-rule="evenodd" clip-rule="evenodd" d="M16.6222 14.1987C18.3769 12.1715 20.5363 10.409 22.4711 9.4194C22.5379 9.38493 22.6089 9.45752 22.5729 9.52332C22.4194 9.80166 22.1233 10.3975 22.0298 10.8492C22.0152 10.9197 22.092 10.9725 22.1515 10.9323C23.3552 10.1119 25.4488 9.23244 27.2854 9.11964C27.3643 9.11494 27.4024 9.21573 27.3397 9.2643C27.0603 9.47841 26.7549 9.77503 26.5319 10.0748C26.4937 10.126 26.5298 10.1991 26.5935 10.1996C27.8828 10.209 29.7007 10.6602 30.8856 11.325C30.9655 11.3699 30.9086 11.525 30.8188 11.5046C29.026 11.0936 26.0916 10.7819 23.0429 11.5255C20.3216 12.1893 18.2442 13.2144 16.7293 14.3162C16.6525 14.3721 16.5606 14.2708 16.6227 14.1993L16.6222 14.1987ZM25.36 33.8405L25.3605 33.8415L25.3616 33.8436L25.36 33.8405ZM32.5948 34.6943C32.6471 34.6724 32.6826 34.6133 32.6768 34.5543C32.6695 34.4818 32.6047 34.429 32.5322 34.4363C32.5322 34.4363 28.7884 34.9904 25.2514 33.6958C25.6368 32.4435 26.6608 32.8958 28.2092 33.0206C31 33.1872 33.5014 32.7793 35.3501 32.2487C36.9517 31.7892 39.0557 30.8826 40.6898 29.5927C41.2407 30.8032 41.4355 32.1359 41.4355 32.1359C41.4355 32.1359 41.8621 32.0597 42.2188 32.279C42.5556 32.4864 42.8027 32.9172 42.634 34.0316C42.2904 36.1132 41.4057 37.8031 39.9184 39.3577C39.0129 40.3322 37.9142 41.1792 36.6567 41.7954C35.9887 42.1464 35.278 42.4498 34.5265 42.6947C28.92 44.5261 23.1808 42.513 21.3311 38.19C21.1833 37.8652 21.0585 37.5247 20.9603 37.1691C20.1723 34.3204 20.8412 30.9025 22.9332 28.7509V28.7499C23.0622 28.6131 23.1938 28.4517 23.1938 28.2485C23.1938 28.0788 23.0857 27.8997 22.9923 27.7723C22.2601 26.7106 19.7247 24.9016 20.2339 21.4007C20.5995 18.8857 22.799 17.1143 24.8498 17.2193L25.3694 17.249C26.2582 17.3018 27.0332 17.4156 27.7648 17.4464C28.9894 17.4997 30.0903 17.3216 31.3948 16.2349C31.8345 15.8683 32.1875 15.5503 32.7844 15.4495C32.8471 15.4385 33.0032 15.3826 33.315 15.3972C33.6335 15.4145 33.9364 15.5017 34.2085 15.6829C35.254 16.3785 35.4023 18.0637 35.4566 19.2961C35.4874 19.9996 35.5725 21.702 35.6018 22.1908C35.6681 23.3083 35.9621 23.4655 36.5564 23.6614C36.8906 23.7716 37.2008 23.8535 37.6583 23.982C39.0422 24.3705 39.8626 24.7648 40.3801 25.2714C40.6887 25.5878 40.8323 25.9241 40.8767 26.2448C41.0396 27.4354 39.9524 28.906 37.0734 30.2424C33.9265 31.703 30.1085 32.0728 27.4708 31.7787L26.5465 31.6743C24.4367 31.3902 23.233 34.1167 24.4994 35.9852C25.3156 37.1895 27.5387 37.9728 29.7628 37.9733C34.8623 37.9738 38.7821 35.7962 40.2401 33.9157L40.3566 33.7496C40.4286 33.6415 40.3691 33.582 40.2798 33.6431C39.0886 34.4583 33.7975 37.6944 28.1377 36.7205C28.1377 36.7205 27.4499 36.6072 26.8222 36.3633C26.3235 36.169 25.2791 35.6886 25.1522 34.6175C29.7195 36.0301 32.5953 34.6948 32.5953 34.6948L32.5948 34.6943ZM7.50793 23.84C5.91934 24.1486 4.51927 25.0489 3.66335 26.2928C3.15157 25.8662 2.19852 25.04 2.02984 24.7178C0.663195 22.1224 3.5213 17.0767 5.51827 14.2269C10.4532 7.18482 18.1821 1.85452 21.7598 2.82167C22.3416 2.98617 24.268 5.2197 24.268 5.2197C24.268 5.2197 20.6914 7.20414 17.3747 9.97033C12.9056 13.4112 9.53048 18.4125 7.50793 23.84ZM10.177 35.7492C9.93677 35.7904 9.69133 35.8066 9.4438 35.8004C7.0536 35.7361 4.47227 33.5846 4.21586 31.033C3.93229 28.2125 5.37362 26.0422 7.92518 25.5273C8.23016 25.4656 8.59884 25.4301 8.99625 25.451C10.4261 25.5293 12.5327 26.627 13.0137 29.7416C13.4398 32.4999 12.763 35.3079 10.177 35.7487V35.7492ZM42.5525 30.7547C42.5321 30.6821 42.3985 30.1949 42.2152 29.6074C42.0319 29.0193 41.8423 28.6063 41.8423 28.6063C42.5776 27.5059 42.5906 26.5216 42.4925 25.9643C42.388 25.2735 42.1003 24.6849 41.5206 24.076C40.9409 23.4676 39.755 22.8441 38.0886 22.3762L37.2144 22.1333C37.2102 22.0973 37.1684 20.0721 37.1308 19.2027C37.1031 18.5739 37.0494 17.5927 36.7449 16.6265C36.382 15.3184 35.7501 14.1737 34.961 13.4415C37.1387 11.1845 38.498 8.69769 38.4943 6.56494C38.4881 2.46291 33.4502 1.2216 27.2416 3.79248L25.9261 4.35074C25.9203 4.34499 23.5479 2.01746 23.5124 1.98613C16.4337 -4.18807 -5.69796 20.4121 1.37759 26.3868L2.92389 27.6971C2.52282 28.7363 2.36511 29.927 2.4941 31.2069C2.65912 32.8514 3.50721 34.4274 4.88221 35.6453C6.18724 36.8015 7.90324 37.5336 9.56808 37.532C12.3217 43.8775 18.6134 47.7701 25.9903 47.9895C33.9035 48.2245 40.5461 44.5115 43.3296 37.8417C43.5118 37.3738 44.2842 35.2646 44.2842 33.4023C44.2842 31.5312 43.2262 30.7557 42.5525 30.7557" fill="#231F20"/>
</svg>
