<svg width="80" height="48" viewBox="0 0 80 48" fill="none" xmlns="http://www.w3.org/2000/svg">
<path d="M8.81189 38.6835C6.43165 38.589 4.48426 37.9377 2.96156 36.728C2.67096 36.4969 1.97849 35.804 1.74618 35.5118C1.1287 34.7353 0.708896 33.9797 0.428888 33.1413C-0.432719 30.5606 0.0107156 27.174 1.69727 23.4573C3.14131 20.2754 5.36951 17.1195 9.25696 12.7487C9.8296 12.1056 11.5349 10.2246 11.5459 10.2246C11.55 10.2246 11.4571 10.3856 11.3401 10.5817C10.3293 12.2747 9.46442 14.269 8.99326 15.9955C8.2364 18.7657 8.32769 21.1431 9.26063 22.9866C9.90419 24.2566 11.0075 25.3566 12.2482 25.9647C14.4201 27.0289 17.6 27.117 21.4834 26.2223C21.7508 26.1604 34.9994 22.6434 50.925 18.4067C66.8505 14.1695 79.8828 10.7055 79.8848 10.7084C79.8893 10.7121 42.8851 26.5463 23.6757 34.761C20.6336 36.0616 19.8201 36.3901 18.3899 36.8922C14.734 38.1761 11.4591 38.7887 8.81189 38.6835Z" fill="black"/>
</svg>
