<svg width="124" height="64" viewBox="0 0 124 64" fill="none" xmlns="http://www.w3.org/2000/svg">
<g clip-path="url(#clip0_4198_20819)">
<path d="M10.2851 26.156H3V44.0099H4.48727V36.788H10.2851C14.0411 36.788 16.0325 34.6567 16.0325 31.472C16.0325 28.2874 14.0411 26.156 10.2851 26.156ZM10.2851 35.4591H4.48727V27.5101H10.2851C13.0075 27.5101 14.4948 28.9645 14.4948 31.472C14.4948 33.9796 13.0075 35.4591 10.2851 35.4591Z" fill="#4E50A7"/>
<path d="M17.3066 44.0099H18.7435V26.156H17.3066V44.0099Z" fill="#4E50A7"/>
<path d="M31.6676 42.8565C31.0374 42.8565 30.7349 42.5556 30.7349 41.9287V34.3559C30.7349 32.2746 29.4241 30.77 25.9958 30.77C22.3155 30.77 20.929 32.4 20.8534 34.9577H22.2398C22.3406 32.8262 23.4246 31.9987 25.9958 31.9987C28.4662 31.9987 29.3484 32.8764 29.3484 34.3559C29.3484 35.6347 28.7687 36.2366 26.9537 36.4622L24.9371 36.6879C21.5592 37.0891 20.2988 38.5436 20.2988 40.5997C20.2988 42.8816 21.8869 44.3109 24.685 44.3109C26.8781 44.3109 28.5166 43.4583 29.3989 41.8033V41.9788C29.3989 43.4082 30.0039 44.0852 31.4156 44.0852C31.7433 44.0852 32.0709 44.0601 32.3483 44.01V42.8565H31.6676ZM24.7606 43.1073C22.7188 43.1073 21.7861 42.0541 21.7861 40.5746C21.7861 39.02 22.6936 38.1674 25.1639 37.8665L27.1806 37.6157C28.2393 37.4904 28.92 37.2396 29.3484 36.8133V38.7692C29.3484 41.7782 27.1554 43.1073 24.7606 43.1073Z" fill="#4E50A7"/>
<path d="M41.2557 31.0708L38.9871 37.3398C38.3316 39.1201 37.7267 40.9005 37.1217 42.6809C36.4915 40.9256 35.8613 39.1201 35.2058 37.3398L32.8363 31.0708H31.2734L36.3907 44.361C36.2394 44.7872 36.0882 45.1885 35.9369 45.5646C35.4327 46.8936 34.7017 47.7462 33.3152 47.7462H32.2566V48.9248C32.6599 48.9749 32.9876 49 33.3405 49C35.3067 49 36.4663 48.0471 37.273 45.8655L42.7935 31.0708H41.2557Z" fill="#4E50A7"/>
<path d="M58.2021 30.3209V25.8574H44.0352V43.7113H58.2021V39.2478H49.0768V36.8406H57.3954V32.678H49.0768V30.3209H58.2021Z" fill="#4E50A7"/>
<path d="M67.4206 30.4714C65.53 30.4714 64.2445 31.3491 63.3622 32.4775V30.7723H58.8247V43.7114H63.463V36.5398C63.463 34.9851 64.4713 34.3833 65.5049 34.3833C66.8157 34.3833 67.2694 35.1105 67.2694 36.3141V43.7114H71.9077V35.3362C71.9077 32.0011 69.8911 30.4714 67.4206 30.4714Z" fill="#4E50A7"/>
<path d="M81.629 30.7723V32.3521C80.9231 31.2237 79.7635 30.4714 77.9486 30.4714C74.5707 30.4714 72.4028 33.1044 72.4028 36.8156C72.4028 40.5269 74.6715 43.2099 78.0494 43.2099C79.7384 43.2099 80.8223 42.5579 81.5281 41.5299V43.5359C81.5281 44.7395 80.8475 45.5419 79.4107 45.5419C78.0242 45.5419 77.3435 45.0153 77.2932 43.9622H72.7305C72.8314 46.871 74.9488 48.9272 79.2846 48.9272C83.6456 48.9272 86.1664 46.871 86.1664 43.3603V30.7723H81.629ZM79.335 39.5991C77.8729 39.5991 77.0663 38.7465 77.0663 36.9159C77.0663 35.0854 77.8729 34.0824 79.335 34.0824C80.797 34.0824 81.6037 34.9851 81.6037 36.8156C81.6037 38.6462 80.797 39.5991 79.335 39.5991Z" fill="#4E50A7"/>
<path d="M87.186 43.7113H91.8238V30.7722H87.186V43.7113Z" fill="#4E50A7"/>
<path d="M101.42 30.4714C99.5299 30.4714 98.2441 31.3491 97.3619 32.4775V30.7723H92.8242V43.7114H97.4628V36.5398C97.4628 34.9851 98.4711 34.3833 99.5046 34.3833C100.816 34.3833 101.269 35.1105 101.269 36.3141V43.7114H105.908V35.3362C105.908 32.0011 103.891 30.4714 101.42 30.4714Z" fill="#4E50A7"/>
<path d="M120.342 37.7434C120.342 33.1546 117.494 30.4714 113.359 30.4714C109.15 30.4714 106.402 33.1546 106.402 37.2419C106.402 41.3293 109.2 44.0123 113.41 44.0123C116.561 44.0123 119.308 42.4576 120.04 39.6241H115.704C115.25 40.3764 114.494 40.7525 113.41 40.7525C112.124 40.7525 111.116 40.0504 110.814 38.5709H120.342V37.7434ZM113.309 33.7313C114.645 33.7313 115.578 34.4334 115.881 35.8377H110.814C111.116 34.3331 112.074 33.7313 113.309 33.7313Z" fill="#4E50A7"/>
<path fill-rule="evenodd" clip-rule="evenodd" d="M90.4145 17.1313C90.7547 16.5652 91.4912 16.3805 92.0608 16.7187L93.288 17.4483C93.8569 17.7865 94.0424 18.5196 93.7022 19.0858L93.2831 19.7839C93.5191 20.1064 93.7128 20.4547 93.8609 20.8197L94.6666 20.8317C95.3298 20.8416 95.8588 21.3842 95.849 22.0436L95.8279 23.4657C95.8181 24.125 95.2721 24.6516 94.6096 24.6418L93.7926 24.6295C93.7145 24.8015 93.6266 24.9707 93.5265 25.1364C93.4313 25.2957 93.3279 25.4476 93.2172 25.5918L93.5541 26.1936C93.8772 26.7696 93.6697 27.4969 93.0903 27.818L91.8419 28.5106C91.2625 28.8318 90.5317 28.6252 90.2086 28.0492L89.8856 27.472C89.4852 27.5176 89.0775 27.5141 88.673 27.4594L88.3027 28.0754C87.9634 28.6415 87.2261 28.8263 86.6572 28.4881L85.4292 27.7585C84.8604 27.4203 84.6748 26.6872 85.015 26.121L85.3845 25.5048C85.155 25.1902 84.9654 24.8511 84.8181 24.4959L84.0833 24.485C83.4204 24.4751 82.8911 23.9325 82.901 23.2731L82.9224 21.851C82.9324 21.1916 83.4778 20.6651 84.1406 20.6749L84.8645 20.6857C84.9442 20.5048 85.037 20.3268 85.142 20.1526C85.2502 19.9721 85.3682 19.8011 85.4951 19.6399L85.0826 18.9027C84.7595 18.3267 84.967 17.5995 85.5464 17.2783L86.7948 16.5857C87.3742 16.2645 88.105 16.4711 88.4281 17.0471L88.8553 17.8093C89.2321 17.772 89.6146 17.7781 89.9946 17.8296L90.4145 17.1313ZM89.4388 25.2032C90.8483 25.2032 91.99 24.0672 91.99 22.6658C91.99 21.2644 90.8483 20.1283 89.4388 20.1283C88.0301 20.1283 86.8884 21.2644 86.8884 22.6658C86.8884 24.0672 88.0301 25.2032 89.4388 25.2032Z" fill="#4E50A7"/>
<path fill-rule="evenodd" clip-rule="evenodd" d="M89.0294 16.842C88.5216 15.9354 87.3709 15.6102 86.4594 16.1157L85.2102 16.8083C84.299 17.3138 83.9721 18.4585 84.4803 19.3651L84.9075 20.1278L84.146 20.1182C83.1047 20.1051 82.2488 20.933 82.2331 21.9693L82.2117 23.3914C82.1964 24.4136 83.0044 25.2576 84.0254 25.2975L84.7423 25.3257L84.3932 25.9492C83.899 26.8326 84.1971 27.9532 85.076 28.4755L86.3032 29.205C87.1943 29.7349 88.3482 29.4494 88.8861 28.5684L89.2646 27.95L89.6405 28.5695C90.1646 29.4318 91.2852 29.7324 92.1771 29.2379L93.4255 28.5453C94.3052 28.0577 94.6405 26.9751 94.2067 26.0857L93.8967 25.4486L94.6079 25.4557C95.6471 25.4663 96.5008 24.6393 96.5163 23.6045L96.5374 22.1824C96.5529 21.1445 95.7204 20.2906 94.6771 20.275L93.8747 20.2631L94.2938 19.5659C94.2938 19.5659 94.2938 19.5659 94.2938 19.5659C94.8293 18.6748 94.5363 17.5209 93.6411 16.9885L92.4131 16.259C91.518 15.7268 90.3583 16.0171 89.8228 16.9074L89.4314 17.559L89.0294 16.842ZM95.3013 19.4745C96.5325 19.7702 97.4391 20.8825 97.4196 22.1955L97.3976 23.6177C97.3781 24.9288 96.4414 26.0124 95.2044 26.2733C95.4811 27.4421 94.9619 28.6978 93.8552 29.3115L92.6068 30.0041C91.4838 30.6266 90.1142 30.3902 89.2621 29.511C88.3881 30.4098 86.977 30.6274 85.8507 29.9581L84.6235 29.2286C83.5147 28.5696 83.0363 27.2615 83.3857 26.0836C82.186 25.7659 81.3105 24.6691 81.3299 23.3783L81.3513 21.9562C81.3708 20.662 82.2838 19.5895 83.4973 19.3111C83.0891 18.0809 83.6011 16.6964 84.7806 16.0421L86.0297 15.3495C87.1935 14.7041 88.6233 14.9819 89.4656 15.9417C90.3404 15.0524 91.7442 14.8394 92.8656 15.5059L94.0936 16.2354C95.2313 16.912 95.7057 18.2729 95.3013 19.4745Z" fill="url(#paint0_linear_4198_20819)"/>
</g>
<defs>
<linearGradient id="paint0_linear_4198_20819" x1="83.3768" y1="16.6403" x2="95.611" y2="30.0627" gradientUnits="userSpaceOnUse">
<stop stop-color="#01D2B6"/>
<stop offset="0.484375" stop-color="#3AFF88"/>
<stop offset="1" stop-color="#F6FF90"/>
</linearGradient>
<clipPath id="clip0_4198_20819">
<rect width="118" height="34" fill="white" transform="translate(3 15)"/>
</clipPath>
</defs>
</svg>
