<svg width="124" height="64" viewBox="0 0 124 64" fill="none" xmlns="http://www.w3.org/2000/svg">
<g clip-path="url(#clip0_4198_25757)">
<path d="M76.8711 35.648C76.8711 30.944 80.8936 27.4241 85.3054 27.4241C89.7171 27.4241 93.7396 30.944 93.7396 35.648C93.7396 40.352 89.7171 43.872 85.3054 43.872C80.8936 43.84 76.8711 40.352 76.8711 35.648ZM89.6198 35.648C89.6198 32.928 87.641 31.2 85.3054 31.2C82.9697 31.2 80.9909 32.928 80.9909 35.648C80.9909 38.368 82.9697 40.096 85.3054 40.096C87.641 40.096 89.6198 38.336 89.6198 35.648Z" fill="black"/>
<path d="M77.8769 27.584H72.5892L69.4101 32L66.3284 27.584H61.0732L66.7501 35.712L60.7812 44H66.0689L69.3453 39.424L72.5244 44H77.7795L72.0053 35.744L77.8769 27.584Z" fill="black"/>
<path d="M59.6125 27.488H55.4927V28.736C54.1627 27.936 52.638 27.488 51.0484 27.488C46.6368 27.488 42.6143 31.008 42.6143 35.712C42.6143 40.416 46.6368 43.936 51.0484 43.936C52.638 43.936 54.1627 43.488 55.4927 42.688V43.808H59.6125V27.488C59.6449 27.488 59.6449 27.488 59.6125 27.488ZM51.308 40.16C48.9724 40.16 46.9935 38.432 46.9935 35.712C46.9935 32.992 49.0048 31.264 51.308 31.264C53.6436 31.264 55.6225 32.992 55.6225 35.712C55.6225 38.432 53.6112 40.16 51.308 40.16Z" fill="black"/>
<path d="M37.2946 34.752C40.3439 33.184 42.0631 30.816 42.0631 27.68C42.0631 22.4 37.7811 20 33.8884 20H25V43.84H29.282V35.52H32.5584L38.3975 43.872H43.6527L37.2946 34.752ZM33.2396 31.68H29.282V24.128H33.3045C35.997 24.128 37.619 25.696 37.619 27.776C37.619 29.952 35.9646 31.68 33.2396 31.68Z" fill="black"/>
<path d="M100 41.216C100 42.656 98.8324 43.808 97.3727 43.808C95.9129 43.808 94.7451 42.656 94.7451 41.216C94.7451 39.776 95.9129 38.624 97.3727 38.624C98.8324 38.624 100 39.776 100 41.216Z" fill="black"/>
</g>
<defs>
<clipPath id="clip0_4198_25757">
<rect width="75" height="24" fill="white" transform="translate(25 20)"/>
</clipPath>
</defs>
</svg>
