<svg width="124" height="64" viewBox="0 0 124 64" fill="none" xmlns="http://www.w3.org/2000/svg">
<g clip-path="url(#clip0_4198_19140)">
<path d="M39.5927 38.0304L37.5326 33.5624C38.6125 32.9023 39.1442 31.7684 39.1442 30.2283C39.1442 27.6896 37.7319 26.1833 34.7746 26.1833H29.3086V38.0304H33.0966V34.2055H34.027L35.5056 38.0304H39.5927ZM33.0966 29.2298H34.4257C35.057 29.2298 35.3561 29.6021 35.3561 30.2621C35.3561 30.9222 35.057 31.2945 34.4257 31.2945H33.0966V29.2298Z" fill="#323232"/>
<path d="M44.7409 38.2335C45.8873 38.2335 47.0835 38.0135 47.6816 37.8442L48.1468 35.1025C47.5653 35.3056 46.3857 35.5594 45.3224 35.5594C44.1262 35.5594 43.5447 35.2548 43.4117 34.4763H48.396V33.4777C48.396 30.4144 46.8841 29.0266 44.3089 29.0266C41.4347 29.0266 39.9561 30.6513 39.9561 33.7147C39.9561 36.7611 41.4513 38.2335 44.7409 38.2335ZM43.3951 32.5638C43.4782 31.7853 43.8603 31.3622 44.4418 31.3622C45.0233 31.3622 45.3556 31.7176 45.4055 32.5638H43.3951Z" fill="#323232"/>
<path d="M51.6485 38.2336C52.8779 38.2336 53.6256 37.6243 53.8416 37.1674L54.1738 38.0305H57.3305V32.5978C57.3305 30.3468 56.0512 29.0605 53.1105 29.0605C51.8811 29.0605 50.7513 29.2298 50.2363 29.3652L49.7711 32.1577C50.2861 31.9716 51.3494 31.7346 52.3629 31.7346C53.4428 31.7346 53.8416 31.9546 53.8416 32.5639V32.5978H52.23C50.1033 32.5978 49.04 33.6301 49.04 35.4072C49.04 37.1674 49.9206 38.2336 51.6485 38.2336ZM53.0274 35.7965C52.5623 35.7965 52.2632 35.5933 52.2632 35.0687C52.2632 34.561 52.529 34.3241 53.0274 34.3241H53.8416V34.9671C53.8416 35.5764 53.5259 35.7965 53.0274 35.7965Z" fill="#323232"/>
<path d="M58.5566 38.0304H62.1617V25.9802L58.5566 26.488V38.0304Z" fill="#323232"/>
<path d="M74.2382 29.0266C73.0918 29.0266 72.2945 29.4836 71.6131 30.2621C71.2479 29.5005 70.5337 29.0266 69.4369 29.0266C68.4071 29.0266 67.709 29.4328 67.0946 30.0928L66.7622 29.2297H63.4893V38.0304H67.0946V32.5977C67.0946 32.073 67.2768 31.8022 67.6922 31.8022C68.1411 31.8022 68.2905 32.073 68.2905 32.5977V38.0304H71.8958V32.5977C71.8958 32.073 72.062 31.8022 72.4941 31.8022C72.9424 31.8022 73.0918 32.073 73.0918 32.5977V38.0304H76.6971V31.616C76.6971 30.1098 75.8831 29.0266 74.2382 29.0266Z" fill="#323232"/>
<path d="M82.0481 38.2335C85.1047 38.2335 86.434 36.8118 86.434 33.6301C86.434 30.4483 85.1047 29.0266 82.0481 29.0266C78.9909 29.0266 77.6616 30.4483 77.6616 33.6301C77.6616 36.8118 78.9909 38.2335 82.0481 38.2335ZM82.0481 35.441C81.4666 35.441 81.2837 35.0855 81.2837 33.6301C81.2837 32.1745 81.4666 31.8191 82.0481 31.8191C82.6297 31.8191 82.8126 32.1745 82.8126 33.6301C82.8126 35.0855 82.6297 35.441 82.0481 35.441Z" fill="#323232"/>
<path d="M87.4526 38.0304H91.0579V32.5977C91.0579 32.073 91.2408 31.8022 91.6891 31.8022C92.1715 31.8022 92.3209 32.073 92.3209 32.5977V38.0304H95.9262V31.616C95.9262 30.1098 95.1121 29.0266 93.4673 29.0266C92.4207 29.0266 91.6891 29.4328 91.0579 30.0928L90.7256 29.2297H87.4526V38.0304Z" fill="#323232"/>
<path d="M102.404 38.0304H106.275L103.966 33.3762L105.993 29.2297H102.288L101.108 32.2761H100.643V25.9802L97.2041 26.488V38.0304H100.643V34.8148H101.158L102.404 38.0304Z" fill="#323232"/>
<path d="M110.97 38.2335C112.117 38.2335 113.313 38.0135 113.911 37.8442L114.376 35.1025C113.794 35.3056 112.615 35.5594 111.552 35.5594C110.355 35.5594 109.774 35.2548 109.641 34.4763H114.625V33.4777C114.625 30.4144 113.114 29.0266 110.538 29.0266C107.664 29.0266 106.185 30.6513 106.185 33.7147C106.185 36.7611 107.68 38.2335 110.97 38.2335ZM109.624 32.5638C109.707 31.7853 110.09 31.3622 110.671 31.3622C111.252 31.3622 111.585 31.7176 111.635 32.5638H109.624Z" fill="#323232"/>
<path d="M117.502 41.4153C119.146 41.4153 120.376 40.6537 121.09 38.4027L123.998 29.2297H120.293L119.495 33.9685L118.366 29.2297H114.578L117.734 37.9627L117.701 38.0304C117.452 38.4366 117.003 38.5551 116.555 38.5551C116.123 38.5551 115.624 38.4197 115.359 38.3182L115.857 41.1107C116.073 41.246 116.671 41.4153 117.502 41.4153Z" fill="#323232"/>
<path fill-rule="evenodd" clip-rule="evenodd" d="M14.0429 33.1537C13.3255 32.8406 12.8643 33.1537 12.8643 33.1537C12.8643 33.1537 13.4792 33.3103 13.7866 33.5191C14.0941 33.7279 14.0941 33.8323 14.0941 33.8323C14.0941 33.8323 13.6841 33.7801 13.3767 33.9889C13.0693 34.1976 12.9156 34.4587 12.9156 34.4587C12.9156 34.4587 13.5304 34.1976 13.9916 34.2499C14.4528 34.302 14.8627 34.5108 14.8627 34.5108C14.8627 34.5108 14.8115 33.4669 14.0429 33.1537ZM17.7834 34.0411C17.8347 33.6235 17.6809 33.2581 17.4247 33.2581C17.1685 33.2059 16.9123 33.5191 16.8611 33.9367C16.8098 34.3543 16.9636 34.7196 17.2198 34.7196C17.4247 34.7719 17.6809 34.4587 17.7834 34.0411ZM18.7057 37.4861C19.4231 40.7224 12.7618 41.1921 11.3784 38.6344C10.3536 36.7031 10.8147 35.8158 10.8147 35.8158C11.6858 41.1921 18.6033 39.9916 18.7057 37.4861ZM16.3487 31.2746L16.5024 31.4312C16.5024 31.4312 16.5536 30.9093 16.8098 30.4917C17.0661 30.0741 17.2198 30.1785 17.5784 30.0219C17.8859 29.8653 18.3983 30.1263 18.3983 30.3873C18.3983 30.6482 18.4495 31.8488 18.552 33.4669C18.6545 35.0328 19.3718 35.868 19.8331 36.39C20.2942 36.9641 20.5504 37.7993 20.3454 39.1042C20.1404 40.4092 19.0644 41.1921 17.8859 41.6619C12.5569 43.7498 6.25431 39.313 8.66264 35.1372C9.27749 34.0933 11.0197 34.0411 11.0197 34.0411L9.99483 33.6757C9.99483 33.6757 9.99483 33.0493 10.3023 32.3186C10.6097 31.5356 11.1222 29.8653 13.223 29.7087C15.3239 29.6043 16.3487 31.2746 16.3487 31.2746ZM5.02454 33.4147C5.02454 33.4147 3.38484 32.9971 2.92368 33.5713C2.46251 34.1455 2.25755 35.8158 3.02616 36.39C3.79477 36.9641 4.46089 37.0163 4.46089 37.0163C4.46089 37.0163 4.51213 36.3377 4.40965 36.0246C4.30717 35.7114 4.10221 35.7114 3.84601 35.2938C3.5898 34.9284 3.99973 34.6152 4.30717 34.6152C4.56338 34.6675 5.02454 33.4147 5.02454 33.4147ZM19.3206 32.5795C19.3206 32.5795 19.3206 33.4669 19.4231 33.8323C19.5768 34.2499 19.7306 34.6152 19.7306 34.6152C19.7306 34.6152 20.038 34.302 20.1404 33.8845C20.2429 33.4669 20.1404 32.7883 19.9355 32.6839C19.7306 32.5274 19.3206 32.5795 19.3206 32.5795ZM16.3999 25.1675C18.4495 26.4725 19.2693 28.0906 19.1156 30.4917C19.1156 30.4917 19.6793 30.5961 20.1917 30.7005C20.7041 30.8049 21.3702 31.5356 21.3702 33.4147C21.4215 35.2938 20.3454 35.8158 20.3454 35.8158C20.3454 35.8158 20.8066 36.4421 21.114 37.0685C21.3702 37.7471 21.7802 40.5657 18.757 42.2882C13.9404 45.0547 6.10059 44.2195 3.43609 38.7911C3.43609 38.7911 2.41128 38.9476 1.02778 37.6427C-0.304468 36.3377 -0.253229 33.4669 0.669101 32.0054C1.54019 30.5438 3.23112 31.1702 3.23112 31.1702C3.23112 31.1702 3.0774 30.7005 3.64105 28.8213C4.25593 26.9423 6.2031 24.489 6.56177 24.0192C6.92044 23.5494 7.07414 22.1923 7.43287 21.3571C7.84275 20.5742 8.76506 20 8.76506 20C8.76506 20 8.45767 20.8352 8.66264 21.6703C8.86755 22.5055 9.73865 23.0274 9.73865 23.0274C9.73865 23.0274 9.58495 22.3489 9.73865 21.7747C9.89241 21.2005 10.4048 20.7308 10.4048 20.7308C10.4048 20.7308 10.3023 21.2527 11.0709 22.1401C11.6858 23.0796 13.2743 23.2362 16.3999 25.1675ZM17.271 36.0768C17.4247 34.9806 16.2974 34.9806 15.7338 35.607C15.4776 35.9202 15.3751 36.1289 15.3751 36.1289C15.3751 36.1289 16.0925 35.4504 16.7074 35.5548C17.271 35.7114 17.271 36.0768 17.271 36.0768Z" fill="#323232"/>
</g>
<defs>
<clipPath id="clip0_4198_19140">
<rect width="124" height="24" fill="white" transform="translate(0 20)"/>
</clipPath>
</defs>
</svg>
