<svg width="148" height="48" viewBox="0 0 148 48" fill="none" xmlns="http://www.w3.org/2000/svg">
<path d="M22.1466 1.92969C9.95768 1.92969 0.0761719 11.8109 0.0761719 23.9998C0.0761719 36.1892 9.95768 46.0697 22.1466 46.0697C34.3368 46.0697 44.2172 36.1892 44.2172 23.9998C44.2172 11.8117 34.3368 1.93074 22.1463 1.93074L22.1466 1.92969ZM32.2679 33.7612C32.1737 33.9155 32.05 34.0497 31.9039 34.1562C31.7578 34.2626 31.5921 34.3392 31.4163 34.3816C31.2406 34.4239 31.0582 34.4312 30.8796 34.403C30.701 34.3748 30.5298 34.3116 30.3756 34.2171C25.1937 31.0519 18.6704 30.335 10.9879 32.0903C10.6322 32.1711 10.2589 32.1075 9.95005 31.9133C9.64123 31.7191 9.42216 31.4102 9.34098 31.0545C9.30055 30.8784 9.29525 30.696 9.32539 30.5179C9.35553 30.3397 9.42052 30.1693 9.51663 30.0163C9.61274 29.8633 9.73809 29.7307 9.8855 29.6262C10.0329 29.5217 10.1995 29.4473 10.3757 29.4073C18.7829 27.4866 25.9944 28.3136 31.812 31.8689C32.4603 32.2668 32.6659 33.1128 32.2679 33.7612ZM34.9693 27.7517C34.4712 28.5613 33.4117 28.817 32.6026 28.3189C26.6701 24.6724 17.627 23.6164 10.61 25.7464C9.69993 26.0212 8.73877 25.5084 8.46257 24.5999C8.33078 24.1632 8.37757 23.692 8.59268 23.2897C8.80779 22.8874 9.17366 22.5868 9.61006 22.4538C17.6254 20.0218 27.5899 21.1999 34.4027 25.3864C35.2118 25.8845 35.4674 26.9437 34.9693 27.7517ZM35.2012 21.494C28.088 17.269 16.3522 16.8806 9.56078 18.9418C8.47021 19.2725 7.31692 18.6569 6.98643 17.5663C6.82752 17.0424 6.8832 16.4768 7.14123 15.9938C7.39927 15.5109 7.83853 15.1503 8.36242 14.9912C16.1585 12.6245 29.1185 13.0818 37.308 17.9435C37.5414 18.0815 37.7453 18.2643 37.908 18.4813C38.0706 18.6983 38.1889 18.9452 38.256 19.208C38.323 19.4707 38.3376 19.7441 38.2989 20.0126C38.2601 20.281 38.1688 20.5391 38.0302 20.7721C37.4503 21.7531 36.18 22.0764 35.2023 21.494H35.2012Z" fill="#1ED760"/>
<path d="M60.1227 22.3035C56.3118 21.3948 55.6344 20.757 55.6344 19.4168C55.6344 18.1507 56.8257 17.2987 58.5994 17.2987C60.3177 17.2987 62.0202 17.9457 63.8071 19.2777C63.8598 19.318 63.9283 19.3341 63.9942 19.3235C64.0274 19.3188 64.0592 19.3073 64.0877 19.2898C64.1163 19.2723 64.141 19.2492 64.1603 19.2218L66.0209 16.599C66.0577 16.547 66.0732 16.4829 66.0644 16.4199C66.0556 16.3568 66.0231 16.2995 65.9735 16.2595C63.8466 14.5536 61.4536 13.7242 58.6547 13.7242C54.5407 13.7242 51.6654 16.1934 51.6654 19.7262C51.6654 23.5148 54.1454 24.8562 58.4307 25.8917C62.0756 26.7316 62.6923 27.4353 62.6923 28.693C62.6923 30.0872 61.4483 30.9542 59.4454 30.9542C57.221 30.9542 55.4052 30.2031 53.3758 28.4479C53.3252 28.4051 53.2601 28.3834 53.194 28.3873C53.1255 28.3925 53.0648 28.4242 53.0227 28.4742L50.9354 30.9569C50.8484 31.0623 50.8589 31.2151 50.9591 31.3047C53.3205 33.4131 56.2248 34.5253 59.361 34.5253C63.7939 34.5253 66.6587 32.1033 66.6587 28.353C66.6666 25.1886 64.7717 23.436 60.1306 22.3069L60.1227 22.3035ZM76.6894 18.5453C74.7681 18.5453 73.1921 19.3022 71.8902 20.8532V19.1074C71.8904 19.0414 71.8645 18.978 71.8181 18.9311C71.7716 18.8842 71.7084 18.8577 71.6424 18.8573H68.2295C68.0924 18.8573 67.9817 18.9696 67.9817 19.1074V38.5049C67.9817 38.642 68.0924 38.7553 68.2295 38.7553H71.6424C71.7795 38.7553 71.8902 38.642 71.8902 38.5049V32.3827C73.1921 33.8401 74.7681 34.5543 76.6894 34.5543C80.2605 34.5543 83.8764 31.8055 83.8764 26.5506C83.8816 21.2946 80.2658 18.545 76.692 18.545L76.6894 18.5453ZM79.9073 26.5506C79.9073 29.2253 78.2601 31.0939 75.8987 31.0939C73.5663 31.0939 71.8058 29.141 71.8058 26.5506C71.8058 23.9599 73.5663 22.0075 75.8987 22.0075C78.2206 22.0073 79.9073 23.9177 79.9073 26.5506ZM93.1401 18.5453C88.5412 18.5453 84.9385 22.0863 84.9385 26.6078C84.9385 31.0807 88.5175 34.5833 93.0848 34.5833C97.6995 34.5833 101.313 31.0544 101.313 26.5506C101.313 22.0621 97.7232 18.5453 93.1401 18.5453ZM93.1401 31.1203C90.6944 31.1203 88.8495 29.1542 88.8495 26.5493C88.8495 23.9325 90.6311 22.0336 93.0848 22.0336C95.5463 22.0336 97.4017 23.9989 97.4017 26.6065C97.4017 29.2227 95.6096 31.1203 93.1401 31.1203ZM111.133 18.8573H107.377V15.0185C107.377 14.9858 107.371 14.9534 107.359 14.9232C107.346 14.8929 107.328 14.8654 107.305 14.8422C107.282 14.819 107.255 14.8006 107.224 14.788C107.194 14.7753 107.162 14.7688 107.129 14.7686H103.716C103.579 14.7686 103.466 14.8809 103.466 15.0185V18.8573H101.827C101.69 18.8573 101.579 18.9696 101.579 19.1074V22.0399C101.579 22.1775 101.69 22.29 101.827 22.29H103.466V29.8789C103.466 32.944 104.992 34.499 108.004 34.499C109.227 34.499 110.242 34.246 111.199 33.703C111.278 33.6609 111.325 33.5765 111.325 33.4869V30.6933C111.325 30.609 111.28 30.5273 111.206 30.4825C111.171 30.4595 111.129 30.4465 111.087 30.4446C111.044 30.4428 111.002 30.4522 110.964 30.4719C110.308 30.8014 109.673 30.9542 108.961 30.9542C107.867 30.9542 107.377 30.4561 107.377 29.3439V22.2914H111.133C111.27 22.2914 111.38 22.1791 111.38 22.0413V19.109C111.381 19.0763 111.376 19.0437 111.364 19.0132C111.352 18.9827 111.334 18.9549 111.311 18.9315C111.288 18.9081 111.261 18.8896 111.231 18.8771C111.2 18.8647 111.168 18.8585 111.135 18.8589L111.133 18.8573ZM124.215 18.8723V18.4009C124.215 17.0138 124.748 16.3952 125.939 16.3952C126.65 16.3952 127.222 16.5365 127.863 16.75C127.942 16.7748 128.024 16.7624 128.087 16.7152C128.119 16.692 128.145 16.6615 128.163 16.6262C128.181 16.5909 128.19 16.5518 128.19 16.5123V13.6369C128.19 13.5832 128.173 13.5308 128.141 13.4876C128.11 13.4443 128.064 13.4127 128.013 13.3974C127.338 13.1963 126.474 12.9899 125.177 12.9899C122.028 12.9899 120.359 14.7647 120.359 18.1204V18.8426H118.72C118.583 18.8426 118.47 18.9548 118.47 19.0924V22.0399C118.47 22.1775 118.583 22.29 118.72 22.29H120.359V33.993C120.359 34.1326 120.473 34.2433 120.61 34.2433H124.02C124.16 34.2433 124.271 34.1326 124.271 33.993V22.2908H127.457L132.338 33.993C131.784 35.2211 131.239 35.4662 130.496 35.4662C129.895 35.4662 129.26 35.287 128.614 34.9312C128.553 34.9003 128.482 34.8937 128.416 34.9127C128.35 34.9365 128.295 34.9839 128.269 35.0471L127.112 37.5851C127.056 37.7064 127.104 37.846 127.22 37.9093C128.427 38.5629 129.515 38.8423 130.862 38.8423C133.381 38.8423 134.776 37.6668 136.001 34.5095L141.92 19.2139C141.936 19.1761 141.941 19.135 141.937 19.0944C141.932 19.0539 141.918 19.0151 141.894 18.9817C141.872 18.9483 141.842 18.9209 141.806 18.9019C141.771 18.883 141.731 18.8731 141.691 18.8731H138.139C138.03 18.8731 137.936 18.9409 137.901 19.0408L134.262 29.4335L130.277 19.0339C130.259 18.9868 130.227 18.9462 130.186 18.9175C130.144 18.8887 130.095 18.8733 130.045 18.8731L124.215 18.8723ZM116.63 18.8573H113.217C113.08 18.8573 112.967 18.9696 112.967 19.1074V33.993C112.967 34.1326 113.08 34.2433 113.217 34.2433H116.63C116.767 34.2433 116.881 34.1326 116.881 33.993V19.1085C116.881 19.0756 116.874 19.043 116.862 19.0126C116.849 18.9822 116.831 18.9546 116.807 18.9314C116.784 18.9081 116.757 18.8897 116.726 18.8772C116.696 18.8647 116.663 18.8583 116.63 18.8584V18.8573ZM114.944 12.0791C113.592 12.0791 112.495 13.1734 112.495 14.5251C112.495 14.8466 112.559 15.165 112.682 15.462C112.805 15.759 112.985 16.0289 113.212 16.2563C113.44 16.4836 113.71 16.6639 114.007 16.7869C114.304 16.9099 114.622 16.9732 114.944 16.9732C116.296 16.9732 117.389 15.8776 117.389 14.5251C117.389 13.1736 116.293 12.0791 114.944 12.0791ZM144.835 23.6436C143.486 23.6436 142.434 22.5591 142.434 21.2422C142.434 19.9252 143.499 18.8283 144.848 18.8283C146.198 18.8283 147.249 19.9126 147.249 21.2285C147.249 22.5454 146.185 23.6436 144.835 23.6436ZM144.848 19.0671C143.618 19.0671 142.687 20.0449 142.687 21.2422C142.687 22.439 143.612 23.4035 144.835 23.4035C146.066 23.4035 146.996 22.4266 146.996 21.2285C146.996 20.0317 146.071 19.0671 144.848 19.0671ZM145.381 21.4754L146.061 22.4263H145.486L144.875 21.554H144.35V22.4263H143.871V19.9057H144.993C145.581 19.9057 145.966 20.2054 145.966 20.7098C145.969 21.1231 145.729 21.3755 145.383 21.4754H145.381ZM144.975 20.3382H144.35V21.1354H144.975C145.286 21.1354 145.473 20.9828 145.473 20.7364C145.473 20.4771 145.286 20.3382 144.975 20.3382Z" fill="#1ED760"/>
</svg>
