<svg width="124" height="64" viewBox="0 0 124 64" fill="none" xmlns="http://www.w3.org/2000/svg">
<g clip-path="url(#clip0_4198_20541)">
<path d="M73.2859 29.3524C74.3115 29.3524 75.143 28.5382 75.143 27.5337C75.143 26.5293 74.3115 25.7151 73.2859 25.7151C72.2602 25.7151 71.4287 26.5293 71.4287 27.5337C71.4287 28.5382 72.2602 29.3524 73.2859 29.3524Z" fill="black"/>
<path d="M66.5716 30.6814C66.3573 30.1219 65.7858 29.5623 65.0716 29.7022C64.5001 29.8421 64.143 30.4716 64.2144 31.0312C64.2858 31.241 64.3573 32.5001 64.3573 32.7799V33.2695C64.3573 34.2488 64.2858 35.1581 64.0716 36.1374C63.5716 38.6555 62.5716 40.4042 61.0716 41.6633C60.5001 42.1529 59.9287 42.2928 59.5001 42.1529C59.0716 42.013 58.7858 41.5234 58.7144 40.8939C58.5001 39.6348 58.4287 38.2358 58.643 36.9068C58.7858 36.1374 59.0001 35.368 59.2858 34.5985C59.4287 34.1788 59.5716 33.8291 59.7144 33.4094C60.0001 32.3602 59.5001 31.8006 59.0001 31.5908C58.143 31.1711 57.3573 31.311 56.8573 32.0804C56.7144 32.3602 56.5716 32.57 56.4287 32.8498C56.2858 33.1296 56.2144 33.2695 56.143 33.4794C55.8573 33.8991 55.643 34.4586 55.2858 34.9483C54.0001 37.2566 52.143 40.754 51.2144 41.5234C50.4287 42.2229 49.9287 42.013 49.7144 41.8032C49.2144 41.1737 49.643 38.8654 50.0001 37.8861C50.2858 37.0467 51.0716 34.039 51.3573 33.0597C51.5001 32.57 51.7144 32.0105 51.5716 31.5208C51.4287 31.1711 51.143 30.8913 50.7858 30.8213C49.7858 30.5415 49.143 30.9612 48.7144 32.0105C48.3573 32.9897 48.0716 33.969 47.8573 34.9483C47.7144 35.4379 47.5716 35.9975 47.4287 36.5571C46.9287 38.4457 46.5001 40.4742 46.2144 42.4327C46.0716 43.3421 46.4287 44.2514 47.2144 44.811C47.643 45.0908 48.2144 45.3006 48.7858 45.3006C49.2144 45.3006 49.7144 45.1607 50.0716 45.0208C51.0716 44.5312 51.9287 43.9716 52.643 43.2022C53.3573 42.5027 54.0716 41.8032 54.7144 41.0338L55.2144 40.5441C55.2858 40.684 55.2858 40.8939 55.3573 41.0338C55.4287 41.1737 55.4287 41.4535 55.5001 41.6633C56.143 43.6219 57.0001 44.741 58.143 45.0908C59.2858 45.4405 60.7144 44.9509 62.2858 43.6918C62.5716 43.482 62.7858 43.2022 63.0716 42.9224C64.8573 41.0338 66.0001 38.7255 66.5716 36.2773C67.2144 34.039 67.2144 32.0105 66.5716 30.6814Z" fill="black"/>
<path d="M95.143 20.0492C92.7145 25.5751 86.7859 38.4456 86.5716 42.7824C86.4288 45.8601 89.0002 45.6503 91.143 44.5311C91.8573 44.0415 92.5716 43.5518 93.2145 42.9223C94.5002 41.7332 96.0002 40.3342 95.7859 40.2642C95.7145 40.1943 94.2145 41.3135 93.5716 41.7332C92.7859 42.2228 90.0716 43.4819 89.7859 42.3627C89.643 41.943 90.0716 39.9145 90.3573 39.215C91.4288 36.2772 92.5716 33.6192 93.5716 31.0311C94.8573 27.8135 96.643 24.2461 97.9288 21.0285C98.5716 19.4197 96.0716 17.9508 95.143 20.0492Z" fill="black"/>
<path d="M71.4287 42.8523C71.0001 42.9223 70.4287 43.1321 70.143 42.9223C69.643 42.5725 71.0001 38.7254 71.2144 38.1658C71.5001 37.2564 71.7144 36.6269 72.5715 33.8989C72.9287 32.6399 73.0715 31.5207 72.643 31.101C72.4287 30.9611 72.143 30.8212 71.9287 30.8912C70.2144 31.101 68.143 38.5155 67.7858 39.6347C67.5001 40.3342 67.5001 40.544 67.3573 40.8238C67.2858 41.1036 67.2144 41.3134 67.0001 42.0129C66.5715 43.3419 66.643 44.3912 67.2858 44.9507C67.5715 45.2305 68.0001 45.3704 68.3573 45.3005C69.0715 45.2305 69.7858 45.0906 70.4287 44.7409C71.8573 43.9715 73.143 42.9922 74.2144 41.8031C74.5715 41.3834 75.2858 40.614 75.143 40.544C75.0001 40.4741 72.7144 42.5026 71.4287 42.8523Z" fill="black"/>
<path d="M86.6432 34.3886C86.786 33.969 86.9289 33.5493 87.1432 33.1296C87.4289 32.57 87.6432 31.9405 87.786 31.3809C87.9289 30.9612 87.8575 30.4016 87.5003 30.1218C87.2146 29.842 86.786 29.6322 86.3575 29.7721C86.0003 29.842 85.3575 30.1918 85.0717 31.3109C83.5717 36.0674 82.786 38.026 79.786 41.2436C79.3575 41.6633 78.9289 41.9431 78.5003 42.2228C78.5003 42.1529 78.5003 42.1529 78.5003 42.0829C78.4289 41.4534 78.4289 40.4042 79.7146 36.4171C81.1432 32.0104 80.2146 31.1011 79.786 30.9612C79.3575 30.8213 78.786 31.1011 78.5717 31.6607C76.6432 35.5778 75.5717 41.4534 75.4289 42.5026C75.3575 43.412 75.7146 44.2513 76.4289 44.8109C76.786 45.0907 77.2146 45.2306 77.6432 45.2306C78.0003 45.2306 78.3575 45.1607 78.7146 44.9508C79.6432 44.5311 80.5003 43.9016 81.1432 43.2021C84.0717 40.2643 85.1432 38.3757 86.6432 34.3886Z" fill="black"/>
<path d="M44.3573 35.7177C44.0002 35.298 43.643 34.8784 43.2144 34.5286C42.7144 34.1089 42.2144 33.7592 41.643 33.3395L37.2859 30.1918C36.8573 29.912 36.5002 29.6322 36.2144 29.3524C35.9287 29.1426 35.643 28.8628 35.4287 28.653C35.2859 28.4431 35.0716 28.2333 34.9287 27.9535C34.7859 27.7436 34.7859 27.4638 34.7859 27.1841C34.7859 26.7644 34.9287 26.3447 35.2144 25.9949C35.5002 25.5752 35.8573 25.1556 36.2859 24.8758C36.7859 24.4561 37.2859 24.1763 37.8573 23.8965C38.4287 23.6167 39.0716 23.3369 39.643 23.1271C40.2859 22.9172 40.8573 22.7074 41.5002 22.6374C42.0716 22.4975 42.7144 22.4975 43.2859 22.4975C43.5716 22.4975 43.7859 22.5675 44.0002 22.6374C44.2144 22.7074 44.2859 22.9172 44.2859 23.1271C44.2144 23.4768 44.143 23.8265 43.8573 24.0364C43.5716 24.3162 43.3573 24.596 43.0002 24.8758C42.7144 25.1556 42.3573 25.4353 42.143 25.7151C41.9287 25.9949 41.7144 26.3447 41.7144 26.7644C41.7144 27.1141 41.8573 27.4638 42.0002 27.7436C42.2144 28.0234 42.643 28.1633 43.0002 28.1633C43.5002 28.1633 44.0002 28.0234 44.3573 27.6737C45.3573 27.0442 46.2144 26.2747 46.8573 25.3654C47.3573 24.596 47.643 23.6866 47.643 22.7773C47.643 22.2177 47.5716 21.6581 47.3573 21.1685C47.143 20.7488 46.8573 20.3291 46.4287 20.0493C46.0002 19.7695 45.5716 19.5597 45.0716 19.4198C44.5002 19.2799 43.9287 19.21 43.3573 19.21C42.5002 19.21 41.5716 19.3499 40.7859 19.4898C39.8573 19.6996 38.9287 19.9794 38.0716 20.3991C37.143 20.8188 36.2859 21.2385 35.5002 21.798C34.7144 22.2877 33.9287 22.8473 33.2859 23.5467C32.5002 23.9664 32.0002 24.6659 31.5716 25.3654C31.143 26.0649 31.0002 26.9043 31.0002 27.6037C31.0002 28.4431 31.2144 29.2126 31.7144 29.982C32.3573 30.8214 33.0716 31.5908 33.8573 32.2903C34.0002 32.4302 34.5002 32.7799 35.2859 33.3395C36.0002 33.8991 37.143 34.5986 38.643 35.5778C39.3573 35.9975 39.9287 36.4872 40.4287 37.1167C40.7859 37.5364 40.9287 37.9561 41.0002 38.5157C41.0002 39.1452 40.8573 39.7048 40.5002 40.1245C40.143 40.6141 39.643 41.1037 39.0716 41.3835C38.4287 41.8032 37.7859 42.083 37.0002 42.2229C36.143 42.4328 35.3573 42.5027 34.5002 42.5027C33.7859 42.5027 33.0716 42.4328 32.2859 42.3628C31.7859 42.2929 31.2859 42.153 30.7859 41.9431C27.643 40.4043 31.2144 38.9353 31.143 38.026C31.0716 36.767 29.7859 36.8369 27.2144 39.425C26.5002 40.1944 25.4287 42.0131 26.5002 43.2022C26.9287 43.7618 27.4287 44.2514 28.0716 44.6012C28.7859 45.0908 29.643 45.3706 30.5002 45.5804C31.7859 45.8602 33.143 46.0001 34.4287 45.9302C36.0002 45.9302 37.5002 45.7203 38.9287 45.2307C40.143 44.811 41.3573 44.2514 42.4287 43.412C43.3573 42.7126 44.0716 41.8732 44.643 40.8939C45.143 40.0545 45.4287 39.0752 45.4287 38.026C45.4287 37.6063 45.3573 37.1866 45.143 36.767C44.9287 36.4872 44.643 36.0675 44.3573 35.7177Z" fill="black"/>
</g>
<defs>
<clipPath id="clip0_4198_20541">
<rect width="72" height="27" fill="white" transform="translate(26 19)"/>
</clipPath>
</defs>
</svg>
