<svg width="124" height="64" viewBox="0 0 124 64" fill="none" xmlns="http://www.w3.org/2000/svg">
<path d="M65.0693 51.992H64.0779V51.0923L64.1017 51.0237L64.1678 51.0026H65.0693V51.992ZM62.7216 51.992L61.6245 51.9867L61.6297 51.0923L62.7243 51.0976V51.992H62.7216ZM60.2735 51.992L59.1763 51.9867L59.1816 51.0923L60.2761 51.0976V51.992H60.2735ZM57.8253 51.992L56.7281 51.9867L56.7334 51.0923L57.8253 51.0976V51.992ZM55.3798 51.992L54.2826 51.9867L54.2879 51.0923L55.3798 51.0976V51.992ZM52.9316 51.992L51.8345 51.9867L51.8398 51.0923L52.9316 51.0976V51.992ZM50.4835 51.992L49.3863 51.9867L49.3916 51.0923L50.4861 51.0976V51.992H50.4835ZM48.0353 51.992L46.9381 51.9867L46.9434 51.0923L48.038 51.0976V51.992H48.0353ZM45.5872 51.992L44.49 51.9867L44.4953 51.0923L45.5898 51.0976V51.992H45.5872ZM43.139 51.992L42.0418 51.9867L42.0471 51.0923L43.1416 51.0976V51.992H43.139ZM40.6908 51.992L39.5937 51.9867L39.599 51.0923L40.6908 51.0976V51.992ZM38.2453 51.992L37.1481 51.9867L37.1534 51.0923L38.2453 51.0976V51.992ZM35.7972 51.992L34.7 51.9867L34.7053 51.0923L35.7972 51.0976V51.992ZM33.349 51.992L32.2518 51.9867L32.2571 51.0923L33.3516 51.0976V51.992H33.349ZM30.9008 51.992L29.8037 51.9867L29.809 51.0923L30.9035 51.0976V51.992H30.9008ZM28.4527 51.992L27.3555 51.9867L27.3608 51.0923L28.4553 51.0976V51.992H28.4527ZM26.0019 51.992H25.0078V51.0026H25.9093L25.9781 51.0237L26.0019 51.0923V51.992ZM25.9093 49.649L25.0078 49.6437L25.0131 48.554L25.912 48.5593V49.649H25.9093ZM25.9093 47.2057L25.0078 47.2005L25.0131 46.1081L25.912 46.1134V47.2057H25.9093ZM25.9093 44.7625L25.0078 44.7572L25.0131 43.6648L25.912 43.6701V44.7625H25.9093ZM25.9093 42.3192L25.0078 42.3166L25.0131 41.2242L25.912 41.2295V42.3192H25.9093ZM25.9093 39.8786L25.0078 39.8733L25.0131 38.7809L25.912 38.7862V39.8786H25.9093ZM25.9093 37.4353L25.0078 37.43L25.0131 36.3377L25.912 36.3429V37.4353H25.9093ZM25.9093 34.992L25.0078 34.9867L25.0131 33.8944L25.912 33.8997V34.992H25.9093ZM25.9093 32.5488L25.0078 32.5435L25.0131 31.4538L25.912 31.459V32.5488H25.9093ZM25.9093 30.1055L25.0078 30.1002L25.0131 29.0105L25.912 29.0158V30.1055H25.9093ZM25.9093 27.6622L25.0078 27.6569L25.0131 26.5646L25.912 26.5699V27.6622H25.9093ZM25.9093 25.2189L25.0078 25.2137L25.0131 24.1213L25.912 24.1266V25.2189H25.9093ZM25.9093 22.7783L25.0078 22.773L25.0131 21.6807L25.912 21.686V22.7783H25.9093ZM25.9093 20.335L25.0078 20.3298L25.0131 19.2374L25.912 19.2427V20.335H25.9093ZM25.9093 17.8918L25.0078 17.8865L25.0131 16.7968L25.912 16.8021V17.8918H25.9093ZM25.9093 15.4485L25.0078 15.4432L25.0131 14.3535L25.912 14.3588V15.4485H25.9093ZM25.9093 12.9999H25.0078V12.0105H26.0019V12.9102L25.9781 12.9762L25.9093 12.9999ZM62.7243 12.9102L61.6271 12.9076L61.6324 12.0105L62.7269 12.0158V12.9102H62.7243ZM60.2761 12.9102L59.1789 12.9076L59.1842 12.0105L60.2788 12.0158V12.9102H60.2761ZM57.828 12.9102L56.7308 12.9076L56.7361 12.0105L57.828 12.0158V12.9102ZM55.3798 12.9102L54.2826 12.9076L54.2879 12.0105L55.3798 12.0158V12.9102ZM52.9316 12.9102L51.8345 12.9076L51.8398 12.0105L52.9343 12.0158V12.9102H52.9316ZM50.4835 12.9102L49.3863 12.9076L49.3916 12.0105L50.4861 12.0158V12.9102H50.4835ZM48.0353 12.9102L46.9381 12.9076L46.9434 12.0105L48.038 12.0158V12.9102H48.0353ZM45.5898 12.9102L44.4926 12.9076L44.4979 12.0105L45.5924 12.0158V12.9102H45.5898ZM43.1416 12.9102L42.0445 12.9076L42.0498 12.0105L43.1443 12.0158V12.9102H43.1416ZM40.6935 12.9102L39.5963 12.9076L39.6016 12.0105L40.6935 12.0158V12.9102ZM38.2453 12.9102L37.1481 12.9076L37.1534 12.0105L38.2453 12.0158V12.9102ZM35.7972 12.9102L34.7 12.9076L34.7053 12.0105L35.7972 12.0158V12.9102ZM33.349 12.9102L32.2518 12.9076L32.2571 12.0105L33.3516 12.0158V12.9102H33.349ZM30.9008 12.9102L29.8037 12.9076L29.809 12.0105L30.9035 12.0158V12.9102H30.9008ZM28.4553 12.9102L27.3582 12.9076L27.3634 12.0105L28.458 12.0158V12.9102H28.4553ZM65.0693 12.9999H64.1678L64.1017 12.9762L64.0779 12.9102V12.0105H65.0693V12.9999ZM65.0667 49.649L64.1678 49.6437L64.1731 48.554L65.072 48.5593L65.0667 49.649ZM65.0667 47.2057L64.1678 47.2005L64.1731 46.1108L65.072 46.116L65.0667 47.2057ZM65.0667 44.7651L64.1678 44.7598L64.1731 43.6675L65.072 43.6728L65.0667 44.7651ZM65.0667 42.3218L64.1678 42.3166L64.1731 41.2242L65.072 41.2295L65.0667 42.3218ZM65.0667 39.8786L64.1678 39.8733L64.1731 38.7809L65.072 38.7862L65.0667 39.8786ZM65.0667 37.4353L64.1678 37.43L64.1731 36.3377L65.072 36.3429L65.0667 37.4353ZM65.0667 34.992L64.1678 34.9867L64.1731 33.8944L65.072 33.8997L65.0667 34.992ZM65.0667 32.5488L64.1678 32.5435L64.1731 31.4538L65.072 31.459L65.0667 32.5488ZM65.0667 30.1055L64.1678 30.1028L64.1731 29.0105L65.072 29.0158L65.0667 30.1055ZM65.0667 27.6648L64.1678 27.6596L64.1731 26.5672L65.072 26.5725L65.0667 27.6648ZM65.0667 25.2216L64.1678 25.2163L64.1731 24.124L65.072 24.1292L65.0667 25.2216ZM65.0667 22.7783L64.1678 22.773L64.1731 21.6807L65.072 21.686L65.0667 22.7783ZM65.0667 20.335L64.1678 20.3298L64.1731 19.2374L65.072 19.2427L65.0667 20.335ZM65.0667 17.8918L64.1678 17.8865L64.1731 16.7968L65.072 16.8021L65.0667 17.8918V17.8918ZM65.0667 15.4485L64.1678 15.4432L64.1731 14.3535L65.072 14.3588L65.0667 15.4485Z" fill="#181D20"/>
<path d="M70.2407 45.1952V43.1055C67.8903 45.0554 65.1989 45.5145 62.3304 45.2031C59.4857 44.8944 56.9423 43.8944 54.9198 41.686C54.6052 42.5224 54.3012 43.3139 54.0077 44.1081C53.5689 45.2902 53.5715 45.2928 52.3157 45.2928C51.0361 45.2928 49.7591 45.2849 48.4795 45.3007C48.194 45.3034 48.0565 45.2163 47.9561 44.9472C44.7386 36.306 41.5105 27.6728 38.2824 19.0422C38.2507 18.9604 38.2269 18.8759 38.1846 18.7519C38.3458 18.7387 38.4727 18.7203 38.597 18.7203C40.5666 18.7176 42.5363 18.7282 44.5085 18.7097C44.8364 18.7071 44.9712 18.8179 45.0796 19.1161C46.9593 24.2374 48.8523 29.3535 50.7426 34.4723C50.7981 34.6226 50.8616 34.773 50.9594 35.0158C51.4565 33.6807 51.9191 32.4379 52.3818 31.1978C53.8729 27.1952 55.3693 23.1978 56.8445 19.1873C56.9846 18.8047 57.1644 18.7044 57.5504 18.7071C59.9854 18.7308 62.4229 18.6807 64.8579 18.744C67.4065 18.8126 69.7251 19.6068 71.7053 21.2533C72.0147 21.5118 72.324 21.6095 72.7232 21.6068C77.8204 21.5963 82.9177 21.6015 88.0176 21.5989C89.8471 21.5989 91.6132 21.8944 93.2497 22.7308C95.4678 23.8654 96.9325 25.6464 97.604 28.0343C98.4051 30.8918 98.2861 33.7018 96.9431 36.3957C96.3429 37.5989 95.4573 38.5672 94.3231 39.372C95.8803 41.306 97.4163 43.219 98.9973 45.1794C98.8387 45.1978 98.7303 45.2242 98.6219 45.2242C96.4566 45.2269 94.2913 45.2321 92.1261 45.2137C91.9357 45.211 91.6898 45.0976 91.5656 44.9525C90.5636 43.7942 89.588 42.6121 88.586 41.4538C88.4565 41.306 88.2265 41.1556 88.044 41.1556C84.2687 41.1372 80.496 41.1424 76.7206 41.1424C76.6466 41.1424 76.5752 41.153 76.4483 41.1635V45.1899C74.365 45.1952 72.3293 45.1952 70.2407 45.1952V45.1952ZM76.4721 35.0211H77.059C80.6229 35.0211 84.1867 35.0237 87.7479 35.0184C88.1524 35.0184 88.5622 34.9947 88.9614 34.9314C90.2437 34.7308 91.2219 34.1213 91.5999 32.8047C91.8617 31.8918 91.859 30.9657 91.6132 30.0501C91.3541 29.0791 90.7381 28.4036 89.7757 28.1161C89.2364 27.9551 88.6574 27.8443 88.0969 27.8416C84.3665 27.8179 80.6387 27.8285 76.9083 27.8285H76.4721V35.0211V35.0211ZM58.177 32.9393C57.8333 33.8575 57.4949 34.7361 57.1803 35.6226C57.1459 35.7203 57.1909 35.8944 57.2622 35.9736C58.5181 37.3403 59.9298 38.4749 61.7779 38.9498C63.0971 39.2876 64.4137 39.3825 65.7198 38.9102C66.349 38.6807 66.7218 38.2348 66.7746 37.5356C66.8249 36.868 66.5261 36.3957 65.9577 36.1108C65.4104 35.839 64.842 35.591 64.2604 35.401C62.185 34.7282 60.0118 34.2981 58.177 32.9393V32.9393ZM70.2433 31.3746C70.2433 30.3139 70.1878 29.3641 70.2618 28.4274C70.3226 27.6543 70.0662 27.1899 69.4211 26.7519C68.2314 25.9445 67.0311 25.1952 65.6008 24.9102C64.4904 24.6886 63.3879 24.6675 62.3304 25.1424C61.6906 25.43 61.4104 25.9498 61.3734 26.6464C61.339 27.3087 61.6668 27.7361 62.2114 28.0131C62.69 28.2559 63.1896 28.4696 63.6999 28.6411C65.9233 29.372 68.271 29.8021 70.2433 31.3746V31.3746Z" fill="#1C1C1C"/>
</svg>
