<svg width="126" height="48" viewBox="0 0 126 48" fill="none" xmlns="http://www.w3.org/2000/svg">
<path d="M40.9111 21.8124C40.9111 19.5543 38.7447 17.1861 34.9793 17.1861C30.7566 17.1861 26.1204 20.2952 25.4105 26.5008C24.685 32.7671 28.5676 35.5517 32.4812 35.5517C36.3948 35.5517 38.4441 34.0204 40.5399 31.9782C38.7376 29.706 36.4103 30.756 35.9644 30.9874C35.2261 31.3988 34.3901 31.6022 33.5453 31.576C32.0352 31.576 30.4941 30.8957 30.4941 28.0646C40.1701 27.1049 40.9096 24.0564 40.9096 21.8124H40.9111ZM36.1154 22.1836C36.0533 22.8794 35.7766 24.0705 30.8765 24.7381C31.9068 21.0545 33.8827 20.7779 34.7901 20.7779C34.9741 20.7695 35.1576 20.8008 35.3284 20.8696C35.4991 20.9385 35.6531 21.0433 35.7797 21.1769C35.9064 21.3105 36.0028 21.4698 36.0624 21.644C36.122 21.8182 36.1435 22.0032 36.1253 22.1864L36.1154 22.1836ZM19.7271 22.7876L17.4774 29.8894L15.8897 17.5587C12.3472 17.5587 10.4419 20.0962 9.44836 22.7721L6.70474 29.905L6.31945 22.8483C6.11057 19.5684 3.11574 17.5728 0.695312 17.5728L3.6224 35.412C7.33419 35.3978 9.33828 32.8744 10.3869 30.1985L12.7071 24.134C12.7283 24.381 14.3104 35.4134 14.3104 35.4134C18.0391 35.4134 20.0432 33.0466 21.1172 30.4624L26.3391 17.5742C22.6626 17.5742 20.7249 20.0962 19.7242 22.7876H19.7271ZM54.5953 17.1423C52.2991 17.1423 50.5448 18.3956 49.0629 20.236V20.2218L50.3867 9.5C47.3354 9.5 44.8543 12.1618 44.3773 16.1219L42.0825 35.2736C43.8396 35.2736 45.7039 34.7627 46.706 33.4629C47.6007 34.623 48.9401 35.5517 50.9286 35.5517C56.0743 35.5517 59.6041 29.5493 59.6041 23.9167C59.573 18.7795 57.0919 17.1564 54.6108 17.1564L54.5953 17.1423ZM54.1154 26.3484C53.5791 29.4886 51.8347 31.624 50.1567 31.624C48.4786 31.624 47.7376 30.8661 47.7376 30.8661C48.0623 28.114 48.2627 26.426 48.878 24.971C49.4933 23.5159 50.9583 21.1957 52.4839 21.1957C53.9799 21.1957 54.6574 23.1913 54.1168 26.347L54.1154 26.3484ZM72.4373 17.5601H68.8469L68.861 17.3738C69.108 15.0225 69.6626 13.7848 71.4917 13.583C72.7407 13.4588 73.2954 12.8096 73.4337 12.0983L73.8811 9.60726C66.6833 9.56069 64.4054 12.684 63.8254 17.4514L63.8112 17.5601H63.7336C62.5622 17.5601 61.2694 18.891 61.0521 20.5775L60.9745 21.1957H63.3794L61.3612 37.934L60.743 40.9359C60.8206 40.9359 60.9124 40.95 60.9886 40.95C64.3617 40.8258 66.521 38.1499 66.998 34.266L68.5731 21.1928H69.7021C70.8114 21.1928 72.107 20.0779 72.3328 18.222L72.4373 17.5601ZM91.1119 17.2496C86.9669 17.2496 83.0533 20.3122 81.8536 25.1248C80.654 29.9374 82.4718 35.6293 88.5715 35.6293C94.6713 35.6293 98.1643 29.7017 98.1643 24.7677C98.17 19.8634 94.859 17.2482 91.1133 17.2482L91.1119 17.2496ZM92.7914 26.1918C92.5769 28.3737 91.62 31.6846 89.0006 31.6846C86.3812 31.6846 86.7354 27.8176 86.9894 25.9758C87.2675 24.0113 88.3613 21.2112 90.7182 21.2112C92.838 21.2112 93.037 23.7332 92.7928 26.1932L92.7914 26.1918ZM118.647 22.7721L116.397 29.8739C116.337 29.3164 114.811 17.5432 114.811 17.5432C111.269 17.5432 109.372 20.0807 108.378 22.7566L105.634 29.8894C105.62 29.3785 105.249 22.8328 105.249 22.8328C105.026 19.5529 102.034 17.5573 99.6039 17.5573L102.515 35.3964C106.227 35.3823 108.231 32.8589 109.28 30.183L111.592 24.1185C111.606 24.3655 113.195 35.3978 113.195 35.3978C116.924 35.3978 118.919 33.031 120.002 30.4469L125.228 17.5587C121.561 17.5587 119.619 20.0807 118.633 22.7721H118.647ZM75.8273 9.60444L72.807 34.0627L72.1889 37.0801C72.2651 37.0801 72.3582 37.0943 72.4344 37.0943C75.6833 37.0477 77.9951 34.1869 78.4284 30.581L80.1685 16.5482C80.6963 12.262 78.1545 9.60162 75.8273 9.60162V9.60444Z" fill="#4353FF"/>
</svg>
