<svg width="15" height="14" viewBox="0 0 15 14" fill="none" xmlns="http://www.w3.org/2000/svg">
<rect x="0.169678" width="2" height="2" fill="#ACA7A7"/>
<rect x="4.16968" width="2" height="2" fill="#ACA7A7"/>
<rect x="8.16968" width="2" height="2" fill="#ACA7A7"/>
<rect x="12.1697" width="2" height="2" fill="#ACA7A7"/>
<rect x="0.169678" y="4" width="2" height="2" fill="#ACA7A7"/>
<rect x="4.16968" y="4" width="2" height="2" fill="#ACA7A7"/>
<rect x="8.16968" y="4" width="2" height="2" fill="#ACA7A7"/>
<rect x="12.1697" y="4" width="2" height="2" fill="#ACA7A7"/>
<rect x="0.169678" y="8" width="2" height="2" fill="#ACA7A7"/>
<rect x="4.16968" y="8" width="2" height="2" fill="#ACA7A7"/>
<rect x="8.16968" y="8" width="2" height="2" fill="#ACA7A7"/>
<rect x="12.1697" y="8" width="2" height="2" fill="#ACA7A7"/>
<rect x="0.169678" y="12" width="2" height="2" fill="#ACA7A7"/>
<rect x="4.16968" y="12" width="2" height="2" fill="#ACA7A7"/>
<rect x="8.16968" y="12" width="2" height="2" fill="#ACA7A7"/>
<rect x="12.1697" y="12" width="2" height="2" fill="#ACA7A7"/>
</svg>
